<?xml version="1.0" standalone="no"?>
<!DOCTYPE svg PUBLIC "-//W3C//DTD SVG 1.1//EN" "http://www.w3.org/Graphics/SVG/1.1/DTD/svg11.dtd" >
<svg xmlns="http://www.w3.org/2000/svg">
<metadata>
Created by FontPrep 20130207 at Wed Sep 17 16:38:33 2014
 By CJ
SAS Scandinavian is a trademark of Scandinavian Airlines System.
</metadata>
<defs>
<font id="dbfe64ff469a49df58bf0fafd26422cd" horiz-adv-x='1024' >
  <font-face 
    font-family="Scandinavian-Regular"
    font-weight="400"
    font-stretch="normal"
    units-per-em="2048"
    panose-1="2 0 5 3 0 0 0 0 0 0"
    ascent="1552"
    descent="-496"
    x-height="1065"
    cap-height="1501"
    bbox="-354 -512 2359 2009.02"
    underline-thickness="102"
    underline-position="-205"
    unicode-range="U+0020-FFFD"
  />
<missing-glyph horiz-adv-x="450" 
 />
    <glyph glyph-name="fi" unicode="fi" horiz-adv-x="1077" 
d="M913 0h-159v1065h159v-1065zM913 1223h-159v194h159v-194zM367 1186v-121h204v-133h-204v-932h-160v932h-168v133h168v152q-1 127 69 205t230 79q55 0 108 -8v-147q-80 6 -116 6t-69 -16q-62 -32 -62 -150z" />
    <glyph glyph-name="fl" unicode="fl" horiz-adv-x="1077" 
d="M913 0h-159v1444l159 57v-1501zM367 1186v-121h204v-133h-204v-932h-160v932h-168v133h168v152q-1 127 69 205t230 79q55 0 108 -8v-147q-80 6 -116 6t-69 -16q-62 -32 -62 -150z" />
    <glyph glyph-name=".notdef" unicode="&#xfffd;" horiz-adv-x="450" 
 />
    <glyph glyph-name=".null" horiz-adv-x="0" 
 />
    <glyph glyph-name="nonmarkingreturn" 
 />
    <glyph glyph-name="space" unicode=" " horiz-adv-x="450" 
 />
    <glyph glyph-name="exclam" unicode="!" horiz-adv-x="483" 
d="M137 0v248h209v-248h-209zM311 465h-139l-35 1036h209z" />
    <glyph glyph-name="quotedbl" unicode="&#x22;" horiz-adv-x="757" 
d="M463 1501h174v-235l-31 -267h-112l-31 267v235zM121 1501h174v-235l-31 -267h-112l-31 267v235z" />
    <glyph glyph-name="numbersign" unicode="#" horiz-adv-x="1366" 
d="M926 928h-408l-76 -359h410zM82 1063h328l94 438h133l-92 -438h407l92 438h136l-93 -438h195v-135h-223l-72 -359h295v-135h-324l-92 -434h-135l94 434h-411l-90 -434h-136l91 434h-197v135h225l76 359h-301v135z" />
    <glyph glyph-name="dollar" unicode="$" horiz-adv-x="1183" 
d="M903 372q0 86 -44 146t-183 123v-506q115 12 171 81t56 156zM537 881v465q-90 -8 -160 -66t-70 -152q1 -157 230 -247zM1077 391q-1 -178 -115 -288t-286 -126v-215h-139v211q-119 8 -203 35t-203 88v199q203 -150 406 -168v567q-236 92 -320 188t-84 237q1 140 103 250
t301 130v109h139v-109q174 -20 323 -125v-200q-70 74 -141 110t-182 59v-516q272 -115 342 -226q37 -58 48 -102t11 -108z" />
    <glyph glyph-name="percent" unicode="%" horiz-adv-x="1728" 
d="M1358 680q-98 0 -146 -86t-47 -209q-1 -123 51 -206t146 -83t144 82t50 212t-50 210t-148 80zM1690 397q0 -171 -80 -291t-245 -120t-249 112t-84 288q0 177 83 291t240 114t246 -111t89 -283zM508 -29h-127l842 1559h125zM696 1135q0 -173 -80 -291t-245 -119
q-164 0 -248 112q-84 113 -84 289t83 290q84 114 240 114t245 -111t89 -284zM365 1419q-97 0 -145 -87t-48 -210q0 -122 50 -204t146 -82t145 82q50 82 50 212t-50 209q-50 80 -148 80z" />
    <glyph glyph-name="ampersand" unicode="&#x26;" horiz-adv-x="1392" 
d="M592 125q158 0 297 123l-354 471q-150 -104 -205 -176t-56 -158q0 -123 98 -191t220 -69zM797 1232q0 66 -39 114q-39 47 -114 47q-75 -1 -119 -63q-43 -62 -43 -154t98 -234q127 90 172 157t45 133zM588 -29q-231 0 -360 115q-128 115 -128 303q0 154 83 253t253 210
q-123 168 -123 332q1 164 97 255t248 91t229 -86q78 -86 78 -213t-74 -220t-215 -200l319 -420q84 143 121 297h168q-37 -154 -74 -243t-108 -195l190 -250h-215l-88 121q-57 -47 -101 -75t-124 -52t-176 -23z" />
    <glyph glyph-name="quotesingle" unicode="'" horiz-adv-x="417" 
d="M121 1501h174v-235l-31 -267h-112l-31 267v235z" />
    <glyph glyph-name="parenleft" unicode="(" horiz-adv-x="677" 
d="M662 -397h-166q-199 227 -299 443q-101 216 -101 520t101 520q100 216 299 444h166q-211 -262 -298 -471q-88 -209 -88 -493t88 -492t298 -471z" />
    <glyph glyph-name="parenright" unicode=")" horiz-adv-x="677" 
d="M401 566q0 284 -87 493t-298 471h166q199 -228 299 -444q101 -216 101 -520t-100 -520t-300 -443h-166q211 262 298 471q87 208 87 492z" />
    <glyph glyph-name="asterisk" unicode="*" horiz-adv-x="950" 
d="M403 1079l-352 -37v158l355 -41l-211 291l135 80l143 -336l145 336l136 -80l-213 -297l360 47v-158l-360 39l213 -290l-138 -78l-143 325l-143 -323l-137 76z" />
    <glyph glyph-name="plus" unicode="+" horiz-adv-x="1366" 
d="M133 821h477v479h144v-479h479v-143h-479v-477h-144v477h-477v143z" />
    <glyph glyph-name="comma" unicode="," horiz-adv-x="497" 
d="M139 0v256h221v-242l-153 -305h-103l127 291h-92z" />
    <glyph glyph-name="hyphen" unicode="-" horiz-adv-x="686" 
d="M606 451h-528v163h528v-163z" />
    <glyph glyph-name="period" unicode="." horiz-adv-x="497" 
d="M139 0v256h221v-256h-221z" />
    <glyph glyph-name="slash" unicode="/" horiz-adv-x="937" 
d="M186 0h-155l721 1501h155z" />
    <glyph glyph-name="zero" unicode="0" horiz-adv-x="1183" 
d="M592 1376q-168 0 -261 -173t-93 -461t110 -474q89 -143 256 -143q92 -1 167 65t111 170q64 185 64 402t-73 398q-38 97 -110 157q-73 59 -171 59zM1126 745q0 -341 -143 -557t-395 -217t-391 221t-139 560t140 558t395 220t394 -222t139 -563z" />
    <glyph glyph-name="one" unicode="1" horiz-adv-x="1183" 
d="M942 0h-633v154h246v1142q-131 -72 -295 -114v151q180 68 324 168h145v-1347h213v-154z" />
    <glyph glyph-name="two" unicode="2" horiz-adv-x="1183" 
d="M1075 0h-956q25 207 92 332q68 126 288 310t296 274q75 90 75 203q0 114 -69 186q-70 71 -194 71t-229 -52t-235 -157v189q70 49 118 78q47 28 147 62t200 34q195 0 319 -111t124 -297q0 -80 -22 -146t-80 -134q-58 -70 -115 -123q-56 -53 -206 -179t-218 -206
q-68 -78 -91 -174h756v-160z" />
    <glyph glyph-name="three" unicode="3" horiz-adv-x="1183" 
d="M522 125q164 0 259 76t95 224t-104 221q-106 73 -362 73h-31v149q465 29 465 289q0 75 -37 126q-70 95 -232 93q-111 0 -209 -40t-229 -124v177q76 43 120 65t138 50q94 26 189 26q214 0 324 -108t110 -255q0 -227 -268 -350q307 -86 307 -389q0 -203 -137 -330
q-136 -126 -362 -126t-431 96v176q74 -40 117 -60t120 -40t158 -19z" />
    <glyph glyph-name="four" unicode="4" horiz-adv-x="1183" 
d="M725 516v797l-506 -797h506zM1092 365h-199v-365h-168v365h-692v141l633 995h227v-985h199v-151z" />
    <glyph glyph-name="five" unicode="5" horiz-adv-x="1183" 
d="M593 813q-132 0 -296 -123h-141l51 811h792v-160h-645l-30 -464q143 90 297 90q209 -1 333 -139t123 -353q0 -215 -138 -359t-409 -145q-200 1 -397 99v178q217 -123 390 -123t274 93q100 93 100 259t-86 251t-218 85z" />
    <glyph glyph-name="six" unicode="6" horiz-adv-x="1183" 
d="M616 125q147 0 232 103q84 102 84 250t-79 232t-194 85q-179 -1 -378 -230q0 -190 94 -315t241 -125zM668 948q184 0 311 -122t127 -341t-131 -366t-363 -147t-372 169q-140 170 -140 465t163 546q129 199 304 378h226q-227 -217 -343 -397t-161 -371q195 186 379 186z
" />
    <glyph glyph-name="seven" unicode="7" horiz-adv-x="1183" 
d="M100 1341v160h961v-135q-255 -471 -361 -725t-215 -641h-188q61 215 105 347q44 133 167 403t308 591h-777z" />
    <glyph glyph-name="eight" unicode="8" horiz-adv-x="1183" 
d="M240 385q0 -117 100 -189t253 -73q153 0 252 75t99 195t-113 201q-86 62 -239 131q-352 -139 -352 -340zM887 1145q0 104 -84 169q-84 64 -210 64t-211 -63t-85 -170q-1 -79 59 -137t236 -140q295 117 295 277zM588 -29q-223 0 -372 112q-148 112 -148 304q0 260 342 410
q-47 25 -74 39t-73 48q-138 102 -138 268t136 272t335 106t331 -106t132 -275q0 -213 -285 -352q134 -67 239 -157q105 -89 103 -253q0 -197 -152 -307t-376 -109z" />
    <glyph glyph-name="nine" unicode="9" horiz-adv-x="1183" 
d="M571 1376q-151 0 -235 -96t-84 -228t69 -223q69 -92 193 -92q124 -1 212 55q89 56 179 158q0 92 -28 174q-27 84 -61 132t-97 84t-148 36zM526 584q-198 0 -323 125t-125 339t140 348t356 134t362 -159t147 -435q-1 -127 -35 -251t-77 -212q-93 -190 -398 -502h-223
q246 248 374 426t169 357q-169 -170 -367 -170z" />
    <glyph glyph-name="colon" unicode=":" horiz-adv-x="497" 
d="M139 809v256h221v-256h-221zM139 0v256h221v-256h-221z" />
    <glyph glyph-name="semicolon" unicode=";" horiz-adv-x="497" 
d="M139 809v256h221v-256h-221zM139 0v256h221v-242l-153 -305h-103l127 291h-92z" />
    <glyph glyph-name="less" unicode="&#x3c;" horiz-adv-x="1366" 
d="M133 813l1100 463v-156l-901 -370l901 -369v-156l-1100 463v125z" />
    <glyph glyph-name="equal" unicode="=" horiz-adv-x="1366" 
d="M133 592h1100v-143h-1100v143zM133 1053h1100v-144h-1100v144z" />
    <glyph glyph-name="greater" unicode="&#x3e;" horiz-adv-x="1366" 
d="M1233 688l-1100 -463v156l899 369l-899 370v156l1100 -463v-125z" />
    <glyph glyph-name="question" unicode="?" horiz-adv-x="829" 
d="M281 0v248h208v-248h-208zM457 567v-102h-152v96q0 127 30 198q31 71 105 151t99 110q75 88 75 194q0 66 -50 114t-140 48q-145 0 -365 -162v187q189 129 359 129t272 -88t102 -240t-126 -284q-127 -132 -168 -197q-41 -64 -41 -154z" />
    <glyph glyph-name="at" unicode="@" horiz-adv-x="1875" 
d="M963 807q-97 0 -177 -117t-79 -309q0 -238 149 -238q121 0 244 205l35 281q-37 92 -75 135t-97 43zM1626 588q0 354 -181 547t-486 193t-500 -230t-195 -580t200 -556t528 -206t581 168v-184q-242 -137 -580 -137q-393 1 -645 245t-252 671t252 699t616 271
q364 0 589 -236q226 -236 227 -635q0 -162 -38 -284q-68 -220 -236 -299q-73 -35 -152 -35q-180 0 -246 178q-80 -96 -141 -137t-148 -41q-145 0 -219 116t-74 275q0 211 116 385t292 174q131 0 227 -145l19 145h176l-82 -581q-33 -225 90 -226q104 0 183 113t79 332z" />
    <glyph glyph-name="A" unicode="A" horiz-adv-x="1277" 
d="M377 553h514l-256 774zM1257 0h-184l-133 403h-612l-133 -403h-175l506 1501h226z" />
    <glyph glyph-name="B" unicode="B" horiz-adv-x="1288" 
d="M362 700v-546h293q103 0 179 26t112 69q64 76 66 167q0 129 -111 207t-301 77h-238zM362 1348v-498h226q194 0 284 83t91 185q0 229 -338 230h-263zM659 0h-471v1501h414q541 0 541 -360q0 -141 -77 -231t-189 -128q129 -33 222 -124t93 -240t-102 -273
q-55 -65 -166 -105t-265 -40z" />
    <glyph glyph-name="C" unicode="C" horiz-adv-x="1253" 
d="M735 1376q-229 0 -344 -182t-115 -465t134 -459q49 -63 133 -104q83 -41 201 -41t212 44t215 142v-196q-73 -47 -109 -69t-129 -48t-227 -27t-258 63t-200 173q-152 218 -152 532t153 545q75 114 201 180t287 66q217 0 414 -141v-203q-59 55 -101 88q-42 34 -130 68
t-185 34z" />
    <glyph glyph-name="D" unicode="D" horiz-adv-x="1370" 
d="M362 1348v-1194h228q129 0 225 45t149 107q52 62 83 150t44 205q13 116 -4 223q-18 107 -52 189t-87 140q-53 59 -142 97t-204 38h-240zM188 1501h428q314 0 486 -202q172 -203 172 -555t-172 -548t-496 -196h-418v1501z" />
    <glyph glyph-name="E" unicode="E" horiz-adv-x="1128" 
d="M1079 0h-891v1501h844v-153h-670v-500h582v-150h-582v-544h717v-154z" />
    <glyph glyph-name="F" unicode="F" horiz-adv-x="1050" 
d="M1022 1348h-660v-500h592v-154h-592v-694h-174v1501h834v-153z" />
    <glyph glyph-name="G" unicode="G" horiz-adv-x="1339" 
d="M748 1376q-128 0 -224 -58t-147 -152q-101 -187 -101 -385q0 -197 43 -333t151 -230q108 -93 257 -93t295 61v396h-352v153h526v-649q-229 -115 -433 -115q-521 0 -637 502q-30 125 -30 271t37 281q86 316 314 436q130 69 301 69q96 0 182 -25t131 -50t104 -66v-205
q-159 145 -276 175q-66 17 -141 17z" />
    <glyph glyph-name="H" unicode="H" horiz-adv-x="1454" 
d="M1266 0h-174v719h-730v-719h-174v1501h174v-629h730v629h174v-1501z" />
    <glyph glyph-name="I" unicode="I" horiz-adv-x="559" 
d="M367 0h-174v1501h174v-1501z" />
    <glyph glyph-name="J" unicode="J" horiz-adv-x="901" 
d="M723 1501v-1032q0 -279 -94 -389q-93 -110 -269 -109q-176 0 -331 95v188q85 -63 153 -96t148 -33q119 0 169 86t50 278v1012h174z" />
    <glyph glyph-name="K" unicode="K" horiz-adv-x="1269" 
d="M362 0h-174v1501h174v-741l629 741h211l-491 -573l549 -928h-201l-463 795l-234 -273v-522z" />
    <glyph glyph-name="L" unicode="L" horiz-adv-x="1048" 
d="M1018 0h-830v1501h174v-1341h656v-160z" />
    <glyph glyph-name="M" unicode="M" horiz-adv-x="1697" 
d="M1509 0h-166v1284l-442 -1284h-108l-439 1280v-1280h-166v1501h256l406 -1182l403 1182h256v-1501z" />
    <glyph glyph-name="N" unicode="N" horiz-adv-x="1460" 
d="M1272 0h-205l-713 1303v-1303h-166v1501h242l676 -1237v1237h166v-1501z" />
    <glyph glyph-name="O" unicode="O" horiz-adv-x="1425" 
d="M696 1376q-126 0 -228 -96q-189 -177 -192 -535q0 -268 120 -444t319 -176q199 1 317 181t117 430q0 250 -102 438q-112 202 -351 202zM1329 782q0 -333 -148 -564q-73 -112 -195 -180t-294 -67q-172 0 -315 111t-212 285t-69 383t69 383q69 173 211 285t337 112
t338 -113t211 -285t67 -350z" />
    <glyph glyph-name="P" unicode="P" horiz-adv-x="1222" 
d="M362 1348v-549h244q367 0 367 286q0 262 -346 263h-265zM188 1501h457q238 0 373 -101t135 -291t-110 -318q-125 -146 -425 -146h-256v-645h-174v1501z" />
    <glyph glyph-name="Q" unicode="Q" horiz-adv-x="1425" 
d="M696 1376q-126 0 -228 -96q-189 -177 -192 -535q0 -268 120 -444t319 -176q199 1 317 181t117 430q0 250 -102 438q-112 202 -351 202zM1102 -289q-86 -1 -166 19t-128 45t-92 69t-62 68q-17 25 -44 68q-233 40 -373 254t-141 516q0 206 68 380t211 287t338 113
q149 0 269 -66q224 -124 308 -424q39 -136 39 -302t-52 -327t-172 -282t-290 -149q29 -33 53 -55q24 -23 95 -47q70 -24 159 -23q8 0 131 8v-144q-65 -8 -151 -8z" />
    <glyph glyph-name="R" unicode="R" horiz-adv-x="1306" 
d="M362 1348v-539h220q166 0 264 77t98 197q0 121 -77 193t-253 72h-252zM362 659v-659h-174v1501h412q524 0 524 -401q0 -190 -106 -282q-53 -46 -98 -70t-113 -52l407 -696h-196l-381 659h-275z" />
    <glyph glyph-name="S" unicode="S" horiz-adv-x="1204" 
d="M594 125q96 0 164 27q68 28 100 70q58 79 59 166t-72 161q-73 73 -295 159t-314 182q-90 96 -90 259q0 165 125 273q126 108 338 108t401 -125v-199q-190 170 -400 170q-145 0 -221 -66t-76 -161t73 -155q74 -60 282 -146t312 -179t105 -268q0 -213 -136 -321
q-135 -108 -359 -108t-447 139v198q68 -53 113 -83t143 -66q99 -36 195 -35z" />
    <glyph glyph-name="T" unicode="T" horiz-adv-x="1116" 
d="M1079 1348h-434v-1348h-174v1348h-434v153h1042v-153z" />
    <glyph glyph-name="U" unicode="U" horiz-adv-x="1409" 
d="M1245 1501v-964q0 -264 -141 -415q-142 -151 -402 -151t-399 151t-139 415v964h174v-948q0 -428 367 -428t366 426v950h174z" />
    <glyph glyph-name="V" unicode="V" horiz-adv-x="1185" 
d="M1165 1501l-491 -1501h-164l-490 1501h183l393 -1235l389 1235h180z" />
    <glyph glyph-name="W" unicode="W" horiz-adv-x="1744" 
d="M1712 1501l-391 -1501h-145l-302 1190l-311 -1190h-141l-389 1501h176l287 -1145l297 1145h163l291 -1145l295 1145h170z" />
    <glyph glyph-name="X" unicode="X" horiz-adv-x="1189" 
d="M1169 0h-200l-373 633l-379 -633h-197l476 786l-430 715h200l330 -559l332 559h196l-430 -710z" />
    <glyph glyph-name="Y" unicode="Y" horiz-adv-x="1138" 
d="M659 0h-174v651l-465 850h197l358 -676l353 676h190l-459 -850v-651z" />
    <glyph glyph-name="Z" unicode="Z" horiz-adv-x="1130" 
d="M1051 0h-971v147l774 1201h-713v153h910v-147l-777 -1200h777v-154z" />
    <glyph glyph-name="bracketleft" unicode="[" horiz-adv-x="768" 
d="M719 -397h-526v1898h526v-149h-359v-1600h359v-149z" />
    <glyph glyph-name="backslash" unicode="\" horiz-adv-x="937" 
d="M752 0l-721 1501h155l721 -1501h-155z" />
    <glyph glyph-name="bracketright" unicode="]" horiz-adv-x="768" 
d="M49 1501h526v-1898h-526v149h359v1600h-359v149z" />
    <glyph glyph-name="asciicircum" unicode="^" horiz-adv-x="1181" 
d="M592 1348l-328 -637h-151l403 790h150l403 -790h-151z" />
    <glyph glyph-name="underscore" unicode="_" horiz-adv-x="1024" 
d="M-12 -154h1048v-102h-1048v102z" />
    <glyph glyph-name="grave" unicode="`" 
d="M340 1200l-291 359h232l194 -359h-135z" />
    <glyph glyph-name="a" unicode="a" horiz-adv-x="1003" 
d="M400 115q74 0 128 20t84 44q31 24 84 71v321q-37 -18 -139 -59l-145 -57q-106 -43 -140 -87t-34 -106t44 -105q44 -42 118 -42zM856 0h-131l-29 115q-140 -137 -298 -137t-243 75q-85 76 -85 208t73 206q74 74 289 143l162 54q70 22 86 38t16 86t-47 116t-164 46
q-176 0 -360 -137v168q181 106 367 106q186 1 275 -79t89 -306v-702z" />
    <glyph glyph-name="b" unicode="b" horiz-adv-x="1124" 
d="M600 115q145 0 216 122t71 300t-72 296t-211 117q-84 0 -146 -38t-134 -109v-545q131 -143 276 -143zM164 0v1501h160v-543q135 129 301 129q113 0 199 -51t135 -136q96 -170 96 -384t-112 -377q-112 -162 -325 -162q-74 0 -134 24q-60 23 -90 47t-70 67l-29 -115h-131z
" />
    <glyph glyph-name="c" unicode="c" horiz-adv-x="927" 
d="M238 528q0 -98 26 -186t103 -158q76 -70 178 -70t167 30t167 108v-172q-155 -102 -307 -102q-284 -1 -401 190q-103 170 -101 362q0 234 124 396t357 161q161 0 313 -104v-174q-53 45 -85 68t-95 49t-131 24q-143 0 -229 -116t-86 -306z" />
    <glyph glyph-name="d" unicode="d" horiz-adv-x="1124" 
d="M528 950q-144 0 -217 -116t-73 -275q0 -160 53 -287q29 -70 89 -114t142 -43q82 -1 142 33t137 106v549q-129 147 -273 147zM961 0h-132l-28 115q-68 -68 -131 -103t-164 -35q-211 0 -324 160t-112 389q0 312 180 472q100 89 259 89t292 -129v543h160v-1501z" />
    <glyph glyph-name="e" unicode="e" horiz-adv-x="1021" 
d="M526 950q-122 0 -196 -95q-76 -95 -88 -210h544q-12 121 -75 213t-185 92zM70 530q0 254 125 406t323 152t316 -140q118 -139 122 -436h-718q6 -168 83 -283t244 -114q127 0 231 62q36 22 105 71v-166q-168 -104 -338 -105q-117 0 -208 38q-91 39 -143 95t-97 159
t-45 261z" />
    <glyph glyph-name="f" unicode="f" horiz-adv-x="589" 
d="M367 1186v-121h204v-133h-204v-932h-160v932h-168v133h168v152q0 285 299 284q55 0 108 -8v-147q-80 6 -102 6q-74 0 -110 -38t-35 -128z" />
    <glyph glyph-name="g" unicode="g" horiz-adv-x="1124" 
d="M514 137q92 0 154 36t133 106v530q-39 39 -65 61t-87 51q-61 30 -125 29q-145 0 -216 -125t-70 -286q0 -223 116 -337q68 -66 160 -65zM961 1065v-1030q0 -158 -92 -284q-107 -148 -375 -148q-144 0 -338 88v174q195 -125 351 -125t225 90t69 201v96q-121 -127 -299 -127
q-143 0 -245 84q-187 156 -187 461q0 231 114 387q115 156 318 155q78 -1 144 -27t92 -50q28 -24 63 -60l28 115h132z" />
    <glyph glyph-name="h" unicode="h" horiz-adv-x="1136" 
d="M985 0h-160v707q0 131 -39 182q-38 51 -114 51t-151 -30t-197 -105v-805h-160v1501h160v-561q215 147 385 147q129 0 203 -88t73 -266v-733z" />
    <glyph glyph-name="i" unicode="i" horiz-adv-x="487" 
d="M324 0h-160v1065h160v-1065zM324 1223h-160v194h160v-194z" />
    <glyph glyph-name="j" unicode="j" horiz-adv-x="509" 
d="M346 1065v-1180q0 -156 -71 -219t-199 -63q-51 0 -109 12v149q61 -14 118 -14t79 38t22 112v1165h160zM346 1223h-160v194h160v-194z" />
    <glyph glyph-name="k" unicode="k" horiz-adv-x="1038" 
d="M324 0h-160v1501h160v-948l452 512h203l-350 -381l379 -684h-181l-305 569l-198 -217v-352z" />
    <glyph glyph-name="l" unicode="l" horiz-adv-x="487" 
d="M324 0h-160v1444l160 57v-1501z" />
    <glyph glyph-name="m" unicode="m" horiz-adv-x="1699" 
d="M1548 0h-159v723q1 217 -131 217t-324 -147q2 -43 2 -70v-723h-160v709q0 115 -28 173q-29 58 -105 58q-123 0 -319 -145v-795h-160v1065h160v-135q116 88 192 123t167 35t151 -49q60 -48 75 -121q105 82 193 126t178 43t143 -33q125 -77 125 -319v-735z" />
    <glyph glyph-name="n" unicode="n" horiz-adv-x="1136" 
d="M985 0h-160v707q0 113 -32 173q-33 60 -116 60t-156 -32t-197 -113v-795h-160v1065h160v-135q220 158 368 158q294 -1 293 -355v-733z" />
    <glyph glyph-name="o" unicode="o" horiz-adv-x="1067" 
d="M829 539q0 176 -79 294q-80 117 -224 117t-216 -126q-73 -126 -72 -292q0 -226 119 -347q71 -71 175 -70q150 0 224 124q73 124 73 300zM997 530q0 -246 -130 -400t-337 -153q-208 0 -334 157t-126 402q0 244 128 398t336 154t336 -156t127 -402z" />
    <glyph glyph-name="p" unicode="p" horiz-adv-x="1124" 
d="M887 524q0 182 -73 304t-212 122t-278 -149v-539q44 -43 76 -71q32 -29 88 -53t116 -23q139 -1 211 113t72 296zM324 -397h-160v1462h160v-109q156 131 298 131t244 -85q188 -155 189 -469q0 -314 -187 -471q-100 -85 -241 -85q-174 0 -303 129v-503z" />
    <glyph glyph-name="q" unicode="q" horiz-adv-x="1124" 
d="M522 950q-78 0 -136 -40q-99 -68 -134 -239q-14 -69 -14 -140q0 -151 57 -271q31 -66 89 -106t126 -39t126 25q56 24 88 50t77 72v545q-133 143 -279 143zM961 -397h-160v503q-129 -129 -303 -129q-209 0 -319 166q-109 166 -109 399q0 234 114 390t320 155q76 1 137 -23
t90 -48t70 -66l28 115h132v-1462z" />
    <glyph glyph-name="r" unicode="r" horiz-adv-x="745" 
d="M324 535v-535h-160v1065h160v-201q133 223 329 223q39 0 62 -6v-161q-27 10 -72 10q-121 0 -220 -110t-99 -285z" />
    <glyph glyph-name="s" unicode="s" horiz-adv-x="958" 
d="M98 800q0 109 60 175q105 114 305 112q168 0 334 -104v-174q-55 45 -93 70t-108 49q-68 24 -156 22q-88 0 -138 -40t-50 -83t12 -65q28 -50 241 -134t285 -165q71 -82 70 -182q0 -131 -95 -217t-292 -86t-375 102v172q59 -44 93 -64t114 -47q79 -27 185 -27t161 48
q55 46 55 114t-56 108q-58 40 -225 108t-247 134q-80 65 -80 174z" />
    <glyph glyph-name="t" unicode="t" horiz-adv-x="632" 
d="M207 256v676h-180v133h180v321l160 58v-379h233v-133h-233v-647q0 -102 27 -137q53 -64 214 -9v-147q-61 -14 -137 -15q-164 0 -214 66t-50 213z" />
    <glyph glyph-name="u" unicode="u" horiz-adv-x="1136" 
d="M973 0h-131l-29 115q-201 -137 -377 -138q-137 -1 -211 95t-73 260v733h159v-705q0 -127 40 -181t128 -54q131 0 334 129v811h160v-1065z" />
    <glyph glyph-name="v" unicode="v" horiz-adv-x="901" 
d="M885 1065l-357 -1065h-155l-357 1065h166l271 -823l270 823h162z" />
    <glyph glyph-name="w" unicode="w" horiz-adv-x="1406" 
d="M1380 1065l-331 -1065h-109l-233 782l-240 -782h-109l-331 1065h166l225 -758l231 758h119l225 -758l232 758h155z" />
    <glyph glyph-name="x" unicode="x" horiz-adv-x="954" 
d="M938 0h-186l-275 420l-278 -420h-183l369 549l-346 516h186l252 -385l254 385h182l-346 -512z" />
    <glyph glyph-name="y" unicode="y" horiz-adv-x="997" 
d="M176 -397q-72 0 -145 14v145q67 -22 149 -22t132 45t83 135l33 90l-393 1055h166l307 -844l307 844h162l-449 -1221q-38 -102 -102 -158t-121 -70t-129 -13z" />
    <glyph glyph-name="z" unicode="z" horiz-adv-x="917" 
d="M866 0h-817v129l613 795h-582v141h776v-131l-610 -793h620v-141z" />
    <glyph glyph-name="braceleft" unicode="{" horiz-adv-x="696" 
d="M432 119v-113q0 -162 40 -208t157 -46v-149q-207 0 -286 96t-79 264v150q0 283 -91 344q-40 27 -116 35v149q74 8 115 34q94 60 92 345v149q0 101 30 175t66 108t96 54t92 22t81 2v-150q-117 0 -157 -45t-40 -207v-114q0 -275 -85 -364q-38 -40 -116 -83q80 -45 118 -85
q83 -87 83 -363z" />
    <glyph glyph-name="bar" unicode="|" horiz-adv-x="1062" 
d="M604 -512h-143v2048h143v-2048z" />
    <glyph glyph-name="braceright" unicode="}" horiz-adv-x="696" 
d="M264 1014v112q0 162 -40 208t-156 46v150q208 0 286 -96t78 -265v-149q0 -283 91 -344q40 -27 116 -35v-149q-74 -8 -115 -34q-92 -58 -92 -345v-150q0 -102 -30 -175q-30 -74 -66 -108t-95 -54q-61 -20 -93 -21q-32 -2 -80 -2v149q116 0 156 45t40 207v115q0 271 85 363
q38 40 116 83q-80 45 -118 85q-83 87 -83 364z" />
    <glyph glyph-name="asciitilde" unicode="~" horiz-adv-x="1366" 
d="M438 901q94 -1 261 -79t237 -79q125 0 297 144v-160q-170 -127 -293 -127q-66 0 -126 20t-188 78q-128 59 -192 60q-125 -1 -301 -144v160q158 127 305 127z" />
    <glyph glyph-name="exclamdown" unicode="&#xa1;" horiz-adv-x="483" 
d="M346 1087v-247h-209v247h209zM172 668h139l35 -1037h-209z" />
    <glyph glyph-name="cent" unicode="&#xa2;" horiz-adv-x="829" 
d="M219 508q0 -182 72 -289l225 645q-123 18 -210 -78t-87 -278zM483 -23q-72 0 -139 23l-143 -412h-129l164 469q-184 137 -185 432q0 231 119 373t311 142q33 0 82 -7l174 504h131l-188 -543q51 -29 96 -65v-178q-84 77 -143 112l-240 -690q120 -54 246 15q68 37 152 110
v-176q-137 -109 -308 -109z" />
    <glyph glyph-name="sterling" unicode="&#xa3;" horiz-adv-x="1183" 
d="M393 513q0 91 -16 157h-236v149h195q-78 246 -78 352q0 167 117 263t298 96t337 -94v-179q-160 119 -310 119t-210 -63q-58 -63 -58 -147t84 -347h301v-149h-266q16 -115 16 -166q0 -188 -182 -334q61 25 129 25t203 -30t172 -30q78 0 207 68v-168q-102 -63 -195 -64
q-43 0 -195 32q-152 31 -256 31q-106 0 -251 -63v168q121 125 157 204q37 79 37 170z" />
    <glyph glyph-name="currency" unicode="&#xa4;" horiz-adv-x="1183" 
d="M721 125q104 0 188 42t185 134v-195q-162 -135 -381 -135q-135 1 -241 53q-185 91 -276 326q-38 96 -57 207h-135l27 131h94q-2 59 2 125h-121l27 131h108q43 268 195 427t364 159t373 -135v-201q-45 49 -80 80q-35 30 -113 66t-163 36q-145 0 -256 -108t-142 -324h693
l-27 -131h-680q-2 -78 0 -125h656l-27 -131h-612q52 -305 220 -393q75 -40 179 -39z" />
    <glyph glyph-name="yen" unicode="&#xa5;" horiz-adv-x="1138" 
d="M1077 815v-133h-401l-17 -31v-164h418v-133h-418v-354h-174v354h-424v133h424v164l-16 31h-408v133h334l-375 686h197l358 -676l353 676h190l-370 -686h329z" />
    <glyph glyph-name="brokenbar" unicode="&#xa6;" horiz-adv-x="1062" 
d="M604 666h-143v856h143v-856zM604 -358h-143v716h143v-716z" />
    <glyph glyph-name="section" unicode="&#xa7;" horiz-adv-x="1019" 
d="M453 850q-207 -138 -207 -242t122 -194q95 -71 203 -131q78 55 111 82q32 27 62 71t30 92q0 47 -22 87q-45 79 -299 235zM492 -244q102 0 157 44t55 112t-52 112q-52 46 -166 112t-159 96q-46 30 -115 88q-134 114 -134 270q0 188 244 344q-180 135 -180 274
q0 138 116 230q117 92 291 92t344 -131v-201q-51 51 -89 83t-112 64q-74 31 -164 31t-148 -47t-58 -111t49 -108q49 -46 217 -146t261 -197t93 -213t-57 -194t-185 -161q184 -133 184 -280t-118 -231q-119 -84 -277 -85q-77 1 -149 23t-110 44t-97 64v200q113 -100 185 -139
t174 -39z" />
    <glyph glyph-name="dieresis" unicode="&#xa8;" 
d="M610 1223h-159v194h159v-194zM231 1223h-159v194h159v-194z" />
    <glyph glyph-name="copyright" unicode="&#xa9;" horiz-adv-x="1675" 
d="M838 1530q307 0 524 -217t217 -525t-217 -524q-217 -217 -524 -217t-525 217q-217 217 -217 524t217 525q218 217 525 217zM838 1395q-252 0 -429 -178q-177 -179 -177 -431t178 -429t428 -177t428 178t178 428t-177 430t-429 179zM623 784q0 -138 64 -219
q65 -80 157 -80q92 1 142 25q51 24 62 32q12 8 36 22q24 15 30 20v-148q-122 -78 -244 -78t-200 43q-128 71 -177 248q-19 70 -20 137q0 176 99 306t280 129q123 0 252 -78v-150q-141 101 -248 101t-170 -86t-63 -224z" />
    <glyph glyph-name="ordfeminine" unicode="&#xaa;" horiz-adv-x="653" 
d="M168 1026q0 -80 98 -80q76 0 174 74v164l-143 -47q-77 -25 -103 -50t-26 -61zM35 1023q0 81 50 128t157 80l164 51q26 8 30 12t4 23q0 102 -123 102q-90 0 -157 -40q-10 -5 -48 -29t-40 -25v135q129 70 257 70t183 -62t55 -184v-436h-104l-14 63q-77 -75 -187 -75
t-169 53q-58 53 -58 134z" />
    <glyph glyph-name="guillemotleft" unicode="&#xab;" horiz-adv-x="1132" 
d="M893 61l-393 471l393 472h197l-394 -472l394 -471h-197zM436 61l-393 471l393 472h197l-393 -472l393 -471h-197z" />
    <glyph glyph-name="logicalnot" unicode="&#xac;" horiz-adv-x="1366" 
d="M133 1053h1100v-604h-143v460h-957v144z" />
    <glyph glyph-name="registered" unicode="&#xae;" horiz-adv-x="888" 
d="M443 838q125 0 217 89t92 217t-90 217t-218 89t-217 -89q-90 -89 -90 -217t90 -217t216 -89zM444 758q-160 0 -272 112t-113 273q0 161 113 273q112 112 272 112t273 -113t113 -273t-113 -272t-273 -112zM373 1292v-114h53q98 0 98 61q0 53 -90 53h-61zM373 1108v-182
h-80v436h149q168 0 168 -119q0 -37 -17 -63t-33 -35q-16 -10 -46 -21l115 -198h-88l-105 182h-63z" />
    <glyph glyph-name="macron" unicode="&#xaf;" 
d="M645 1317h-608v137h608v-137z" />
    <glyph glyph-name="degree" unicode="&#xb0;" horiz-adv-x="802" 
d="M402 1411q-70 -1 -116 -49t-46 -114t47 -112q47 -48 115 -48t115 46q46 48 46 116t-46 114q-46 47 -115 47zM121 1251q0 117 83 198q82 81 198 81t198 -82t82 -198t-83 -198t-198 -83q-115 1 -197 83t-83 199z" />
    <glyph glyph-name="plusminus" unicode="&#xb1;" horiz-adv-x="1366" 
d="M133 991h477v477h144v-477h479v-143h-479v-479h-144v479h-477v143zM133 182h1100v-143h-1100v143z" />
    <glyph glyph-name="twosuperior" unicode="&#xb2;" horiz-adv-x="735" 
d="M379 1530q127 0 200 -60t72 -157q0 -63 -39 -123q-40 -60 -170 -151q-130 -90 -163 -117t-56 -70h443v-113h-598q21 174 127 266q45 39 151 111t139 113t33 85t-35 75t-104 30q-115 0 -285 -129v142q158 98 285 98z" />
    <glyph glyph-name="threesuperior" unicode="&#xb3;" horiz-adv-x="735" 
d="M522 964q0 62 -45 97t-121 35h-131v108h72q90 0 148 38q59 38 59 79t-34 70t-104 29t-127 -22q-58 -22 -153 -79v133q150 78 281 78t199 -58t67 -141q-1 -45 -21 -82t-38 -51t-52 -35q133 -70 133 -184t-86 -184t-226 -70t-263 53v125q136 -67 232 -67t153 32
q57 34 57 96z" />
    <glyph glyph-name="acute" unicode="&#xb4;" 
d="M342 1200h-135l194 359h232z" />
    <glyph glyph-name="paragraph" unicode="&#xb6;" horiz-adv-x="1196" 
d="M459 -397v1054q-176 0 -303 110q-127 111 -127 309t132 312t347 113h657v-133h-192v-1765h-160v1765h-195v-1765h-159z" />
    <glyph glyph-name="periodcentered" unicode="&#xb7;" horiz-adv-x="497" 
d="M139 623v256h221v-256h-221z" />
    <glyph glyph-name="cedilla" unicode="&#xb8;" 
d="M530 -227q0 -180 -251 -181q-129 0 -244 46l53 102q96 -29 206 -29t109 72q0 51 -50 67t-150 19l92 164h113l-50 -94q80 -9 126 -57t46 -109z" />
    <glyph glyph-name="onesuperior" unicode="&#xb9;" horiz-adv-x="735" 
d="M182 739v109h144v524q-63 -29 -174 -53v108q94 23 202 89h101v-668h127v-109h-400z" />
    <glyph glyph-name="ordmasculine" unicode="&#xba;" horiz-adv-x="690" 
d="M343 1419q-81 0 -129 -61t-48 -177t50 -175q50 -60 130 -60t130 62t50 176q0 115 -51 175t-132 60zM341 836q-142 0 -225 102t-83 252t89 245t225 95t224 -97t88 -251t-88 -250t-230 -96z" />
    <glyph glyph-name="guillemotright" unicode="&#xbb;" horiz-adv-x="1132" 
d="M240 61h-197l393 471l-393 472h197l393 -472zM696 61h-196l393 471l-393 472h196l394 -472z" />
    <glyph glyph-name="onequarter" unicode="&#xbc;" horiz-adv-x="1728" 
d="M520 -29h-127l842 1559h125zM182 739v109h144v524q-63 -29 -174 -53v108q94 23 202 89h101v-668h127v-109h-400zM1415 293v336l-246 -336h246zM1540 180v-180h-125v180h-393v94l364 502h154v-483h131v-113h-131z" />
    <glyph glyph-name="onehalf" unicode="&#xbd;" horiz-adv-x="1728" 
d="M1647 575q0 -61 -39 -121t-170 -150t-164 -119q-33 -28 -55 -72h442v-113h-600q19 143 73 208q54 64 217 174t162 191q0 45 -34 76q-35 31 -107 31q-115 0 -285 -129v141q150 98 282 98t205 -60t73 -155zM508 -29h-127l842 1559h125zM182 739v109h144v524
q-63 -29 -174 -53v108q94 23 202 89h101v-668h127v-109h-400z" />
    <glyph glyph-name="threequarters" unicode="&#xbe;" horiz-adv-x="1728" 
d="M1415 293v336l-246 -336h246zM1540 180v-180h-125v180h-393v94l364 502h154v-483h131v-113h-131zM522 964q0 62 -45 97t-121 35h-131v108h72q99 0 153 39t54 78t-35 69t-103 30t-127 -22q-58 -22 -153 -79v133q150 78 281 78t199 -58t67 -141q-1 -45 -21 -82t-38 -51
t-52 -35q133 -70 133 -194q-1 -96 -79 -170t-226 -74t-270 53v125q136 -67 232 -67t153 32q57 34 57 96zM532 -29h-126l841 1559h125z" />
    <glyph glyph-name="questiondown" unicode="&#xbf;" horiz-adv-x="829" 
d="M549 1087v-247h-209v247h209zM373 565v103h151v-97q0 -127 -30 -197t-104 -152q-76 -82 -100 -110t-50 -78t-25 -116q0 -66 50 -114t141 -48q145 0 364 162v-186q-188 -129 -358 -129t-273 88q-102 87 -102 239t127 285t168 197t41 153z" />
    <glyph glyph-name="Agrave" unicode="&#xc0;" horiz-adv-x="1277" 
d="M639 1636l-291 359h232l194 -359h-135zM377 553h514l-256 774zM1257 0h-184l-133 403h-612l-133 -403h-175l506 1501h226z" />
    <glyph glyph-name="Aacute" unicode="&#xc1;" horiz-adv-x="1277" 
d="M641 1636h-135l194 359h232zM377 553h514l-256 774zM1257 0h-184l-133 403h-612l-133 -403h-175l506 1501h226z" />
    <glyph glyph-name="Acircumflex" unicode="&#xc2;" horiz-adv-x="1277" 
d="M580 1985h120l277 -349h-139l-197 181l-211 -181h-127zM377 553h514l-256 774zM1257 0h-184l-133 403h-612l-133 -403h-175l506 1501h226z" />
    <glyph glyph-name="Atilde" unicode="&#xc3;" horiz-adv-x="1277" 
d="M772 1673q-58 0 -132 48q-73 47 -93 59t-45 12q-48 0 -83 -48q-13 -17 -36 -56l-84 55q49 92 96 142t109 50t122 -40q17 -11 66 -45q82 -57 138 -14q26 20 36 34t31 49l84 -55q-55 -102 -103 -146t-106 -45zM377 553h514l-256 774zM1257 0h-184l-133 403h-612l-133 -403
h-175l506 1501h226z" />
    <glyph glyph-name="Adieresis" unicode="&#xc4;" horiz-adv-x="1277" 
d="M934 1636h-199v199h199v-199zM543 1636h-199v199h199v-199zM377 553h514l-256 774zM1257 0h-184l-133 403h-612l-133 -403h-175l506 1501h226z" />
    <glyph glyph-name="Aring" unicode="&#xc5;" horiz-adv-x="1277" 
d="M377 553h514l-256 774zM1257 0h-184l-133 403h-612l-133 -403h-175l506 1501h226zM639 1679q47 0 81 34t34 81t-35 81t-82 34t-81 -33t-34 -80t35 -82t82 -35zM638 1579q-89 0 -153 63q-63 64 -63 152t63 152t153 63q90 0 154 -62q62 -63 62 -153t-63 -153
q-64 -62 -153 -62z" />
    <glyph glyph-name="AE" unicode="&#xc6;" horiz-adv-x="1751" 
d="M848 608v740h-39l-330 -740h369zM1655 1501v-153h-633v-500h545v-150h-545v-544h680v-154h-854v459h-438l-203 -459h-187l685 1501h950z" />
    <glyph glyph-name="Ccedilla" unicode="&#xc7;" horiz-adv-x="1253" 
d="M913 -236q-1 -78 -67 -124q-66 -48 -190 -48t-238 46l53 102q106 -33 191 -33q123 0 122 76q0 47 -50 65t-148 21l61 106q-137 16 -241 84t-162 152q-56 84 -102 224t-46 284q0 418 216 643q73 76 183 122t242 46q217 0 414 -141v-203q-59 55 -101 88q-42 34 -130 68
t-200 34t-205 -57t-143 -153q-96 -183 -96 -412q0 -167 38 -287q38 -119 86 -185t134 -112q86 -45 200 -45q112 0 208 40t229 146v-196q-98 -70 -188 -104t-225 -40l-17 -32q76 -5 124 -51t48 -124z" />
    <glyph glyph-name="Egrave" unicode="&#xc8;" horiz-adv-x="1128" 
d="M625 1636l-291 359h231l195 -359h-135zM1079 0h-891v1501h844v-153h-670v-500h582v-150h-582v-544h717v-154z" />
    <glyph glyph-name="Eacute" unicode="&#xc9;" horiz-adv-x="1128" 
d="M565 1636h-135l195 359h231zM1079 0h-891v1501h844v-153h-670v-500h582v-150h-582v-544h717v-154z" />
    <glyph glyph-name="Ecircumflex" unicode="&#xca;" horiz-adv-x="1128" 
d="M565 1985h121l277 -349h-140l-196 181l-211 -181h-127zM1079 0h-891v1501h844v-153h-670v-500h582v-150h-582v-544h717v-154z" />
    <glyph glyph-name="Edieresis" unicode="&#xcb;" horiz-adv-x="1128" 
d="M1079 0h-891v1501h844v-153h-670v-500h582v-150h-582v-544h717v-154zM909 1636h-198v199h198v-199zM518 1636h-201v199h201v-199z" />
    <glyph glyph-name="Igrave" unicode="&#xcc;" horiz-adv-x="559" 
d="M279 1636l-291 359h231l195 -359h-135zM367 0h-174v1501h174v-1501z" />
    <glyph glyph-name="Iacute" unicode="&#xcd;" horiz-adv-x="559" 
d="M281 1636h-136l195 359h231zM367 0h-174v1501h174v-1501z" />
    <glyph glyph-name="Icircumflex" unicode="&#xce;" horiz-adv-x="559" 
d="M219 1985h121l276 -349h-139l-196 181l-211 -181h-127zM367 0h-174v1501h174v-1501z" />
    <glyph glyph-name="Idieresis" unicode="&#xcf;" horiz-adv-x="559" 
d="M573 1636h-198v199h198v-199zM182 1636h-198v199h198v-199zM367 0h-174v1501h174v-1501z" />
    <glyph glyph-name="Eth" unicode="&#xd0;" horiz-adv-x="1370" 
d="M362 1348v-527h328v-141h-328v-526h228q319 0 438 257q64 136 65 328q2 313 -145 474q-53 59 -142 97t-204 38h-240zM188 821v680h428q314 0 486 -202q172 -201 172 -547t-167 -549t-501 -203h-418v680h-127v141h127z" />
    <glyph glyph-name="Ntilde" unicode="&#xd1;" horiz-adv-x="1460" 
d="M862 1673q-58 0 -132 48q-73 47 -93 59t-51 12t-56 -24t-57 -80l-84 55q49 92 96 142t111 50t120 -40q17 -11 66 -45t81 -34t58 20t36 34t30 49l84 -55q-55 -102 -103 -146t-106 -45zM1272 0h-205l-713 1303v-1303h-166v1501h242l676 -1237v1237h166v-1501z" />
    <glyph glyph-name="Ograve" unicode="&#xd2;" horiz-adv-x="1425" 
d="M713 1636l-291 359h231l195 -359h-135zM696 1376q-126 0 -228 -96q-189 -177 -192 -535q0 -268 120 -444t319 -176q199 1 317 181t117 430q0 250 -102 438q-112 202 -351 202zM1329 782q0 -333 -148 -564q-73 -112 -195 -180t-294 -67q-172 0 -315 111t-212 285t-69 383
t69 383q69 173 211 285t337 112t338 -113t211 -285t67 -350z" />
    <glyph glyph-name="Oacute" unicode="&#xd3;" horiz-adv-x="1425" 
d="M715 1636h-135l194 359h232zM696 1376q-126 0 -228 -96q-189 -177 -192 -535q0 -268 120 -444t319 -176q199 1 317 181t117 430q0 250 -102 438q-112 202 -351 202zM1329 782q0 -333 -148 -564q-73 -112 -195 -180t-294 -67q-172 0 -315 111t-212 285t-69 383t69 383
q69 173 211 285t337 112t338 -113t211 -285t67 -350z" />
    <glyph glyph-name="Ocircumflex" unicode="&#xd4;" horiz-adv-x="1425" 
d="M653 1985h121l277 -349h-140l-196 181l-211 -181h-127zM696 1376q-126 0 -228 -96q-189 -177 -192 -535q0 -268 120 -444t319 -176q199 1 317 181t117 430q0 250 -102 438q-112 202 -351 202zM1329 782q0 -333 -148 -564q-73 -112 -195 -180t-294 -67q-172 0 -315 111
t-212 285t-69 383t69 383q69 173 211 285t337 112t338 -113t211 -285t67 -350z" />
    <glyph glyph-name="Otilde" unicode="&#xd5;" horiz-adv-x="1425" 
d="M845 1673q-58 0 -131 48q-73 47 -93 59t-45 12t-48 -15q-24 -15 -36 -33t-35 -56l-84 55q49 92 96 142t110 50t120 -40q17 -11 67 -45q82 -57 138 -14q26 20 36 34t31 49l84 -55q-55 -102 -103 -146t-107 -45zM696 1376q-126 0 -228 -96q-189 -177 -192 -535
q0 -268 120 -444t319 -176q199 1 317 181t117 430q0 250 -102 438q-112 202 -351 202zM1329 782q0 -333 -148 -564q-73 -112 -195 -180t-294 -67q-172 0 -315 111t-212 285t-69 383t69 383q69 173 211 285t337 112t338 -113t211 -285t67 -350z" />
    <glyph glyph-name="Odieresis" unicode="&#xd6;" horiz-adv-x="1425" 
d="M1008 1636h-199v199h199v-199zM616 1636h-198v199h198v-199zM696 1376q-126 0 -228 -96q-189 -177 -192 -535q0 -268 120 -444t319 -176q199 1 317 181t117 430q0 250 -102 438q-112 202 -351 202zM1329 782q0 -333 -148 -564q-73 -112 -195 -180t-294 -67
q-172 0 -315 111t-212 285t-69 383t69 383q69 173 211 285t337 112t338 -113t211 -285t67 -350z" />
    <glyph glyph-name="multiply" unicode="&#xd7;" horiz-adv-x="1366" 
d="M174 344l408 406l-408 407l102 100l406 -405l408 405l100 -100l-406 -407l406 -406l-100 -102l-408 407l-406 -407z" />
    <glyph glyph-name="Oslash" unicode="&#xd8;" horiz-adv-x="1425" 
d="M713 1376q-111 0 -197 -55t-137 -147q-103 -186 -103 -414q0 -229 74 -381l654 854q-111 143 -291 143zM726 125q188 0 306 180q118 181 117 419q0 238 -74 394l-653 -852q116 -141 304 -141zM713 1530q238 0 395 -160l123 160l98 -78l-141 -182q141 -213 141 -514
t-147 -535q-72 -113 -194 -181t-275 -69q-234 0 -394 160l-122 -160l-101 76l142 184q-141 221 -142 519q0 209 69 383q69 173 211 285t337 112z" />
    <glyph glyph-name="Ugrave" unicode="&#xd9;" horiz-adv-x="1409" 
d="M705 1636l-291 359h231l195 -359h-135zM1245 1501v-964q0 -264 -141 -415q-142 -151 -402 -151t-399 151t-139 415v964h174v-948q0 -428 367 -428t366 426v950h174z" />
    <glyph glyph-name="Uacute" unicode="&#xda;" horiz-adv-x="1409" 
d="M707 1636h-136l195 359h231zM1245 1501v-964q0 -264 -141 -415q-142 -151 -402 -151t-399 151t-139 415v964h174v-948q0 -428 367 -428t366 426v950h174z" />
    <glyph glyph-name="Ucircumflex" unicode="&#xdb;" horiz-adv-x="1409" 
d="M645 1985h121l276 -349h-139l-196 181l-211 -181h-127zM1245 1501v-964q0 -264 -141 -415q-142 -151 -402 -151t-399 151t-139 415v964h174v-948q0 -428 367 -428t366 426v950h174z" />
    <glyph glyph-name="Udieresis" unicode="&#xdc;" horiz-adv-x="1409" 
d="M1245 1501v-964q0 -264 -141 -415q-142 -151 -402 -151t-399 151t-139 415v964h174v-948q0 -428 367 -428t366 426v950h174zM999 1636h-198v199h198v-199zM608 1636h-198v199h198v-199z" />
    <glyph glyph-name="Yacute" unicode="&#xdd;" horiz-adv-x="1138" 
d="M571 1636h-135l195 359h231zM659 0h-174v651l-465 850h197l358 -676l353 676h190l-459 -850v-651z" />
    <glyph glyph-name="Thorn" unicode="&#xde;" horiz-adv-x="1222" 
d="M362 1026v-551h275q158 0 247 72t89 206q0 273 -334 273h-277zM188 1501h174v-323h283q156 0 253 -38q96 -38 144 -82t79 -118q32 -74 32 -172q0 -219 -142 -332t-366 -112h-283v-324h-174v1501z" />
    <glyph glyph-name="germandbls" unicode="&#xdf;" horiz-adv-x="1099" 
d="M656 115q110 0 158 91q48 92 48 200q0 195 -91 280q-81 79 -286 86v133q135 4 214 50q79 47 79 157t-53 181t-162 71q-240 0 -239 -352v-1012h-160v1022q0 215 101 347t285 132t290 -106q106 -105 106 -247t-68 -212q-44 -46 -108 -86q45 -26 76 -48q184 -134 184 -388
q0 -172 -93 -304t-273 -133q-138 0 -236 74v187q118 -123 228 -123z" />
    <glyph glyph-name="agrave" unicode="&#xe0;" horiz-adv-x="1003" 
d="M502 1200l-291 359h231l195 -359h-135zM400 115q74 0 128 20t84 44q31 24 84 71v321q-37 -18 -139 -59l-145 -57q-106 -43 -140 -87t-34 -106t44 -105q44 -42 118 -42zM856 0h-131l-29 115q-140 -137 -298 -137t-243 75q-85 76 -85 208t73 206q74 74 289 143l162 54
q70 22 86 38t16 86t-47 116t-164 46q-176 0 -360 -137v168q181 106 367 106q186 1 275 -79t89 -306v-702z" />
    <glyph glyph-name="aacute" unicode="&#xe1;" horiz-adv-x="1003" 
d="M504 1200h-135l194 359h232zM400 115q74 0 128 20t84 44q31 24 84 71v321q-37 -18 -139 -59l-145 -57q-106 -43 -140 -87t-34 -106t44 -105q44 -42 118 -42zM856 0h-131l-29 115q-140 -137 -298 -137t-243 75q-85 76 -85 208t73 206q74 74 289 143l162 54q70 22 86 38
t16 86t-47 116t-164 46q-176 0 -360 -137v168q181 106 367 106q186 1 275 -79t89 -306v-702z" />
    <glyph glyph-name="acircumflex" unicode="&#xe2;" horiz-adv-x="1003" 
d="M442 1548h121l277 -348h-140l-196 180l-211 -180h-127zM400 115q74 0 128 20t84 44q31 24 84 71v321q-37 -18 -139 -59l-145 -57q-106 -43 -140 -87t-34 -106t44 -105q44 -42 118 -42zM856 0h-131l-29 115q-140 -137 -298 -137t-243 75q-85 76 -85 208t73 206
q74 74 289 143l162 54q70 22 86 38t16 86t-47 116t-164 46q-176 0 -360 -137v168q181 106 367 106q186 1 275 -79t89 -306v-702z" />
    <glyph glyph-name="atilde" unicode="&#xe3;" horiz-adv-x="1003" 
d="M633 1237q-59 0 -131 48q-72 47 -92 59t-51 12t-56 -25t-57 -80l-84 56q49 92 96 142t110 50t120 -40q16 -11 66 -45t82 -34t58 20t36 34t30 49l84 -56q-56 -102 -104 -146t-107 -44zM400 115q74 0 128 20t84 44q31 24 84 71v321q-37 -18 -139 -59l-145 -57
q-106 -43 -140 -87t-34 -106t44 -105q44 -42 118 -42zM856 0h-131l-29 115q-140 -137 -298 -137t-243 75q-85 76 -85 208t73 206q74 74 289 143l162 54q70 22 86 38t16 86t-47 116t-164 46q-176 0 -360 -137v168q181 106 367 106q186 1 275 -79t89 -306v-702z" />
    <glyph glyph-name="adieresis" unicode="&#xe4;" horiz-adv-x="1003" 
d="M772 1223h-160v194h160v-194zM393 1223h-160v194h160v-194zM400 115q74 0 128 20t84 44q31 24 84 71v321q-37 -18 -139 -59l-145 -57q-106 -43 -140 -87t-34 -106t44 -105q44 -42 118 -42zM856 0h-131l-29 115q-140 -137 -298 -137t-243 75q-85 76 -85 208t73 206
q74 74 289 143l162 54q70 22 86 38t16 86t-47 116t-164 46q-176 0 -360 -137v168q181 106 367 106q186 1 275 -79t89 -306v-702z" />
    <glyph glyph-name="aring" unicode="&#xe5;" horiz-adv-x="1003" 
d="M387 1380q0 -48 35 -82t82 -34t81 34t33 80q0 47 -34 81q-35 34 -82 34t-81 -33t-34 -80zM503 1163q-89 -1 -153 63t-63 152q0 88 63 152q64 64 154 63q90 0 152 -63q62 -62 62 -152t-62 -152q-64 -62 -153 -63zM400 115q74 0 128 20t84 44q31 24 84 71v321
q-37 -18 -139 -59l-145 -57q-106 -43 -140 -87t-34 -106t44 -105q44 -42 118 -42zM856 0h-131l-29 115q-140 -137 -298 -137t-243 75q-85 76 -85 208t73 206q74 74 289 143l162 54q70 22 86 38t16 86t-47 116t-164 46q-176 0 -360 -137v168q181 106 367 106q186 1 275 -79
t89 -306v-702z" />
    <glyph glyph-name="ae" unicode="&#xe6;" horiz-adv-x="1622" 
d="M850 651h536q-12 150 -83 225q-71 74 -173 74t-178 -73q-75 -74 -102 -226zM238 268q0 -154 163 -153q145 0 316 174q-35 102 -39 229q-240 -10 -340 -83t-100 -167zM496 1087q244 0 311 -157q49 70 136 114t190 43q399 0 423 -569h-710q6 -172 82 -288t236 -116t337 134
v-166q-160 -104 -336 -105q-270 0 -397 199q-2 -2 -19 -20t-29 -28q-129 -118 -236 -138q-66 -12 -105 -13q-141 0 -225 79t-84 214t125 247q67 58 193 95t298 39v86q0 119 -50 166t-154 47t-183 -32q-80 -32 -174 -105v168q174 106 371 106z" />
    <glyph glyph-name="ccedilla" unicode="&#xe7;" horiz-adv-x="927" 
d="M496 -293q123 0 122 76q0 39 -40 61t-158 25l63 113q-113 14 -197 69t-128 137q-90 164 -88 342q0 230 125 394t356 163q154 0 313 -104v-174q-53 45 -85 68t-95 49t-131 24q-154 0 -235 -125t-80 -297q0 -285 178 -381q61 -33 146 -33t150 30t167 108v-172
q-127 -89 -283 -103l-21 -38q78 -9 125 -53q48 -44 48 -122t-67 -124q-67 -48 -191 -48t-238 46l53 102q102 -33 191 -33z" />
    <glyph glyph-name="egrave" unicode="&#xe8;" horiz-adv-x="1021" 
d="M510 1200l-291 359h232l194 -359h-135zM526 950q-122 0 -196 -95q-76 -95 -88 -210h544q-12 121 -75 213t-185 92zM70 530q0 254 125 406t323 152t316 -140q118 -139 122 -436h-718q6 -168 83 -283t244 -114q127 0 231 62q36 22 105 71v-166q-168 -104 -338 -105
q-117 0 -208 38q-91 39 -143 95t-97 159t-45 261z" />
    <glyph glyph-name="eacute" unicode="&#xe9;" horiz-adv-x="1021" 
d="M512 1200h-135l194 359h232zM526 950q-122 0 -196 -95q-76 -95 -88 -210h544q-12 121 -75 213t-185 92zM70 530q0 254 125 406t323 152t316 -140q118 -139 122 -436h-718q6 -168 83 -283t244 -114q127 0 231 62q36 22 105 71v-166q-168 -104 -338 -105q-117 0 -208 38
q-91 39 -143 95t-97 159t-45 261z" />
    <glyph glyph-name="ecircumflex" unicode="&#xea;" horiz-adv-x="1021" 
d="M451 1548h120l277 -348h-139l-197 180l-211 -180h-127zM526 950q-122 0 -196 -95q-76 -95 -88 -210h544q-12 121 -75 213t-185 92zM70 530q0 254 125 406t323 152t316 -140q118 -139 122 -436h-718q6 -168 83 -283t244 -114q127 0 231 62q36 22 105 71v-166
q-168 -104 -338 -105q-117 0 -208 38q-91 39 -143 95t-97 159t-45 261z" />
    <glyph glyph-name="edieresis" unicode="&#xeb;" horiz-adv-x="1021" 
d="M780 1223h-159v194h159v-194zM401 1223h-159v194h159v-194zM526 950q-122 0 -196 -95q-76 -95 -88 -210h544q-12 121 -75 213t-185 92zM70 530q0 254 125 406t323 152t316 -140q118 -139 122 -436h-718q6 -168 83 -283t244 -114q127 0 231 62q36 22 105 71v-166
q-168 -104 -338 -105q-117 0 -208 38q-91 39 -143 95t-97 159t-45 261z" />
    <glyph glyph-name="igrave" unicode="&#xec;" horiz-adv-x="487" 
d="M244 1200l-291 359h231l195 -359h-135zM324 0h-160v1065h160v-1065z" />
    <glyph glyph-name="iacute" unicode="&#xed;" horiz-adv-x="487" 
d="M246 1200h-135l194 359h232zM324 0h-160v1065h160v-1065z" />
    <glyph glyph-name="icircumflex" unicode="&#xee;" horiz-adv-x="487" 
d="M184 1548h121l277 -348h-140l-196 180l-211 -180h-127zM324 0h-160v1065h160v-1065z" />
    <glyph glyph-name="idieresis" unicode="&#xef;" horiz-adv-x="487" 
d="M514 1223h-160v194h160v-194zM135 1223h-160v194h160v-194zM324 0h-160v1065h160v-1065z" />
    <glyph glyph-name="eth" unicode="&#xf0;" horiz-adv-x="1067" 
d="M829 518q0 192 -76 312t-214 120t-220 -110q-81 -110 -81 -324q0 -213 118 -332q70 -70 186 -70t201 106q86 105 86 298zM70 539q0 256 136 402t318 146q102 0 191 -57q-49 111 -135 240l-172 -107l-46 76l162 100q-76 90 -164 162h160q63 -55 105 -100l159 100l45 -76
l-147 -92q86 -108 164 -253q153 -288 152 -552q-1 -266 -140 -408t-333 -142q-195 0 -325 152q-130 153 -130 409z" />
    <glyph glyph-name="ntilde" unicode="&#xf1;" horiz-adv-x="1136" 
d="M698 1237q-60 0 -131 48q-72 47 -92 59t-45 12q-26 0 -48 -16t-35 -32q-13 -17 -36 -57l-84 56q49 92 97 142t110 50q63 0 120 -40q17 -11 66 -45t81 -34t58 20t36 34t30 49l84 -56q-55 -102 -103 -146t-108 -44zM985 0h-160v707q0 113 -32 173q-33 60 -116 60t-156 -32
t-197 -113v-795h-160v1065h160v-135q220 158 368 158q294 -1 293 -355v-733z" />
    <glyph glyph-name="ograve" unicode="&#xf2;" horiz-adv-x="1067" 
d="M532 1200l-290 359h231l195 -359h-136zM829 539q0 176 -79 294q-80 117 -224 117t-216 -126q-73 -126 -72 -292q0 -226 119 -347q71 -71 175 -70q150 0 224 124q73 124 73 300zM997 530q0 -246 -130 -400t-337 -153q-208 0 -334 157t-126 402q0 244 128 398t336 154
t336 -156t127 -402z" />
    <glyph glyph-name="oacute" unicode="&#xf3;" horiz-adv-x="1067" 
d="M535 1200h-136l195 359h231zM829 539q0 176 -79 294q-80 117 -224 117t-216 -126q-73 -126 -72 -292q0 -226 119 -347q71 -71 175 -70q150 0 224 124q73 124 73 300zM997 530q0 -246 -130 -400t-337 -153q-208 0 -334 157t-126 402q0 244 128 398t336 154t336 -156
t127 -402z" />
    <glyph glyph-name="ocircumflex" unicode="&#xf4;" horiz-adv-x="1067" 
d="M473 1548h121l276 -348h-139l-196 180l-211 -180h-127zM829 539q0 176 -79 294q-80 117 -224 117t-216 -126q-73 -126 -72 -292q0 -226 119 -347q71 -71 175 -70q150 0 224 124q73 124 73 300zM997 530q0 -246 -130 -400t-337 -153q-208 0 -334 157t-126 402
q0 244 128 398t336 154t336 -156t127 -402z" />
    <glyph glyph-name="otilde" unicode="&#xf5;" horiz-adv-x="1067" 
d="M665 1237q-58 0 -131 48q-74 47 -94 59t-51 12t-55 -25t-58 -80l-83 56q49 92 96 142t110 50t120 -40q17 -11 67 -45t81 -34t57 20t36 34t31 49l83 -56q-55 -102 -103 -146t-106 -44zM829 539q0 176 -79 294q-80 117 -224 117t-216 -126q-73 -126 -72 -292
q0 -226 119 -347q71 -71 175 -70q150 0 224 124q73 124 73 300zM997 530q0 -246 -130 -400t-337 -153q-208 0 -334 157t-126 402q0 244 128 398t336 154t336 -156t127 -402z" />
    <glyph glyph-name="odieresis" unicode="&#xf6;" horiz-adv-x="1067" 
d="M803 1223h-160v194h160v-194zM424 1223h-160v194h160v-194zM829 539q0 176 -79 294q-80 117 -224 117t-216 -126q-73 -126 -72 -292q0 -226 119 -347q71 -71 175 -70q150 0 224 124q73 124 73 300zM997 530q0 -246 -130 -400t-337 -153q-208 0 -334 157t-126 402
q0 244 128 398t336 154t336 -156t127 -402z" />
    <glyph glyph-name="divide" unicode="&#xf7;" horiz-adv-x="1366" 
d="M772 387v-180h-180v180h180zM772 1292v-180h-180v180h180zM133 821h1100v-143h-1100v143z" />
    <glyph glyph-name="oslash" unicode="&#xf8;" horiz-adv-x="1067" 
d="M516 115q190 0 257 155q57 131 57 259q0 129 -39 227l-449 -557q72 -84 174 -84zM540 950q-109 0 -180 -67q-124 -121 -122 -346q-1 -119 38 -228l449 557q-76 84 -185 84zM997 512q0 -228 -129 -382t-336 -153q-168 0 -284 105l-84 -105l-94 78l96 119q-96 150 -96 378
t128 382t337 153q159 0 284 -102l84 102l94 -77l-96 -119q96 -151 96 -379z" />
    <glyph glyph-name="ugrave" unicode="&#xf9;" horiz-adv-x="1136" 
d="M567 1200l-291 359h232l194 -359h-135zM973 0h-131l-29 115q-201 -137 -377 -138q-137 -1 -211 95t-73 260v733h159v-705q0 -127 40 -181t128 -54q131 0 334 129v811h160v-1065z" />
    <glyph glyph-name="uacute" unicode="&#xfa;" horiz-adv-x="1136" 
d="M569 1200h-135l195 359h231zM973 0h-131l-29 115q-201 -137 -377 -138q-137 -1 -211 95t-73 260v733h159v-705q0 -127 40 -181t128 -54q131 0 334 129v811h160v-1065z" />
    <glyph glyph-name="ucircumflex" unicode="&#xfb;" horiz-adv-x="1136" 
d="M508 1548h121l276 -348h-139l-197 180l-211 -180h-127zM973 0h-131l-29 115q-201 -137 -377 -138q-137 -1 -211 95t-73 260v733h159v-705q0 -127 40 -181t128 -54q131 0 334 129v811h160v-1065z" />
    <glyph glyph-name="udieresis" unicode="&#xfc;" horiz-adv-x="1136" 
d="M838 1223h-160v194h160v-194zM459 1223h-160v194h160v-194zM973 0h-131l-29 115q-201 -137 -377 -138q-137 -1 -211 95t-73 260v733h159v-705q0 -127 40 -181t128 -54q131 0 334 129v811h160v-1065z" />
    <glyph glyph-name="yacute" unicode="&#xfd;" horiz-adv-x="997" 
d="M500 1200h-135l194 359h232zM176 -397q-72 0 -145 14v145q67 -22 149 -22t132 45t83 135l33 90l-393 1055h166l307 -844l307 844h162l-449 -1221q-38 -102 -102 -158t-121 -70t-129 -13z" />
    <glyph glyph-name="thorn" unicode="&#xfe;" horiz-adv-x="1124" 
d="M887 524q0 182 -73 304t-212 122t-278 -149v-539q44 -43 76 -71q32 -29 88 -53t116 -23q139 -1 211 113t72 296zM324 -397h-160v1898h160v-545q156 131 298 131t244 -85q188 -155 189 -469q0 -314 -187 -471q-100 -85 -241 -85q-174 0 -303 129v-503z" />
    <glyph glyph-name="ydieresis" unicode="&#xff;" horiz-adv-x="997" 
d="M768 1223h-160v194h160v-194zM389 1223h-160v194h160v-194zM176 -397q-72 0 -145 14v145q67 -22 149 -22t132 45t83 135l33 90l-393 1055h166l307 -844l307 844h162l-449 -1221q-38 -102 -102 -158t-121 -70t-129 -13z" />
    <glyph glyph-name="dotlessi" unicode="&#x131;" horiz-adv-x="487" 
d="M324 0h-160v1065h160v-1065z" />
    <glyph glyph-name="Lslash" unicode="&#x141;" horiz-adv-x="1048" 
d="M188 1501h174v-641l271 219v-166l-271 -219v-534h656v-160h-830v553l-161 -131v166l161 131v782z" />
    <glyph glyph-name="lslash" unicode="&#x142;" horiz-adv-x="487" 
d="M324 0h-160v602l-152 -129v160l152 131v680l160 57v-602l151 129v-162l-151 -129v-737z" />
    <glyph glyph-name="OE" unicode="&#x152;" horiz-adv-x="1980" 
d="M672 1376q-131 0 -222 -92q-174 -176 -174 -536q0 -264 104 -444t300 -179q395 -1 395 625t-403 626zM1090 1501h794v-153h-635v-500h547v-150h-547v-544h682v-154h-841v209q-138 -238 -410 -238q-272 -1 -428 225t-156 552q0 213 66 388q66 174 200 284t314 110
q271 0 414 -238v209z" />
    <glyph glyph-name="oe" unicode="&#x153;" horiz-adv-x="1755" 
d="M983 645h537q-12 115 -60 188t-97 95q-48 22 -99 22q-96 0 -177 -76t-104 -229zM811 520q0 182 -70 306t-217 124t-217 -122q-69 -122 -69 -301t76 -296t207 -117q132 0 211 112t79 294zM70 538q0 250 129 400t321 149q233 0 371 -231q99 165 233 210q64 22 148 22
t152 -28q110 -44 180 -170q70 -125 86 -378h-711q4 -144 70 -259q35 -62 101 -100t152 -38q86 1 154 29t178 104v-166q-160 -104 -334 -105q-276 0 -411 234q-133 -233 -367 -234q-204 0 -328 156t-124 405z" />
    <glyph glyph-name="Scaron" unicode="&#x160;" horiz-adv-x="1204" 
d="M664 1636h-121l-277 349h127l211 -179l209 179h127zM594 125q96 0 164 27q68 28 100 70q58 79 59 166t-72 161q-73 73 -295 159t-314 182q-90 96 -90 259q0 165 125 273q126 108 338 108t401 -125v-199q-190 170 -400 170q-145 0 -221 -66t-76 -161t73 -155
q74 -60 282 -146t312 -179t105 -268q0 -213 -136 -321q-135 -108 -359 -108t-447 139v198q68 -53 113 -83t143 -66q99 -36 195 -35z" />
    <glyph glyph-name="scaron" unicode="&#x161;" horiz-adv-x="958" 
d="M541 1200h-121l-277 348h127l211 -178l209 178h127zM98 800q0 109 60 175q105 114 305 112q168 0 334 -104v-174q-55 45 -93 70t-108 49q-68 24 -156 22q-88 0 -138 -40t-50 -83t12 -65q28 -50 241 -134t285 -165q71 -82 70 -182q0 -131 -95 -217t-292 -86t-375 102v172
q59 -44 93 -64t114 -47q79 -27 185 -27t161 48q55 46 55 114t-56 108q-58 40 -225 108t-247 134q-80 65 -80 174z" />
    <glyph glyph-name="Ydieresis" unicode="&#x178;" horiz-adv-x="1138" 
d="M659 0h-174v651l-465 850h197l358 -676l353 676h190l-459 -850v-651zM864 1636h-198v199h198v-199zM473 1636h-199v199h199v-199z" />
    <glyph glyph-name="Zcaron" unicode="&#x17d;" horiz-adv-x="1130" 
d="M627 1636h-121l-277 349h127l211 -179l209 179h127zM1051 0h-971v147l774 1201h-713v153h910v-147l-777 -1200h777v-154z" />
    <glyph glyph-name="zcaron" unicode="&#x17e;" horiz-adv-x="917" 
d="M520 1200h-121l-276 348h127l211 -178l209 178h127zM866 0h-817v129l613 795h-582v141h776v-131l-610 -793h620v-141z" />
    <glyph glyph-name="florin" unicode="&#x192;" horiz-adv-x="997" 
d="M87 -248q71 0 101 45t62 195l205 940h-172l28 133h172l25 109q41 182 103 254t194 73q86 0 209 -39l-33 -147q-115 37 -168 37t-85 -34t-58 -153l-23 -100h219l-26 -133h-222l-231 -1049q-29 -142 -98 -212q-122 -124 -395 -29l34 137q88 -27 159 -27z" />
    <glyph glyph-name="circumflex" unicode="&#x2c6;" 
d="M281 1548h120l277 -348h-139l-197 180l-211 -180h-127z" />
    <glyph glyph-name="caron" unicode="&#x2c7;" 
d="M401 1200h-120l-277 348h127l211 -178l209 178h127z" />
    <glyph glyph-name="breve" unicode="&#x2d8;" 
d="M328 1393q74 1 118 23q45 22 63 43q17 22 38 59h121q-96 -283 -326 -283t-328 283h121q35 -57 77 -91t116 -34z" />
    <glyph glyph-name="dotaccent" unicode="&#x2d9;" 
d="M420 1223h-158v194h158v-194z" />
    <glyph glyph-name="ring" unicode="&#x2da;" 
d="M225 1380q0 -48 35 -82t82 -34t81 34t34 80q0 47 -35 81t-82 34t-81 -33t-34 -80zM125 1378q0 88 63 152q62 64 152 63q90 0 154 -63q64 -62 63 -152q1 -90 -63 -152t-153 -63t-153 63t-63 152z" />
    <glyph glyph-name="ogonek" unicode="&#x2db;" 
d="M311 -113q0 -63 32 -107q31 -44 101 -44t179 69v-139q-119 -70 -228 -70t-168 66q-59 64 -59 168t45 233h143q-45 -113 -45 -176z" />
    <glyph glyph-name="tilde" unicode="&#x2dc;" 
d="M472 1237q-60 0 -132 48q-72 47 -92 59t-45 12t-47 -16t-36 -32q-13 -17 -36 -57l-84 56q49 92 96 142t109 50t122 -40q17 -11 66 -45t81 -34t58 20t36 34t30 49l84 -56q-55 -102 -103 -146q-47 -44 -107 -44z" />
    <glyph glyph-name="hungarumlaut" unicode="&#x2dd;" 
d="M502 1200h-129l196 359h224zM172 1200h-129l197 359h223z" />
    <glyph glyph-name="mu" unicode="&#x3bc;" horiz-adv-x="1148" 
d="M324 1065v-633q0 -307 245 -307q123 0 190 78t66 229v633h160v-1065h-141v92q-104 -115 -262 -115t-258 107v-481h-160v1462h160z" />
    <glyph glyph-name="endash" unicode="&#x2013;" horiz-adv-x="1024" 
d="M1036 461h-1048v143h1048v-143z" />
    <glyph glyph-name="emdash" unicode="&#x2014;" horiz-adv-x="2048" 
d="M2060 461h-2072v143h2072v-143z" />
    <glyph glyph-name="quoteleft" unicode="&#x2018;" horiz-adv-x="497" 
d="M358 1239v-256h-221v242l152 305h104l-129 -291h94z" />
    <glyph glyph-name="quoteright" unicode="&#x2019;" horiz-adv-x="497" 
d="M139 1245v256h221v-241l-153 -306h-103l127 291h-92z" />
    <glyph glyph-name="quotesinglbase" unicode="&#x201a;" horiz-adv-x="497" 
d="M139 0v256h221v-242l-153 -305h-103l127 291h-92z" />
    <glyph glyph-name="quotedblleft" unicode="&#x201c;" horiz-adv-x="899" 
d="M760 1239v-256h-221v242l153 305h103l-127 -291h92zM360 1239v-256h-221v242l152 305h104l-129 -291h94z" />
    <glyph glyph-name="quotedblright" unicode="&#x201d;" horiz-adv-x="899" 
d="M539 1245v256h221v-241l-152 -306h-102l127 291h-94zM139 1245v256h221v-241l-153 -306h-103l127 291h-92z" />
    <glyph glyph-name="quotedblbase" unicode="&#x201e;" horiz-adv-x="899" 
d="M539 0v256h221v-242l-152 -305h-102l127 291h-94zM139 0v256h221v-242l-153 -305h-103l127 291h-92z" />
    <glyph glyph-name="dagger" unicode="&#x2020;" horiz-adv-x="1038" 
d="M66 997l397 -24l-27 528h166l-24 -528l397 24v-163l-397 24l30 -1255h-178l33 1255l-397 -24v163z" />
    <glyph glyph-name="daggerdbl" unicode="&#x2021;" horiz-adv-x="1017" 
d="M72 1051l379 -25l-27 475h170l-27 -475l379 25v-164l-379 24l19 -360l-19 -358l379 24v-164l-379 25l27 -475h-170l27 475l-379 -25v164l379 -24l-19 358l19 360l-379 -24v164z" />
    <glyph glyph-name="bullet" unicode="&#x2022;" horiz-adv-x="712" 
d="M98 751q0 109 76 183t181 74t181 -75t76 -182t-74 -183q-76 -74 -182 -74t-182 74t-76 183z" />
    <glyph glyph-name="ellipsis" unicode="&#x2026;" horiz-adv-x="2048" 
d="M231 0v256h222v-256h-222zM1595 0v256h222v-256h-222zM913 0v256h222v-256h-222z" />
    <glyph glyph-name="perthousand" unicode="&#x2030;" horiz-adv-x="2398" 
d="M1262 680q-98 0 -146 -86t-47 -209q0 -123 51 -206q52 -83 146 -83t144 82t50 212t-50 210t-148 80zM1259 791q157 0 245 -111t89 -283q1 -171 -79 -291t-245 -120t-249 112t-84 288q0 177 83 291t240 114zM2026 680q-98 0 -146 -84t-47 -208q0 -124 51 -208
q50 -84 146 -84t146 82t50 212t-51 210t-149 80zM2359 397q-1 -171 -81 -291t-244 -120t-248 112t-84 288q0 177 83 291t239 114t246 -111q89 -111 89 -283zM696 1135q0 -173 -80 -291t-245 -119q-164 0 -248 112q-84 113 -84 289t83 290q84 114 240 114t245 -111t89 -284z
M459 -29h-125l840 1559h126zM365 1419q-97 0 -145 -87t-48 -210q0 -122 50 -204t146 -82t145 82q50 82 50 212t-50 209q-50 80 -148 80z" />
    <glyph glyph-name="guilsinglleft" unicode="&#x2039;" horiz-adv-x="675" 
d="M436 61l-393 471l393 472h197l-393 -472l393 -471h-197z" />
    <glyph glyph-name="guilsinglright" unicode="&#x203a;" horiz-adv-x="675" 
d="M240 61h-197l393 471l-393 472h197l393 -472z" />
    <glyph glyph-name="fraction" unicode="&#x2044;" horiz-adv-x="258" 
d="M-227 -29h-127l841 1559h125z" />
    <glyph glyph-name="trademark" unicode="&#x2122;" horiz-adv-x="1417" 
d="M793 850h-123v651h172l141 -471l139 471h172v-651h-123v430l-129 -430h-120l-129 430v-430zM385 1382v-532h-127v532h-207v119h541v-119h-207z" />
    <glyph glyph-name="minus" unicode="&#x2212;" horiz-adv-x="1366" 
d="M133 821h1100v-143h-1100v143z" />
    </font>
</defs>
</svg>
