<?xml version="1.0" standalone="no"?>
<!DOCTYPE svg PUBLIC "-//W3C//DTD SVG 1.1//EN" "http://www.w3.org/Graphics/SVG/1.1/DTD/svg11.dtd" >
<svg xmlns="http://www.w3.org/2000/svg">
<metadata>
Created by FontPrep 20130207 at Wed Sep 17 16:38:32 2014
 By CJ
SAS Scandinavian is a trademark of Scandinavian Airlines System.
</metadata>
<defs>
<font id="1a142ca337c23fd3aeb2619e923ebdcf" horiz-adv-x='1024' >
  <font-face 
    font-family="Scandinavian-Light"
    font-weight="200"
    font-stretch="normal"
    units-per-em="2048"
    panose-1="2 0 3 3 0 0 0 0 0 0"
    ascent="1554"
    descent="-494"
    x-height="1065"
    cap-height="1501"
    bbox="-365 -512 2316 1980"
    underline-thickness="102"
    underline-position="-205"
    unicode-range="U+0020-FFFD"
  />
<missing-glyph horiz-adv-x="450" 
 />
    <glyph glyph-name="fi" unicode="fi" horiz-adv-x="1034" 
d="M866 0h-123v1065h123v-1065zM866 1229h-123v164h123v-164zM342 1212v-147h211v-102h-211v-963h-123v963h-172v102h172v160q0 139 80 208t197 68q37 0 100 -6v-115q-53 6 -80 6q-174 0 -174 -174z" />
    <glyph glyph-name="fl" unicode="fl" horiz-adv-x="1034" 
d="M866 0h-123v1450l123 51v-1501zM342 1212v-147h211v-102h-211v-963h-123v963h-172v102h172v160q0 139 80 208t197 68q37 0 100 -6v-115q-53 6 -80 6q-174 0 -174 -174z" />
    <glyph glyph-name=".notdef" unicode="&#xfffd;" horiz-adv-x="450" 
 />
    <glyph glyph-name=".null" horiz-adv-x="0" 
 />
    <glyph glyph-name="nonmarkingreturn" 
 />
    <glyph glyph-name="space" unicode=" " horiz-adv-x="450" 
 />
    <glyph glyph-name="exclam" unicode="!" horiz-adv-x="512" 
d="M168 0v205h176v-205h-176zM313 467h-114l-23 1034h160z" />
    <glyph glyph-name="quotedbl" unicode="&#x22;" horiz-adv-x="731" 
d="M121 1501h135v-235l-23 -267h-88l-24 267v235zM475 1501h135v-235l-22 -267h-88l-25 267v235z" />
    <glyph glyph-name="numbersign" unicode="#" horiz-adv-x="1366" 
d="M944 942h-440l-82 -385h442zM92 1049h330l94 452h105l-97 -452h441l94 452h104l-94 -452h205v-107h-225l-82 -387h307v-104h-328l-96 -451h-102l94 451h-443l-94 -451h-104l96 451h-205v104h225l82 387h-307v107z" />
    <glyph glyph-name="dollar" unicode="$" horiz-adv-x="1171" 
d="M545 854v530q-121 -14 -198 -76t-77 -171q1 -172 275 -283zM928 367q0 98 -68 176t-205 123v-572q141 23 207 99t66 174zM655 -244h-110v215q-199 10 -412 119v152q193 -137 412 -154v621q-296 112 -371 249q-39 72 -39 162q0 145 99 253t311 128v109h110v-109
q182 -16 328 -121v-151q-170 135 -328 153v-569q205 -74 307 -174t101 -257q1 -156 -97 -268t-311 -139v-219z" />
    <glyph glyph-name="percent" unicode="%" horiz-adv-x="1714" 
d="M1669 397q0 -171 -80 -291t-244 -120q-163 0 -247 112t-84 288q0 175 83 290t239 115t244 -111q89 -111 89 -283zM1336 698q-106 0 -156 -90t-52 -220q0 -130 54 -220t158 -90q103 0 159 87q55 87 55 225t-55 223q-57 85 -163 85zM492 -29h-111l842 1559h110zM367 1530
q157 0 245 -111t88 -283t-80 -292t-243 -119q-164 0 -248 113q-84 114 -84 288t83 289t239 115zM368 1438q-106 0 -157 -90t-51 -222t53 -220q53 -89 157 -89t160 87t56 225q0 137 -56 223t-162 86z" />
    <glyph glyph-name="ampersand" unicode="&#x26;" horiz-adv-x="1386" 
d="M233 381q1 -121 103 -204t252 -83q189 1 330 142l-390 516q-225 -143 -272 -253q-23 -54 -23 -118zM815 1238q0 83 -48 134t-128 51t-133 -62q-54 -61 -54 -161t111 -274q135 92 194 160q58 69 58 152zM589 -29q-230 0 -361 113q-130 113 -130 294t113 295q57 58 107 95
t131 88q-72 114 -100 180t-27 154q0 144 87 242t233 98t223 -86t77 -214t-87 -222q-87 -95 -214 -185l360 -475q80 121 140 324h131q-61 -254 -189 -432l183 -240h-170l-101 135q-176 -164 -406 -164z" />
    <glyph glyph-name="quotesingle" unicode="'" horiz-adv-x="378" 
d="M121 1501h135v-235l-23 -267h-88l-24 267v235z" />
    <glyph glyph-name="parenleft" unicode="(" horiz-adv-x="659" 
d="M98 566q0 274 91 508t300 456h150q-57 -59 -92 -99q-35 -39 -101 -137t-104 -191t-71 -237q-66 -295 0 -598q32 -143 71 -237q38 -93 104 -191t101 -138t92 -99h-150q-209 221 -300 455t-91 508z" />
    <glyph glyph-name="parenright" unicode=")" horiz-adv-x="659" 
d="M561 568q0 -274 -91 -510q-91 -234 -300 -455h-150q57 59 93 99q35 40 100 137q67 97 105 191t70 238q32 143 32 299t-32 299q-32 142 -71 236t-104 191q-66 97 -101 137t-92 100h150q209 -220 300 -454t91 -508z" />
    <glyph glyph-name="asterisk" unicode="*" horiz-adv-x="950" 
d="M440 1106l-389 -45v133l391 -51l-239 317l121 70l149 -365l156 365l116 -70l-237 -317l393 51v-133l-393 45l237 -315l-116 -68l-156 362l-149 -362l-121 68z" />
    <glyph glyph-name="plus" unicode="+" horiz-adv-x="1366" 
d="M143 805h486v485h106v-485h486v-107h-486v-485h-106v485h-486v107z" />
    <glyph glyph-name="comma" unicode="," horiz-adv-x="471" 
d="M147 0v205h177v-205l-150 -295h-72l136 295h-91z" />
    <glyph glyph-name="hyphen" unicode="-" horiz-adv-x="708" 
d="M606 467h-504v131h504v-131z" />
    <glyph glyph-name="period" unicode="." horiz-adv-x="471" 
d="M147 0v205h177v-205h-177z" />
    <glyph glyph-name="slash" unicode="/" horiz-adv-x="903" 
d="M152 0h-121l721 1501h120z" />
    <glyph glyph-name="zero" unicode="0" horiz-adv-x="1171" 
d="M587 88q185 0 285 183t100 479t-100 480q-102 183 -286 183t-286 -183t-101 -479q0 -296 101 -480q102 -183 287 -183zM587 1530q231 0 379 -205t148 -575t-148 -574q-148 -205 -381 -205q-232 0 -380 205q-147 205 -147 577q0 373 149 575q150 202 380 202z" />
    <glyph glyph-name="one" unicode="1" horiz-adv-x="1171" 
d="M911 0h-604v113h256v1235q-139 -82 -307 -131v112q152 55 317 172h119v-1388h219v-113z" />
    <glyph glyph-name="two" unicode="2" horiz-adv-x="1171" 
d="M1061 0h-944q23 182 97 310q75 128 295 308t304 280q84 99 84 226t-80 208t-223 81q-207 0 -453 -209v146q240 180 447 180q208 0 328 -114t120 -290q0 -84 -24 -152t-94 -145q-70 -78 -127 -128t-175 -146q-220 -179 -282 -280q-33 -51 -44 -79t-24 -75h795v-121z" />
    <glyph glyph-name="three" unicode="3" horiz-adv-x="1171" 
d="M1008 1178q0 -249 -322 -367q356 -57 356 -391q0 -199 -139 -324q-139 -124 -351 -124t-421 106v131q189 -121 371 -121t291 84t108 254q0 170 -114 243t-281 72h-117v109q262 8 373 98q110 90 110 206t-71 187q-72 72 -223 72q-197 0 -437 -166v135q225 148 431 148
t322 -104q114 -104 114 -248z" />
    <glyph glyph-name="four" unicode="4" horiz-adv-x="1171" 
d="M743 494v907l-579 -907h579zM872 373v-373h-129v373h-712v121l643 1007h198v-1007h220v-121h-220z" />
    <glyph glyph-name="five" unicode="5" horiz-adv-x="1171" 
d="M522 88q180 0 290 100t110 274t-92 273t-248 99t-306 -123h-114l51 790h770v-121h-661l-35 -528q160 98 323 98q205 0 329 -133t124 -356t-150 -357q-149 -134 -359 -132q-210 0 -417 106v131q205 -121 385 -121z" />
    <glyph glyph-name="six" unicode="6" horiz-adv-x="1171" 
d="M614 88q154 0 248 115t94 271t-88 250q-88 93 -213 93q-202 0 -411 -256q0 -125 36 -220q62 -164 212 -227q61 -26 122 -26zM672 934q172 0 296 -121t124 -330t-125 -361t-363 -151q-238 0 -370 174t-132 439q0 133 36 264t80 222q44 90 120 194t118 149q41 45 109 117
h172q-414 -389 -493 -813q217 217 428 217z" />
    <glyph glyph-name="seven" unicode="7" horiz-adv-x="1171" 
d="M102 1380v121h945v-115q-221 -403 -357 -712t-229 -674h-150q88 328 221 632t373 748h-803z" />
    <glyph glyph-name="eight" unicode="8" horiz-adv-x="1171" 
d="M586 88q172 0 277 82t105 215t-117 215q-118 81 -265 143q-229 -98 -307 -180q-78 -83 -76 -186q0 -129 106 -209q105 -80 277 -80zM588 1413q-142 0 -234 -72t-92 -176q0 -105 68 -167t256 -146q150 66 215 112t87 89t21 100q0 113 -89 187t-232 73zM956 79
q-148 -108 -371 -108q-224 0 -371 110q-146 110 -146 292t130 281q68 52 112 77t130 66q-235 108 -287 228q-26 58 -26 134q0 166 130 268q130 103 328 103q199 0 329 -102t130 -260q0 -159 -105 -245q-54 -43 -94 -67t-114 -59q70 -33 105 -51t96 -58q172 -116 172 -308
q0 -193 -148 -301z" />
    <glyph glyph-name="nine" unicode="9" horiz-adv-x="1171" 
d="M561 1413q-152 0 -249 -102q-97 -103 -97 -255t83 -246t222 -95q207 -1 406 239q-10 201 -78 303q-100 156 -287 156zM504 598q-184 0 -304 124t-120 324t131 342t361 142t363 -169q134 -169 134 -427q0 -125 -36 -249t-80 -212q-44 -87 -126 -195t-130 -162t-138 -145
h-170q248 256 364 424t175 406q-197 -203 -424 -203z" />
    <glyph glyph-name="colon" unicode=":" horiz-adv-x="471" 
d="M147 860v205h177v-205h-177zM147 0v205h177v-205h-177z" />
    <glyph glyph-name="semicolon" unicode=";" horiz-adv-x="471" 
d="M147 0v205h177v-205l-150 -295h-72l136 295h-91zM147 860v205h177v-205h-177z" />
    <glyph glyph-name="less" unicode="&#x3c;" horiz-adv-x="1366" 
d="M1223 246l-1080 456v97l1080 454v-116l-936 -387l936 -385v-119z" />
    <glyph glyph-name="equal" unicode="=" horiz-adv-x="1366" 
d="M143 569h1080v-106h-1080v106zM143 1036h1080v-106h-1080v106z" />
    <glyph glyph-name="greater" unicode="&#x3e;" horiz-adv-x="1366" 
d="M143 1253l1080 -454v-97l-1080 -456v119l936 385l-936 387v116z" />
    <glyph glyph-name="question" unicode="?" horiz-adv-x="837" 
d="M324 0v205h176v-205h-176zM455 467h-115v80q0 117 31 187t125 176t128 159t33 129q0 115 -72 165q-73 50 -153 50q-174 0 -360 -168v152q184 133 353 133t268 -95t100 -229q0 -68 -29 -134q-30 -66 -60 -104t-114 -134t-110 -157q-26 -60 -25 -210z" />
    <glyph glyph-name="at" unicode="@" horiz-adv-x="1847" 
d="M926 840q-112 0 -194 -133q-83 -133 -83 -334q0 -143 65 -219q40 -48 110 -48t130 56t136 174l36 299q-88 205 -200 205zM964 1362q-300 0 -518 -228t-217 -578q0 -350 191 -586q92 -114 239 -180t330 -66q266 0 559 163v-143q-283 -141 -563 -141q-407 0 -647 263
t-240 669q0 221 73 404q138 346 478 485q158 65 330 65q334 0 552 -228t218 -622q0 -189 -66 -385q-37 -114 -121 -184t-199 -70q-114 0 -182 54q-51 37 -94 151q-102 -119 -160 -162q-59 -43 -143 -43q-218 0 -266 274q-10 57 -10 115q0 217 110 387q111 170 275 170
q104 0 162 -66t90 -126l24 192h140l-84 -612q-31 -227 139 -228q94 0 159 96q111 164 109 435q0 325 -184 525t-484 200z" />
    <glyph glyph-name="A" unicode="A" horiz-adv-x="1210" 
d="M877 537l-275 858l-276 -858h551zM1047 0l-136 424h-620l-137 -424h-134l492 1501h186l492 -1501h-143z" />
    <glyph glyph-name="B" unicode="B" horiz-adv-x="1286" 
d="M328 719v-602h323q203 0 299 87q96 88 96 224t-125 214q-126 78 -319 77h-274zM328 1384v-553h252q209 0 313 78t104 211q0 264 -370 264h-299zM649 0h-456v1501h407q539 0 539 -360q0 -175 -111 -261q-72 -57 -172 -100q49 -14 77 -24t83 -42t87 -68q33 -36 59 -99
t26 -141q0 -170 -136 -288t-403 -118z" />
    <glyph glyph-name="C" unicode="C" horiz-adv-x="1249" 
d="M733 1413q-237 0 -365 -183t-128 -476q0 -152 36 -278q36 -125 85 -202q51 -76 147 -131t210 -55t206 34t135 64t106 86v-153q-53 -39 -93 -63t-138 -54t-221 -31q-123 0 -233 47t-180 123q-199 218 -202 607q0 340 169 561t460 221q223 -1 418 -148v-153q-55 51 -94 82
t-128 67t-190 35z" />
    <glyph glyph-name="D" unicode="D" horiz-adv-x="1361" 
d="M328 1384v-1267h256q278 0 408 167t130 477q0 452 -304 582q-96 41 -222 41h-268zM193 1501h417q318 0 486 -204t168 -534t-148 -538q-76 -105 -207 -165t-309 -60h-407v1501z" />
    <glyph glyph-name="E" unicode="E" horiz-adv-x="1116" 
d="M193 0v1501h823v-117h-688v-555h598v-112h-598v-600h737v-117h-872z" />
    <glyph glyph-name="F" unicode="F" horiz-adv-x="1034" 
d="M328 1384v-555h608v-116h-608v-713h-135v1501h811v-117h-676z" />
    <glyph glyph-name="G" unicode="G" horiz-adv-x="1333" 
d="M741 1413q-241 0 -371 -185t-130 -453t104 -464q52 -100 150 -161q98 -62 246 -62t311 82v426h-363v117h498v-623q-231 -119 -453 -119q-272 0 -424 158q-211 219 -211 612q0 345 170 567t467 222q101 0 193 -29t133 -53t94 -66v-153q-139 132 -269 167q-67 17 -145 17z
" />
    <glyph glyph-name="H" unicode="H" horiz-adv-x="1454" 
d="M1126 0v737h-798v-737h-135v1501h135v-647h798v647h136v-1501h-136z" />
    <glyph glyph-name="I" unicode="I" horiz-adv-x="520" 
d="M193 0v1501h135v-1501h-135z" />
    <glyph glyph-name="J" unicode="J" horiz-adv-x="886" 
d="M705 461q0 -490 -357 -490q-174 0 -317 99v153q147 -135 303 -135q113 0 174 83t61 284v1046h136v-1040z" />
    <glyph glyph-name="K" unicode="K" horiz-adv-x="1243" 
d="M328 0h-135v1501h135v-796l676 796h161l-485 -567l553 -934h-156l-483 834l-266 -312v-522z" />
    <glyph glyph-name="L" unicode="L" horiz-adv-x="1032" 
d="M193 0v1501h135v-1378h673v-123h-808z" />
    <glyph glyph-name="M" unicode="M" horiz-adv-x="1699" 
d="M1374 0v1372l-493 -1372h-68l-494 1372v-1372h-126v1501h210l449 -1245l442 1245h211v-1501h-131z" />
    <glyph glyph-name="N" unicode="N" horiz-adv-x="1452" 
d="M328 0h-135v1501h210l721 -1325v1325h136v-1501h-183l-749 1376v-1376z" />
    <glyph glyph-name="O" unicode="O" horiz-adv-x="1421" 
d="M1182 745q0 287 -125 477t-347 191q-222 0 -346 -189q-124 -190 -124 -486t132 -473t345 -177t339 185t126 472zM711 -29q-279 -1 -446 221t-167 557t167 558t446 223t445 -224t167 -552q0 -205 -67 -379q-68 -174 -210 -289t-335 -115z" />
    <glyph glyph-name="P" unicode="P" horiz-adv-x="1220" 
d="M328 1384v-593h276q197 1 300 79t104 226q0 289 -383 288h-297zM193 1501h448q233 0 371 -97q138 -96 137 -294q0 -198 -139 -317t-394 -119h-288v-674h-135v1501z" />
    <glyph glyph-name="Q" unicode="Q" horiz-adv-x="1421" 
d="M1182 745q0 287 -125 477t-347 191q-222 0 -346 -189q-124 -190 -124 -486t132 -473t345 -177t339 185t126 472zM1106 -285q-342 0 -475 262q-174 25 -298 144q-233 223 -235 627q0 336 167 559t446 223t445 -224t167 -552q0 -408 -234 -631q-126 -121 -307 -148
q98 -156 336 -155q68 0 127 6v-105q-70 -6 -139 -6z" />
    <glyph glyph-name="R" unicode="R" horiz-adv-x="1280" 
d="M328 1384v-596h235q141 0 266 58q68 32 109 96t41 156q0 287 -365 286h-286zM590 676h-262v-676h-135v1501h405q196 0 341 -70q83 -40 132 -123q49 -84 49 -182t-26 -162t-57 -104q-32 -39 -86 -74t-86 -48t-83 -31l414 -707h-152l-393 680q-39 -4 -61 -4z" />
    <glyph glyph-name="S" unicode="S" horiz-adv-x="1200" 
d="M592 88q176 0 263 87t87 201t-75 186t-291 155q-216 84 -266 126t-88 84q-72 80 -72 214q0 173 126 281t331 108q206 0 392 -127v-154q-55 45 -96 74t-125 59t-172 31q-154 0 -238 -75t-83 -183q1 -66 27 -114q44 -80 207 -152q50 -23 159 -64q209 -80 304 -179t95 -270
t-127 -288q-128 -116 -352 -116t-451 145v153q213 -182 445 -182z" />
    <glyph glyph-name="T" unicode="T" horiz-adv-x="1097" 
d="M616 1384v-1384h-135v1384h-440v117h1016v-117h-441z" />
    <glyph glyph-name="U" unicode="U" horiz-adv-x="1409" 
d="M1241 1501v-964q0 -281 -148 -423t-387 -142t-389 140q-150 142 -149 427v962h135v-942q0 -471 401 -471t402 471v942h135z" />
    <glyph glyph-name="V" unicode="V" horiz-adv-x="1157" 
d="M641 0h-125l-496 1501h142l420 -1294l415 1294h140z" />
    <glyph glyph-name="W" unicode="W" horiz-adv-x="1718" 
d="M1296 0h-114l-322 1276l-325 -1276h-117l-381 1501h137l305 -1237l316 1237h135l309 -1237l311 1237h131z" />
    <glyph glyph-name="X" unicode="X" horiz-adv-x="1146" 
d="M971 0l-398 670l-401 -670h-152l476 791l-428 710h157l348 -590l351 590h155l-430 -710l477 -791h-155z" />
    <glyph glyph-name="Y" unicode="Y" horiz-adv-x="1110" 
d="M623 0h-136v653l-467 848h154l385 -719l387 719h144l-467 -848v-653z" />
    <glyph glyph-name="Z" unicode="Z" horiz-adv-x="1126" 
d="M86 0v125l813 1259h-749v117h890v-125l-811 -1259h811v-117h-954z" />
    <glyph glyph-name="bracketleft" unicode="[" horiz-adv-x="768" 
d="M709 -397h-502v1898h502v-115h-375v-1669h375v-114z" />
    <glyph glyph-name="backslash" unicode="\" horiz-adv-x="903" 
d="M752 0l-721 1501h121l720 -1501h-120z" />
    <glyph glyph-name="bracketright" unicode="]" horiz-adv-x="768" 
d="M59 -397v114h375v1669h-375v115h502v-1898h-502z" />
    <glyph glyph-name="asciicircum" unicode="^" horiz-adv-x="1181" 
d="M592 1395l-354 -684h-125l403 790h150l403 -790h-125z" />
    <glyph glyph-name="underscore" unicode="_" horiz-adv-x="1024" 
d="M-12 -154h1048v-102h-1048v102z" />
    <glyph glyph-name="grave" unicode="`" 
d="M348 1200l-268 328h188l181 -328h-101z" />
    <glyph glyph-name="a" unicode="a" horiz-adv-x="987" 
d="M205 259q0 -77 50 -126q49 -49 149 -49t172 38t149 109v369q-23 -20 -104 -49l-179 -62q-143 -51 -190 -102t-47 -128zM389 -23q-137 0 -226 73t-89 199q0 125 66 197t237 129l282 95q37 12 52 27q14 15 14 46v41q0 197 -238 197q-81 0 -157 -28q-76 -27 -112 -51
t-89 -66v139q179 113 365 113t270 -86q84 -85 84 -293v-709h-96l-27 119q-45 -41 -77 -65t-104 -50t-155 -27z" />
    <glyph glyph-name="b" unicode="b" horiz-adv-x="1120" 
d="M604 84q156 0 234 133t78 312t-72 316q-71 136 -248 136q-149 0 -305 -162v-583q157 -152 313 -152zM168 0v1501h123v-567q147 154 321 153q203 1 319 -161t116 -394t-112 -394q-112 -161 -323 -161q-76 0 -144 26q-68 25 -100 49q-30 24 -77 65l-27 -117h-96z" />
    <glyph glyph-name="c" unicode="c" horiz-adv-x="917" 
d="M534 981q-80 0 -150 -41q-118 -70 -162 -251q-17 -75 -17 -154q0 -197 88 -324t254 -127q73 0 139 27t98 51t82 65v-139q-150 -111 -325 -111q-215 0 -341 156q-126 155 -126 395t123 400t344 159q166 1 311 -112v-139q-47 44 -78 68q-32 24 -96 50t-144 27z" />
    <glyph glyph-name="d" unicode="d" horiz-adv-x="1120" 
d="M526 981q-156 0 -238 -122t-83 -353q0 -231 133 -353q74 -69 182 -69q159 -1 309 149v586q-87 88 -153 125t-150 37zM508 -23q-203 0 -319 154q-115 155 -115 403t120 401t314 153t321 -152v565h123v-1501h-96l-27 117q-45 -41 -79 -67t-102 -50q-67 -24 -140 -23z" />
    <glyph glyph-name="e" unicode="e" horiz-adv-x="1017" 
d="M524 981q-133 -1 -219 -103t-94 -235h604q-23 162 -90 246q-29 35 -81 63t-120 29zM205 541q0 -209 93 -333t259 -124q96 0 171 36t167 107v-139q-172 -111 -346 -111q-221 0 -348 153q-127 154 -127 404t128 402t320 151q104 -1 184 -39t122 -96q112 -148 120 -411h-743
z" />
    <glyph glyph-name="f" unicode="f" horiz-adv-x="575" 
d="M342 1212v-147h211v-102h-211v-963h-123v963h-172v102h172v160q0 139 80 208t197 68q37 0 100 -6v-115q-53 6 -80 6q-174 0 -174 -174z" />
    <glyph glyph-name="g" unicode="g" horiz-adv-x="1120" 
d="M526 981q-154 0 -238 -121t-83 -314q0 -192 82 -316t234 -124t308 152v561q-149 162 -303 162zM952 1065v-1034q0 -182 -114 -305t-322 -123q-162 0 -354 96v135q178 -125 364 -125q137 0 220 90t83 228v114q-41 -39 -73 -63t-101 -52q-70 -26 -165 -26t-181 48t-135 128
q-102 167 -100 367q0 250 127 397t307 147q76 1 144 -27t100 -54q31 -26 77 -70l27 129h96z" />
    <glyph glyph-name="h" unicode="h" horiz-adv-x="1132" 
d="M854 0v719q0 137 -46 195t-138 59q-129 0 -379 -148v-825h-123v1501h123v-567q76 45 127 73q51 29 131 55t149 25q137 0 208 -93t71 -257v-737h-123z" />
    <glyph glyph-name="i" unicode="i" horiz-adv-x="458" 
d="M291 0h-123v1065h123v-1065zM291 1229h-123v164h123v-164z" />
    <glyph glyph-name="j" unicode="j" horiz-adv-x="479" 
d="M311 1065v-1182q0 -131 -55 -206t-211 -74q-51 0 -104 12v115q53 -16 117 -16q131 -1 130 175v1176h123zM311 1229h-123v164h123v-164z" />
    <glyph glyph-name="k" unicode="k" horiz-adv-x="1024" 
d="M291 0h-123v1501h123v-993l506 557h159l-346 -369l383 -696h-137l-328 608l-237 -256v-352z" />
    <glyph glyph-name="l" unicode="l" horiz-adv-x="458" 
d="M291 0h-123v1450l123 51v-1501z" />
    <glyph glyph-name="m" unicode="m" horiz-adv-x="1712" 
d="M1434 0v713q0 152 -42 206t-124 54t-151 -35t-197 -125q4 -35 4 -84v-729h-123v713q0 145 -38 202t-123 57t-162 -38q-77 -39 -187 -121v-813h-123v1065h123v-143q71 50 113 78t115 58t134 29q113 0 172 -55t76 -123q145 103 227 141t162 37q129 0 198 -86t68 -251v-750
h-122z" />
    <glyph glyph-name="n" unicode="n" horiz-adv-x="1132" 
d="M854 0v713q0 125 -38 193t-160 67q-122 0 -365 -160v-813h-123v1065h123v-143q241 166 395 166t222 -99q68 -98 69 -248v-741h-123z" />
    <glyph glyph-name="o" unicode="o" horiz-adv-x="1062" 
d="M532 981q-116 0 -192 -71q-138 -128 -135 -378q0 -190 82 -319q83 -129 243 -129t244 126t84 348t-133 349q-78 74 -193 74zM526 -23q-204 0 -328 157t-124 403q0 247 127 399t331 152t330 -154q127 -152 127 -404t-129 -402t-334 -151z" />
    <glyph glyph-name="p" unicode="p" horiz-adv-x="1120" 
d="M596 84q154 0 237 127t83 323t-82 322t-238 125q-156 0 -305 -172v-561q73 -80 141 -122t164 -42zM291 -397h-123v1462h123v-139q156 162 339 162t300 -156t117 -397q0 -321 -193 -477q-100 -81 -240 -81q-78 0 -148 29q-70 28 -100 54q-32 26 -75 69v-526z" />
    <glyph glyph-name="q" unicode="q" horiz-adv-x="1120" 
d="M518 981q-154 0 -234 -126q-80 -125 -79 -321q0 -196 81 -323t234 -127t309 162v583q-157 152 -311 152zM829 -397v528q-45 -45 -75 -70t-99 -55q-70 -30 -147 -29q-207 0 -321 164q-113 163 -113 397t113 392q114 158 323 157q132 0 233 -69q35 -25 86 -70l27 117h96
v-1462h-123z" />
    <glyph glyph-name="r" unicode="r" horiz-adv-x="727" 
d="M291 532v-532h-123v1065h123v-227q150 250 360 249q27 0 45 -4v-127q-20 6 -55 7q-127 0 -239 -118t-111 -313z" />
    <glyph glyph-name="s" unicode="s" horiz-adv-x="948" 
d="M477 84q117 0 183 52t65 127q0 75 -63 128t-241 118t-249 135q-72 72 -72 182t98 186t267 76q168 0 321 -113v-139q-152 145 -329 145q-111 0 -172 -43q-61 -44 -61 -110t54 -111q56 -45 233 -109t257 -142t80 -203q0 -124 -102 -205t-286 -81t-360 111v139
q190 -143 377 -143z" />
    <glyph glyph-name="t" unicode="t" horiz-adv-x="610" 
d="M219 252v711h-186v102h186v326l123 51v-377h240v-102h-240v-701q0 -100 31 -139t98 -39t119 20v-114q-49 -12 -116 -12q-191 -1 -234 119q-21 60 -21 155z" />
    <glyph glyph-name="u" unicode="u" horiz-adv-x="1132" 
d="M442 -23q-143 1 -215 95t-71 252v741h123v-713q0 -143 44 -201t146 -59q158 0 373 150v823h123v-1065h-97l-26 133q-221 -156 -400 -156z" />
    <glyph glyph-name="v" unicode="v" horiz-adv-x="880" 
d="M506 0h-131l-355 1065h127l295 -901l293 901h125z" />
    <glyph glyph-name="w" unicode="w" horiz-adv-x="1382" 
d="M1030 0h-82l-258 856l-254 -856h-84l-321 1065h127l241 -829l248 829h94l246 -825l246 825h119z" />
    <glyph glyph-name="x" unicode="x" horiz-adv-x="917" 
d="M754 0l-295 453l-299 -453h-140l367 551l-344 514h143l273 -416l274 416h139l-344 -510l369 -555h-143z" />
    <glyph glyph-name="y" unicode="y" horiz-adv-x="980" 
d="M956 1065l-448 -1225q-88 -238 -356 -237q-55 0 -117 14v113q57 -20 117 -21q190 0 258 195l30 88l-399 1073h129l334 -905l330 905h122z" />
    <glyph glyph-name="z" unicode="z" horiz-adv-x="905" 
d="M51 0v109l654 849h-623v107h760v-109l-647 -850h657v-106h-801z" />
    <glyph glyph-name="braceleft" unicode="{" horiz-adv-x="663" 
d="M616 -397h-49q-86 1 -146 27t-90 60t-46 95t-19 101q-2 40 -2 108q0 303 -33 397t-176 119v113q53 10 85 21t57 42t42 75t21 166q4 123 4 221t8 146q25 150 129 203q66 33 166 33h49v-107q-61 0 -94 -6q-34 -7 -68 -29q-61 -40 -63 -212v-148q1 -160 -23 -253t-55 -129
t-94 -79q63 -41 94 -78t55 -133t23 -258v-147q0 -156 51 -199t174 -43v-106z" />
    <glyph glyph-name="bar" unicode="|" horiz-adv-x="1062" 
d="M584 -512h-107v2046h107v-2046z" />
    <glyph glyph-name="braceright" unicode="}" horiz-adv-x="663" 
d="M47 -397v106q123 0 174 43t51 199v147q0 162 24 258t54 133q31 37 94 78q-63 43 -94 79t-54 129q-24 93 -24 253v148q0 172 -63 213q-35 23 -68 29t-94 5v107h49q202 0 259 -126q44 -94 44 -225q0 -356 31 -433q12 -30 37 -60t57 -42q32 -11 84 -21v-113
q-143 -25 -176 -119t-33 -397q0 -68 -2 -108t-18 -101t-46 -95t-90 -61t-147 -26h-49z" />
    <glyph glyph-name="asciitilde" unicode="~" horiz-adv-x="1366" 
d="M436 883q86 0 258 -79t240 -79q125 0 289 135v-121q-166 -121 -277 -121q-68 0 -131 20t-189 80q-126 58 -192 58q-123 0 -291 -135v121q154 121 293 121z" />
    <glyph glyph-name="exclamdown" unicode="&#xa1;" horiz-adv-x="512" 
d="M344 1087v-204h-176v204h176zM199 666h114l23 -1035h-160z" />
    <glyph glyph-name="cent" unicode="&#xa2;" horiz-adv-x="876" 
d="M502 893q-152 0 -224 -120t-73 -307q0 -187 104 -300l252 721q-37 6 -59 6zM510 84q62 0 120 24t88 48t77 63v-139q-135 -102 -299 -103q-84 0 -152 29l-151 -432h-91l166 473q-195 135 -194 438q0 217 110 366q111 148 316 148q49 0 96 -10l180 512h88l-186 -538
q45 -23 104 -68v-139q-80 76 -139 106l-262 -751q67 -27 129 -27z" />
    <glyph glyph-name="sterling" unicode="&#xa3;" horiz-adv-x="1171" 
d="M805 829v-110h-291q27 -139 27 -224t-36 -167t-71 -122t-86 -85q86 35 164 35t208 -28t167 -28q82 0 196 66v-129q-115 -66 -174 -66t-221 34t-223 34q-115 0 -266 -68v129q104 106 155 194q52 88 52 182q0 95 -33 243h-232v110h205q-6 29 -39 147t-33 202q0 160 116 256
t285 96t322 -103v-151q-51 44 -81 66t-96 47t-140 24q-135 0 -203 -71q-67 -71 -67 -158t58 -278q17 -59 21 -77h316z" />
    <glyph glyph-name="currency" unicode="&#xa4;" horiz-adv-x="1171" 
d="M123 694v113h-119l23 111h108q41 300 199 456t375 156q87 0 165 -27t112 -49t81 -59v-154q-47 49 -80 77t-109 62t-161 33q-186 0 -301 -138t-142 -357h709l-22 -111h-697v-113h676l-22 -110h-644q30 -220 136 -358t305 -138q86 0 164 31q79 31 117 61t91 80v-154
q-172 -135 -378 -135q-137 1 -245 55q-190 96 -279 340q-38 103 -52 218h-129l23 110h96z" />
    <glyph glyph-name="yen" unicode="&#xa5;" horiz-adv-x="1110" 
d="M625 489h422v-110h-422v-379h-136v379h-426v110h426v164l-12 23h-414v110h353l-396 715h154l385 -715l383 715h148l-392 -715h349v-110h-410l-12 -23v-164z" />
    <glyph glyph-name="brokenbar" unicode="&#xa6;" horiz-adv-x="1062" 
d="M584 666h-107v716h107v-716zM584 -362h-107v720h107v-720z" />
    <glyph glyph-name="section" unicode="&#xa7;" horiz-adv-x="1054" 
d="M467 879q-105 -73 -152 -116q-82 -74 -84 -167q0 -71 79 -152t282 -190q88 59 127 90t72 81q64 97 7 199q-43 73 -192 169q-47 31 -139 86zM508 -279q86 1 164 45t78 127t-58 133t-167 110q-258 145 -323 222q-100 119 -100 240t87 202t180 140q-94 68 -148 132
q-53 65 -53 149q0 125 106 217t280 92t347 -125v-150q-55 49 -88 74t-103 53t-136 29q-66 0 -119 -14q-53 -15 -99 -59t-45 -112t59 -118t240 -154t262 -197t80 -207t-60 -190t-204 -167q59 -39 96 -72t73 -90t36 -119q1 -125 -105 -217t-282 -92q-80 1 -155 25t-107 44
t-84 56v151q51 -47 87 -75q35 -28 105 -56t156 -27z" />
    <glyph glyph-name="dieresis" unicode="&#xa8;" 
d="M563 1229h-123v164h123v-164zM242 1229h-123v164h123v-164z" />
    <glyph glyph-name="copyright" unicode="&#xa9;" horiz-adv-x="1691" 
d="M845 1423q-265 0 -453 -188q-188 -189 -187 -455q0 -266 188 -452q189 -186 453 -186t452 186q188 188 189 454q-1 266 -189 454t-453 187zM848 1530q309 0 527 -220t218 -528t-218 -528q-218 -219 -528 -219t-530 218q-219 218 -219 529t220 530q221 218 530 218z
M868 1114q-170 0 -233 -158q-31 -78 -31 -140t3 -97t19 -86t43 -89t77 -66t120 -27q129 0 256 100v-113q-111 -82 -262 -82q-275 0 -348 279q-18 70 -18 145q0 186 98 307t270 121q129 0 250 -82v-112q-117 100 -244 100z" />
    <glyph glyph-name="ordfeminine" unicode="&#xaa;" horiz-adv-x="659" 
d="M139 1022q0 -94 119 -94q92 0 146 46q39 28 47 36v190l-166 -57q-86 -29 -116 -53t-30 -68zM29 1017q0 83 50 127t154 77l183 57q26 8 30 15t5 34q0 111 -142 111q-97 0 -176 -50q-27 -17 -67 -49v117q119 74 251 74q187 0 224 -120q16 -53 16 -122v-440h-84l-16 63
q-95 -75 -201 -75t-167 49q-60 49 -60 132z" />
    <glyph glyph-name="guillemotleft" unicode="&#xab;" horiz-adv-x="1091" 
d="M864 61l-391 471l391 472h158l-391 -472l391 -471h-158zM461 61l-391 471l391 472h157l-391 -472l391 -471h-157z" />
    <glyph glyph-name="logicalnot" unicode="&#xac;" horiz-adv-x="1366" 
d="M143 1036h1080v-573h-107v467h-973v106z" />
    <glyph glyph-name="registered" unicode="&#xae;" horiz-adv-x="927" 
d="M464 1460q-132 0 -226 -93t-94 -226t94 -227t225 -95q131 0 226 94q95 95 95 227t-94 226t-226 94zM463 1530q161 0 275 -113t114 -275t-114 -275t-276 -113t-274 114q-113 114 -112 275q0 163 112 275t275 112zM399 1296v-120h37q104 0 105 65q0 55 -88 55h-54z
M399 1116v-186h-67v426h133q147 0 147 -113q0 -80 -96 -119l119 -194h-72l-112 186h-52z" />
    <glyph glyph-name="macron" unicode="&#xaf;" 
d="M633 1311h-584v110h584v-110z" />
    <glyph glyph-name="degree" unicode="&#xb0;" horiz-adv-x="802" 
d="M227 1262q-1 -72 51 -123t126 -51t122 50q49 50 49 123t-50 123t-123 52q-73 0 -124 -51t-51 -123zM402 993q-110 0 -190 79t-79 191q0 111 79 189q80 78 190 78t189 -79t79 -189t-79 -190q-79 -79 -189 -79z" />
    <glyph glyph-name="plusminus" unicode="&#xb1;" horiz-adv-x="1366" 
d="M143 969h486v485h106v-485h486v-107h-486v-485h-106v485h-486v107zM143 160h1078v-107h-1078v107z" />
    <glyph glyph-name="twosuperior" unicode="&#xb2;" horiz-adv-x="745" 
d="M668 739h-590q8 61 15 88t32 73t74 88t131 97q211 137 211 226q0 43 -38 86t-113 43t-138 -28t-158 -91v113q49 31 82 48q89 46 207 47q119 1 195 -59t75 -157q0 -68 -42 -121t-144 -127q-195 -139 -221 -166t-41 -70h463v-90z" />
    <glyph glyph-name="threesuperior" unicode="&#xb3;" horiz-adv-x="745" 
d="M322 815q112 0 166 43q54 44 54 102t-43 102q-44 44 -147 44h-112v90h61q106 0 165 43q58 43 58 88t-38 79t-117 34q-115 0 -273 -99v109q140 80 272 80t200 -56t67 -126q0 -70 -29 -109t-104 -76q156 -57 155 -198q0 -71 -60 -148q-73 -92 -273 -92q-108 0 -234 59v101
q120 -70 232 -70z" />
    <glyph glyph-name="acute" unicode="&#xb4;" 
d="M334 1200h-101l181 328h188z" />
    <glyph glyph-name="paragraph" unicode="&#xb6;" horiz-adv-x="1234" 
d="M496 -397v1065q-172 6 -271 69q-174 117 -174 350q0 197 133 306t340 108h660v-102h-201v-1796h-123v1796h-242v-1796h-122z" />
    <glyph glyph-name="periodcentered" unicode="&#xb7;" horiz-adv-x="471" 
d="M147 647v205h177v-205h-177z" />
    <glyph glyph-name="cedilla" unicode="&#xb8;" 
d="M420 -244q0 80 -189 80l95 164h84l-54 -94q174 -29 174 -148q0 -78 -66 -116t-161 -39q-94 0 -215 55l37 76q86 -47 176 -47q119 0 119 69z" />
    <glyph glyph-name="onesuperior" unicode="&#xb9;" horiz-adv-x="745" 
d="M193 739v90h149v568q-68 -33 -178 -60v90q96 29 198 89h91v-687h129v-90h-389z" />
    <glyph glyph-name="ordmasculine" unicode="&#xba;" horiz-adv-x="690" 
d="M343 1438q-103 0 -150 -78t-47 -179t48 -177t148 -76t152 71q51 73 51 181t-49 183q-50 75 -153 75zM343 836q-140 0 -224 98t-84 250t85 249t225 97t225 -96t85 -251t-86 -251t-226 -96z" />
    <glyph glyph-name="guillemotright" unicode="&#xbb;" horiz-adv-x="1091" 
d="M227 61h-157l391 471l-391 472h157l391 -472zM631 61h-158l391 471l-391 472h158l391 -472z" />
    <glyph glyph-name="onequarter" unicode="&#xbc;" horiz-adv-x="1714" 
d="M504 -29h-111l842 1559h111zM193 739v90h149v568q-68 -33 -178 -60v90q96 29 198 89h91v-687h129v-90h-389zM1407 276v386l-279 -386h279zM1513 184v-184h-106v184h-403v82l370 510h139v-500h136v-92h-136z" />
    <glyph glyph-name="onehalf" unicode="&#xbd;" horiz-adv-x="1714" 
d="M1636 0h-589q8 61 15 88q23 89 105 161q49 42 131 97q211 137 211 225q0 43 -38 86q-39 43 -113 43t-137 -28t-158 -90v112q49 31 82 48q91 47 208 48q117 2 193 -58t76 -159q0 -69 -42 -121t-190 -158t-175 -134q-26 -27 -41 -70h462v-90zM492 -29h-111l842 1559h110z
M193 739v88h149v570q-68 -33 -178 -60v90q96 29 198 89h91v-689h129v-88h-389z" />
    <glyph glyph-name="threequarters" unicode="&#xbe;" horiz-adv-x="1714" 
d="M1407 276v386l-279 -386h279zM1513 184v-184h-106v184h-403v82l370 510h139v-500h136v-92h-136zM516 -29h-110l841 1559h111zM322 815q112 0 166 43q54 44 54 102t-43 102q-44 44 -147 44h-112v90h61q106 0 165 43q58 43 58 88t-38 79t-117 34q-115 0 -273 -99v109
q140 80 272 80t200 -56t67 -126q0 -70 -29 -109t-104 -76q156 -51 155 -198q0 -71 -60 -148q-73 -92 -273 -92q-108 0 -234 59v101q120 -70 232 -70z" />
    <glyph glyph-name="questiondown" unicode="&#xbf;" horiz-adv-x="837" 
d="M514 1087v-204h-176v204h176zM383 666h115v-80q0 -117 -31 -187t-125 -176q-94 -105 -128 -159t-34 -130q0 -114 73 -164t153 -51q174 0 360 168v-151q-184 -133 -354 -133t-268 95q-99 95 -99 228q0 68 29 134t59 104q31 40 115 136t109 156q26 60 26 210z" />
    <glyph glyph-name="Agrave" unicode="&#xc0;" horiz-adv-x="1210" 
d="M612 1636l-268 328h188l181 -328h-101zM877 537l-275 858l-276 -858h551zM1047 0l-136 424h-620l-137 -424h-134l492 1501h186l492 -1501h-143z" />
    <glyph glyph-name="Aacute" unicode="&#xc1;" horiz-adv-x="1210" 
d="M598 1636h-100l180 328h188zM877 537l-275 858l-276 -858h551zM1047 0l-136 424h-620l-137 -424h-134l492 1501h186l492 -1501h-143z" />
    <glyph glyph-name="Acircumflex" unicode="&#xc2;" horiz-adv-x="1210" 
d="M553 1954h104l254 -318h-84l-221 189l-223 -189h-84zM877 537l-275 858l-276 -858h551zM1047 0l-136 424h-620l-137 -424h-134l492 1501h186l492 -1501h-143z" />
    <glyph glyph-name="Atilde" unicode="&#xc3;" horiz-adv-x="1210" 
d="M734 1675q-63 -1 -132 59q-70 60 -90 72t-51 12q-56 1 -137 -128l-60 41q29 53 52 89q24 36 67 68t99 33q56 0 121 -55q64 -56 88 -72t60 -16t71 42q36 42 65 87l59 -41q-53 -98 -101 -144t-111 -47zM877 537l-275 858l-276 -858h551zM1047 0l-136 424h-620l-137 -424
h-134l492 1501h186l492 -1501h-143z" />
    <glyph glyph-name="Adieresis" unicode="&#xc4;" horiz-adv-x="1210" 
d="M891 1636h-164v164h164v-164zM483 1636h-164v164h164v-164zM877 537l-275 858l-276 -858h551zM1047 0l-136 424h-620l-137 -424h-134l492 1501h186l492 -1501h-143z" />
    <glyph glyph-name="Aring" unicode="&#xc5;" horiz-adv-x="1210" 
d="M607 1651q52 0 89 38t37 90t-38 90t-90 38t-90 -37t-38 -90t39 -91t91 -38zM604 1577q-84 0 -142 59q-58 58 -58 142t58 143q60 59 144 59t142 -59t59 -143q0 -84 -59 -143q-60 -58 -144 -58zM877 537l-275 858l-276 -858h551zM1047 0l-136 424h-620l-137 -424h-134
l492 1501h186l492 -1501h-143z" />
    <glyph glyph-name="AE" unicode="&#xc6;" horiz-adv-x="1744" 
d="M858 586v798h-74l-358 -798h432zM1645 1501v-117h-652v-555h561v-112h-561v-600h701v-117h-836v473h-485l-207 -473h-146l685 1501h940z" />
    <glyph glyph-name="Ccedilla" unicode="&#xc7;" horiz-adv-x="1249" 
d="M887 -242q0 -78 -67 -116t-164 -39q-97 0 -212 55l37 76q86 -47 174 -47q121 0 121 69q0 51 -60 65q-60 15 -128 15l78 137q-156 12 -271 88t-177 193q-120 226 -120 494q0 340 169 561t460 221q223 0 418 -148v-153q-55 51 -94 82t-128 67t-190 35q-237 0 -365 -183
t-128 -476q0 -152 36 -278q36 -125 85 -202q51 -76 147 -131t210 -55t206 34t135 64t106 86v-153q-53 -41 -90 -64t-128 -51t-197 -33l-37 -65q174 -31 174 -148z" />
    <glyph glyph-name="Egrave" unicode="&#xc8;" horiz-adv-x="1116" 
d="M627 1636l-269 328h189l180 -328h-100zM193 0v1501h823v-117h-688v-555h598v-112h-598v-600h737v-117h-872z" />
    <glyph glyph-name="Eacute" unicode="&#xc9;" horiz-adv-x="1116" 
d="M551 1636h-100l180 328h188zM193 0v1501h823v-117h-688v-555h598v-112h-598v-600h737v-117h-872z" />
    <glyph glyph-name="Ecircumflex" unicode="&#xca;" horiz-adv-x="1116" 
d="M567 1954h105l254 -318h-84l-221 189l-224 -189h-84zM193 0v1501h823v-117h-688v-555h598v-112h-598v-600h737v-117h-872z" />
    <glyph glyph-name="Edieresis" unicode="&#xcb;" horiz-adv-x="1116" 
d="M897 1636h-164v164h164v-164zM492 1636h-164v164h164v-164zM193 0v1501h823v-117h-688v-555h598v-112h-598v-600h737v-117h-872z" />
    <glyph glyph-name="Igrave" unicode="&#xcc;" horiz-adv-x="520" 
d="M268 1636l-268 328h188l181 -328h-101zM193 0v1501h135v-1501h-135z" />
    <glyph glyph-name="Iacute" unicode="&#xcd;" horiz-adv-x="520" 
d="M254 1636h-100l180 328h188zM193 0v1501h135v-1501h-135z" />
    <glyph glyph-name="Icircumflex" unicode="&#xce;" horiz-adv-x="520" 
d="M209 1954h104l254 -318h-84l-221 189l-223 -189h-84zM193 0v1501h135v-1501h-135z" />
    <glyph glyph-name="Idieresis" unicode="&#xcf;" horiz-adv-x="520" 
d="M545 1636h-164v164h164v-164zM139 1636h-164v164h164v-164zM193 0v1501h135v-1501h-135z" />
    <glyph glyph-name="Eth" unicode="&#xd0;" horiz-adv-x="1361" 
d="M328 1384v-585h350v-97h-350v-585h256q278 0 408 167t130 477q0 452 -304 582q-96 41 -222 41h-268zM193 1501h417q318 0 486 -204t168 -534t-148 -538q-76 -105 -207 -165t-309 -60h-407v702h-158v97h158v702z" />
    <glyph glyph-name="Ntilde" unicode="&#xd1;" horiz-adv-x="1452" 
d="M855 1675q-63 -1 -133 59t-89 72q-20 12 -52 12t-63 -30q-31 -31 -74 -98l-59 41q29 53 52 89q24 36 67 68q44 32 100 33q56 0 120 -55q64 -56 88 -72t60 -16t71 42q36 42 65 87l59 -41q-53 -98 -101 -144t-111 -47zM328 0h-135v1501h210l721 -1325v1325h136v-1501h-183
l-749 1376v-1376z" />
    <glyph glyph-name="Ograve" unicode="&#xd2;" horiz-adv-x="1421" 
d="M719 1636l-268 328h188l180 -328h-100zM1182 745q0 287 -125 477t-347 191q-222 0 -346 -189q-124 -190 -124 -486t132 -473t345 -177t339 185t126 472zM711 -29q-279 -1 -446 221t-167 557t167 558t446 223t445 -224t167 -552q0 -205 -67 -379q-68 -174 -210 -289
t-335 -115z" />
    <glyph glyph-name="Oacute" unicode="&#xd3;" horiz-adv-x="1421" 
d="M705 1636h-101l180 328h189zM1182 745q0 287 -125 477t-347 191q-222 0 -346 -189q-124 -190 -124 -486t132 -473t345 -177t339 185t126 472zM711 -29q-279 -1 -446 221t-167 557t167 558t446 223t445 -224t167 -552q0 -205 -67 -379q-68 -174 -210 -289t-335 -115z" />
    <glyph glyph-name="Ocircumflex" unicode="&#xd4;" horiz-adv-x="1421" 
d="M659 1954h105l254 -318h-84l-221 189l-224 -189h-83zM1182 745q0 287 -125 477t-347 191q-222 0 -346 -189q-124 -190 -124 -486t132 -473t345 -177t339 185t126 472zM711 -29q-279 -1 -446 221t-167 557t167 558t446 223t445 -224t167 -552q0 -205 -67 -379
q-68 -174 -210 -289t-335 -115z" />
    <glyph glyph-name="Otilde" unicode="&#xd5;" horiz-adv-x="1421" 
d="M840 1675q-62 -1 -132 59t-90 72q-60 35 -113 -18q-32 -31 -75 -98l-59 41q29 53 52 89q25 36 67 68t99 33q57 0 121 -55q64 -56 88 -72t60 -16t69 40q34 40 66 89l60 -41q-53 -98 -101 -144q-50 -46 -112 -47zM1182 745q0 287 -125 477t-347 191q-222 0 -346 -189
q-124 -190 -124 -486t132 -473t345 -177t339 185t126 472zM711 -29q-279 -1 -446 221t-167 557t167 558t446 223t445 -224t167 -552q0 -205 -67 -379q-68 -174 -210 -289t-335 -115z" />
    <glyph glyph-name="Odieresis" unicode="&#xd6;" horiz-adv-x="1421" 
d="M995 1636h-164v164h164v-164zM590 1636h-164v164h164v-164zM1182 745q0 287 -125 477t-347 191q-222 0 -346 -189q-124 -190 -124 -486t132 -473t345 -177t339 185t126 472zM711 -29q-279 -1 -446 221t-167 557t167 558t446 223t445 -224t167 -552q0 -205 -67 -379
q-68 -174 -210 -289t-335 -115z" />
    <glyph glyph-name="multiply" unicode="&#xd7;" horiz-adv-x="1366" 
d="M266 1243l416 -416l416 416l76 -78l-414 -415l414 -414l-76 -78l-416 416l-416 -416l-76 78l416 414l-416 415z" />
    <glyph glyph-name="Oslash" unicode="&#xd8;" horiz-adv-x="1421" 
d="M717 88q213 0 339 185t126 470q0 222 -78 398l-737 -871q137 -182 350 -182zM711 1413q-153 0 -261 -93q-210 -180 -210 -568q-1 -232 75 -394l738 871q-131 184 -342 184zM1323 750q0 -203 -67 -376q-68 -173 -210 -288t-335 -115q-260 0 -428 201l-170 -201l-74 64
l184 217q-125 206 -125 518t167 536t435 224t437 -201l172 201l73 -64l-186 -217q127 -207 127 -499z" />
    <glyph glyph-name="Ugrave" unicode="&#xd9;" horiz-adv-x="1409" 
d="M713 1636l-269 328h189l180 -328h-100zM1241 1501v-964q0 -281 -148 -423t-387 -142t-389 140q-150 142 -149 427v962h135v-942q0 -471 401 -471t402 471v942h135z" />
    <glyph glyph-name="Uacute" unicode="&#xda;" horiz-adv-x="1409" 
d="M698 1636h-100l180 328h189zM1241 1501v-964q0 -281 -148 -423t-387 -142t-389 140q-150 142 -149 427v962h135v-942q0 -471 401 -471t402 471v942h135z" />
    <glyph glyph-name="Ucircumflex" unicode="&#xdb;" horiz-adv-x="1409" 
d="M653 1954h105l254 -318h-84l-221 189l-224 -189h-84zM1241 1501v-964q0 -281 -148 -423t-387 -142t-389 140q-150 142 -149 427v962h135v-942q0 -471 401 -471t402 471v942h135z" />
    <glyph glyph-name="Udieresis" unicode="&#xdc;" horiz-adv-x="1409" 
d="M989 1636h-164v164h164v-164zM584 1636h-164v164h164v-164zM1241 1501v-964q0 -281 -148 -423t-387 -142t-389 140q-150 142 -149 427v962h135v-942q0 -471 401 -471t402 471v942h135z" />
    <glyph glyph-name="Yacute" unicode="&#xdd;" horiz-adv-x="1110" 
d="M549 1636h-100l180 328h188zM623 0h-136v653l-467 848h154l385 -719l387 719h144l-467 -848v-653z" />
    <glyph glyph-name="Thorn" unicode="&#xde;" horiz-adv-x="1220" 
d="M328 1047v-592h276q148 0 263 55q65 32 103 96t38 154q0 287 -383 287h-297zM193 1501h135v-338h313q374 0 475 -227q33 -74 33 -172q0 -207 -152 -317t-381 -109h-288v-338h-135v1501z" />
    <glyph glyph-name="germandbls" unicode="&#xdf;" horiz-adv-x="1097" 
d="M659 84q98 0 166 84t68 252q0 375 -426 375v104q340 0 340 246q0 115 -68 183q-69 68 -189 67q-120 0 -190 -87t-69 -290v-1018h-123v1004q0 268 112 382t288 115q176 0 274 -107q96 -108 96 -237t-62 -203t-135 -96q106 -27 195 -138q88 -112 88 -300t-100 -316
t-259 -126q-159 0 -270 102v147q121 -143 264 -143z" />
    <glyph glyph-name="agrave" unicode="&#xe0;" horiz-adv-x="987" 
d="M502 1200l-269 328h189l180 -328h-100zM205 259q0 -77 50 -126q49 -49 149 -49t172 38t149 109v369q-23 -20 -104 -49l-179 -62q-143 -51 -190 -102t-47 -128zM389 -23q-137 0 -226 73t-89 199q0 125 66 197t237 129l282 95q37 12 52 27q14 15 14 46v41q0 197 -238 197
q-81 0 -157 -28q-76 -27 -112 -51t-89 -66v139q179 113 365 113t270 -86q84 -85 84 -293v-709h-96l-27 119q-45 -41 -77 -65t-104 -50t-155 -27z" />
    <glyph glyph-name="aacute" unicode="&#xe1;" horiz-adv-x="987" 
d="M487 1200h-100l180 328h189zM205 259q0 -77 50 -126q49 -49 149 -49t172 38t149 109v369q-23 -20 -104 -49l-179 -62q-143 -51 -190 -102t-47 -128zM389 -23q-137 0 -226 73t-89 199q0 125 66 197t237 129l282 95q37 12 52 27q14 15 14 46v41q0 197 -238 197
q-81 0 -157 -28q-76 -27 -112 -51t-89 -66v139q179 113 365 113t270 -86q84 -85 84 -293v-709h-96l-27 119q-45 -41 -77 -65t-104 -50t-155 -27z" />
    <glyph glyph-name="acircumflex" unicode="&#xe2;" horiz-adv-x="987" 
d="M442 1518h105l254 -318h-84l-221 189l-224 -189h-84zM205 259q0 -77 50 -126q49 -49 149 -49t172 38t149 109v369q-23 -20 -104 -49l-179 -62q-143 -51 -190 -102t-47 -128zM389 -23q-137 0 -226 73t-89 199q0 125 66 197t237 129l282 95q37 12 52 27q14 15 14 46v41
q0 197 -238 197q-81 0 -157 -28q-76 -27 -112 -51t-89 -66v139q179 113 365 113t270 -86q84 -85 84 -293v-709h-96l-27 119q-45 -41 -77 -65t-104 -50t-155 -27z" />
    <glyph glyph-name="atilde" unicode="&#xe3;" horiz-adv-x="987" 
d="M624 1239q-62 -1 -132 59t-90 72t-52 12q-30 0 -62 -30t-75 -99l-59 41q29 53 52 89q24 36 66 69q44 33 100 33q56 1 120 -55t89 -72q68 -45 132 25q32 40 63 87l60 -40q-54 -98 -102 -144t-110 -47zM205 259q0 -77 50 -126q49 -49 149 -49t172 38t149 109v369
q-23 -20 -104 -49l-179 -62q-143 -51 -190 -102t-47 -128zM389 -23q-137 0 -226 73t-89 199q0 125 66 197t237 129l282 95q37 12 52 27q14 15 14 46v41q0 197 -238 197q-81 0 -157 -28q-76 -27 -112 -51t-89 -66v139q179 113 365 113t270 -86q84 -85 84 -293v-709h-96
l-27 119q-45 -41 -77 -65t-104 -50t-155 -27z" />
    <glyph glyph-name="adieresis" unicode="&#xe4;" horiz-adv-x="987" 
d="M717 1229h-123v164h123v-164zM395 1229h-123v164h123v-164zM205 259q0 -77 50 -126q49 -49 149 -49t172 38t149 109v369q-23 -20 -104 -49l-179 -62q-143 -51 -190 -102t-47 -128zM389 -23q-137 0 -226 73t-89 199q0 125 66 197t237 129l282 95q37 12 52 27q14 15 14 46
v41q0 197 -238 197q-81 0 -157 -28q-76 -27 -112 -51t-89 -66v139q179 113 365 113t270 -86q84 -85 84 -293v-709h-96l-27 119q-45 -41 -77 -65t-104 -50t-155 -27z" />
    <glyph glyph-name="aring" unicode="&#xe5;" horiz-adv-x="987" 
d="M612 1371q0 50 -34 83q-35 33 -84 33t-83 -34t-34 -83t34 -84t82 -35t84 35q35 35 35 85zM686 1370q0 -80 -55 -136t-135 -56t-137 57q-56 57 -56 136t56 134q57 55 137 55t135 -54q55 -56 55 -136zM205 259q0 -77 50 -126q49 -49 149 -49t172 38t149 109v369
q-23 -20 -104 -49l-179 -62q-143 -51 -190 -102t-47 -128zM389 -23q-137 0 -226 73t-89 199q0 125 66 197t237 129l282 95q37 12 52 27q14 15 14 46v41q0 197 -238 197q-81 0 -157 -28q-76 -27 -112 -51t-89 -66v139q179 113 365 113t270 -86q84 -85 84 -293v-709h-96
l-27 119q-45 -41 -77 -65t-104 -50t-155 -27z" />
    <glyph glyph-name="ae" unicode="&#xe6;" horiz-adv-x="1632" 
d="M1151 981q-127 1 -212 -97t-103 -241h594q-47 338 -279 338zM205 260q0 -76 43 -126t129 -50q142 0 256 85q39 30 119 101q-41 128 -43 267q-270 -29 -387 -99t-117 -178zM1563 541h-734q0 -189 87 -323t272 -134q92 0 164 36t157 107v-139q-166 -111 -329 -111
q-262 0 -389 213q-74 -72 -118 -108t-126 -71q-82 -34 -174 -34q-145 0 -222 81t-77 198q0 326 633 383v133q1 90 -49 150t-187 59q-77 0 -149 -27q-72 -28 -108 -52t-85 -66v139q166 113 350 112q264 0 328 -223q117 223 350 223q109 0 191 -49q143 -85 193 -305
q22 -92 22 -192z" />
    <glyph glyph-name="ccedilla" unicode="&#xe7;" horiz-adv-x="917" 
d="M476 -397q-97 0 -212 55l37 76q86 -47 174 -47q121 0 121 69q0 52 -61 66t-127 14l81 144q-113 12 -197 67t-129 136q-91 160 -89 347q0 238 123 398t344 159q166 0 311 -112v-139q-47 44 -78 68q-32 24 -96 50t-144 27q-80 0 -150 -41q-118 -70 -162 -251
q-17 -75 -17 -154q0 -197 88 -324t254 -127q73 0 139 27t98 51t82 65v-139q-131 -97 -293 -111l-41 -71q174 -31 175 -148q0 -78 -67 -116t-164 -39z" />
    <glyph glyph-name="egrave" unicode="&#xe8;" horiz-adv-x="1017" 
d="M516 1200l-268 328h188l180 -328h-100zM524 981q-133 -1 -219 -103t-94 -235h604q-23 162 -90 246q-29 35 -81 63t-120 29zM205 541q0 -209 93 -333t259 -124q96 0 171 36t167 107v-139q-172 -111 -346 -111q-221 0 -348 153q-127 154 -127 404t128 402t320 151
q104 -1 184 -39t122 -96q112 -148 120 -411h-743z" />
    <glyph glyph-name="eacute" unicode="&#xe9;" horiz-adv-x="1017" 
d="M502 1200h-101l181 328h188zM524 981q-133 -1 -219 -103t-94 -235h604q-23 162 -90 246q-29 35 -81 63t-120 29zM205 541q0 -209 93 -333t259 -124q96 0 171 36t167 107v-139q-172 -111 -346 -111q-221 0 -348 153q-127 154 -127 404t128 402t320 151q104 -1 184 -39
t122 -96q112 -148 120 -411h-743z" />
    <glyph glyph-name="ecircumflex" unicode="&#xea;" horiz-adv-x="1017" 
d="M457 1518h104l254 -318h-84l-221 189l-223 -189h-84zM524 981q-133 -1 -219 -103t-94 -235h604q-23 162 -90 246q-29 35 -81 63t-120 29zM205 541q0 -209 93 -333t259 -124q96 0 171 36t167 107v-139q-172 -111 -346 -111q-221 0 -348 153q-127 154 -127 404t128 402
t320 151q104 -1 184 -39t122 -96q112 -148 120 -411h-743z" />
    <glyph glyph-name="edieresis" unicode="&#xeb;" horiz-adv-x="1017" 
d="M731 1229h-123v164h123v-164zM410 1229h-123v164h123v-164zM524 981q-133 -1 -219 -103t-94 -235h604q-23 162 -90 246q-29 35 -81 63t-120 29zM205 541q0 -209 93 -333t259 -124q96 0 171 36t167 107v-139q-172 -111 -346 -111q-221 0 -348 153q-127 154 -127 404
t128 402t320 151q104 -1 184 -39t122 -96q112 -148 120 -411h-743z" />
    <glyph glyph-name="igrave" unicode="&#xec;" horiz-adv-x="458" 
d="M238 1200l-269 328h189l180 -328h-100zM291 0h-123v1065h123v-1065z" />
    <glyph glyph-name="iacute" unicode="&#xed;" horiz-adv-x="458" 
d="M223 1200h-100l180 328h189zM291 0h-123v1065h123v-1065z" />
    <glyph glyph-name="icircumflex" unicode="&#xee;" horiz-adv-x="458" 
d="M178 1518h105l254 -318h-84l-222 189l-223 -189h-84zM291 0h-123v1065h123v-1065z" />
    <glyph glyph-name="idieresis" unicode="&#xef;" horiz-adv-x="458" 
d="M453 1229h-123v164h123v-164zM131 1229h-123v164h123v-164zM291 0h-123v1065h123v-1065z" />
    <glyph glyph-name="eth" unicode="&#xf0;" horiz-adv-x="1062" 
d="M530 981q-162 0 -244 -132q-82 -131 -81 -319q0 -188 82 -317t236 -129t245 117q90 117 90 348t-133 358q-78 74 -195 74zM989 510q0 -250 -135 -391t-333 -141q-199 0 -323 155q-124 156 -124 408t132 399t316 147q129 0 236 -86q-70 152 -172 285l-180 -110l-39 63
l170 107q-84 92 -164 155h151q62 -53 105 -100l159 100l39 -63l-149 -92q129 -158 220 -372t91 -464z" />
    <glyph glyph-name="ntilde" unicode="&#xf1;" horiz-adv-x="1132" 
d="M695 1239q-63 -1 -132 59t-89 72t-53 12q-32 0 -63 -30t-73 -99l-60 41q29 53 53 89t66 69q44 33 100 33q56 1 120 -55t88 -72q68 -45 132 25q37 45 64 87l59 -40q-53 -98 -101 -144t-111 -47zM854 0v713q0 125 -38 193t-160 67q-122 0 -365 -160v-813h-123v1065h123
v-143q241 166 395 166t222 -99q68 -98 69 -248v-741h-123z" />
    <glyph glyph-name="ograve" unicode="&#xf2;" horiz-adv-x="1062" 
d="M539 1200l-269 328h189l180 -328h-100zM532 981q-116 0 -192 -71q-138 -128 -135 -378q0 -190 82 -319q83 -129 243 -129t244 126t84 348t-133 349q-78 74 -193 74zM526 -23q-204 0 -328 157t-124 403q0 247 127 399t331 152t330 -154q127 -152 127 -404t-129 -402
t-334 -151z" />
    <glyph glyph-name="oacute" unicode="&#xf3;" horiz-adv-x="1062" 
d="M524 1200h-100l180 328h189zM532 981q-116 0 -192 -71q-138 -128 -135 -378q0 -190 82 -319q83 -129 243 -129t244 126t84 348t-133 349q-78 74 -193 74zM526 -23q-204 0 -328 157t-124 403q0 247 127 399t331 152t330 -154q127 -152 127 -404t-129 -402t-334 -151z" />
    <glyph glyph-name="ocircumflex" unicode="&#xf4;" horiz-adv-x="1062" 
d="M479 1518h105l254 -318h-84l-222 189l-223 -189h-84zM532 981q-116 0 -192 -71q-138 -128 -135 -378q0 -190 82 -319q83 -129 243 -129t244 126t84 348t-133 349q-78 74 -193 74zM526 -23q-204 0 -328 157t-124 403q0 247 127 399t331 152t330 -154q127 -152 127 -404
t-129 -402t-334 -151z" />
    <glyph glyph-name="otilde" unicode="&#xf5;" horiz-adv-x="1062" 
d="M660 1239q-62 -1 -132 59t-90 72t-51 12t-63 -30t-74 -99l-60 41q29 53 53 89t66 69q43 33 99 33q56 1 122 -55q64 -56 88 -72q68 -46 132 25q32 40 63 87l59 -40q-53 -98 -101 -144q-49 -46 -111 -47zM532 981q-116 0 -192 -71q-138 -128 -135 -378q0 -190 82 -319
q83 -129 243 -129t244 126t84 348t-133 349q-78 74 -193 74zM526 -23q-204 0 -328 157t-124 403q0 247 127 399t331 152t330 -154q127 -152 127 -404t-129 -402t-334 -151z" />
    <glyph glyph-name="odieresis" unicode="&#xf6;" horiz-adv-x="1062" 
d="M754 1229h-123v164h123v-164zM432 1229h-123v164h123v-164zM532 981q-116 0 -192 -71q-138 -128 -135 -378q0 -190 82 -319q83 -129 243 -129t244 126t84 348t-133 349q-78 74 -193 74zM526 -23q-204 0 -328 157t-124 403q0 247 127 399t331 152t330 -154
q127 -152 127 -404t-129 -402t-334 -151z" />
    <glyph glyph-name="divide" unicode="&#xf7;" horiz-adv-x="1366" 
d="M756 399v-145h-146v145h146zM756 1247v-145h-146v145h146zM143 805h1080v-109h-1080v109z" />
    <glyph glyph-name="oslash" unicode="&#xf8;" horiz-adv-x="1062" 
d="M526 979q-152 0 -236 -126t-85 -290q0 -164 47 -287l514 590q-88 113 -240 113zM538 84q148 0 234 125t86 295t-47 284l-514 -589q93 -115 241 -115zM74 552q0 232 126 384t320 152t324 -132l114 131l64 -59l-125 -141q92 -139 92 -381t-134 -385q-133 -143 -321 -143
t-315 133l-117 -134l-61 60l125 141q-92 143 -92 374z" />
    <glyph glyph-name="ugrave" unicode="&#xf9;" horiz-adv-x="1132" 
d="M573 1200l-268 328h189l180 -328h-101zM442 -23q-143 1 -215 95t-71 252v741h123v-713q0 -143 44 -201t146 -59q158 0 373 150v823h123v-1065h-97l-26 133q-221 -156 -400 -156z" />
    <glyph glyph-name="uacute" unicode="&#xfa;" horiz-adv-x="1132" 
d="M559 1200h-100l180 328h188zM442 -23q-143 1 -215 95t-71 252v741h123v-713q0 -143 44 -201t146 -59q158 0 373 150v823h123v-1065h-97l-26 133q-221 -156 -400 -156z" />
    <glyph glyph-name="ucircumflex" unicode="&#xfb;" horiz-adv-x="1132" 
d="M514 1518h104l254 -318h-84l-221 189l-223 -189h-84zM442 -23q-143 1 -215 95t-71 252v741h123v-713q0 -143 44 -201t146 -59q158 0 373 150v823h123v-1065h-97l-26 133q-221 -156 -400 -156z" />
    <glyph glyph-name="udieresis" unicode="&#xfc;" horiz-adv-x="1132" 
d="M788 1229h-122v164h122v-164zM467 1229h-123v164h123v-164zM442 -23q-143 1 -215 95t-71 252v741h123v-713q0 -143 44 -201t146 -59q158 0 373 150v823h123v-1065h-97l-26 133q-221 -156 -400 -156z" />
    <glyph glyph-name="yacute" unicode="&#xfd;" horiz-adv-x="980" 
d="M483 1200h-100l180 328h189zM956 1065l-448 -1225q-88 -238 -356 -237q-55 0 -117 14v113q57 -20 117 -21q190 0 258 195l30 88l-399 1073h129l334 -905l330 905h122z" />
    <glyph glyph-name="thorn" unicode="&#xfe;" horiz-adv-x="1120" 
d="M593 84q250 0 308 300q14 73 14 153q0 201 -85 323t-230 121q-145 0 -309 -172v-561q73 -80 141 -122t161 -42zM291 -397h-123v1898h123v-575q156 162 339 162t300 -156t117 -397q0 -321 -193 -477q-100 -81 -240 -81q-78 0 -148 29q-70 28 -100 54q-32 26 -75 69v-526z
" />
    <glyph glyph-name="ydieresis" unicode="&#xff;" horiz-adv-x="980" 
d="M713 1229h-123v164h123v-164zM391 1229h-123v164h123v-164zM956 1065l-448 -1225q-88 -238 -356 -237q-55 0 -117 14v113q57 -20 117 -21q190 0 258 195l30 88l-399 1073h129l334 -905l330 905h122z" />
    <glyph glyph-name="dotlessi" unicode="&#x131;" horiz-adv-x="458" 
d="M291 0h-123v1065h123v-1065z" />
    <glyph glyph-name="Lslash" unicode="&#x141;" horiz-adv-x="1032" 
d="M193 1501h135v-678l274 238v-129l-274 -236v-573h673v-123h-808v580l-164 -142v129l164 142v792z" />
    <glyph glyph-name="lslash" unicode="&#x142;" horiz-adv-x="458" 
d="M291 0h-123v643l-164 -137v115l164 135v694l123 51v-643l164 137v-114l-164 -136v-745z" />
    <glyph glyph-name="OE" unicode="&#x152;" horiz-adv-x="1978" 
d="M662 1413q-201 0 -312 -190q-110 -190 -110 -478t113 -473q114 -184 317 -184q422 0 422 680q0 645 -430 645zM1102 1501h776v-117h-651v-555h561v-112h-561v-600h700v-117h-825v256q-74 -139 -177 -212t-259 -73q-258 1 -413 223t-155 554q0 211 65 386q65 176 195 286
t302 110q174 0 284 -82t158 -201v254z" />
    <glyph glyph-name="oe" unicode="&#x153;" horiz-adv-x="1765" 
d="M1286 981q-131 1 -215 -105t-94 -233h586q-45 338 -277 338zM840 524q0 190 -78 323q-78 134 -240 134q-112 0 -186 -70q-134 -126 -131 -379q0 -186 79 -317q78 -131 234 -131t239 125t83 315zM1696 541h-725q1 -117 31 -214t112 -170t190 -73t181 36q72 36 157 107
v-139q-166 -111 -346 -111t-280 113q-47 53 -68 86q-20 33 -41 80q-123 -279 -387 -279q-202 0 -324 156t-122 402q0 245 124 399t324 153q272 0 385 -278q119 279 379 278q316 0 392 -374q18 -84 18 -172z" />
    <glyph glyph-name="Scaron" unicode="&#x160;" horiz-adv-x="1200" 
d="M653 1636h-104l-254 318h84l221 -189l223 189h84zM592 88q176 0 263 87t87 201t-75 186t-291 155q-216 84 -266 126t-88 84q-72 80 -72 214q0 173 126 281t331 108q206 0 392 -127v-154q-55 45 -96 74t-125 59t-172 31q-154 0 -238 -75t-83 -183q1 -66 27 -114
q44 -80 207 -152q50 -23 159 -64q209 -80 304 -179t95 -270t-127 -288q-128 -116 -352 -116t-451 145v153q213 -182 445 -182z" />
    <glyph glyph-name="scaron" unicode="&#x161;" horiz-adv-x="948" 
d="M526 1200h-104l-254 318h84l221 -189l223 189h84zM477 84q117 0 183 52t65 127q0 75 -63 128t-241 118t-249 135q-72 72 -72 182t98 186t267 76q168 0 321 -113v-139q-152 145 -329 145q-111 0 -172 -43q-61 -44 -61 -110t54 -111q56 -45 233 -109t257 -142t80 -203
q0 -124 -102 -205t-286 -81t-360 111v139q190 -143 377 -143z" />
    <glyph glyph-name="Ydieresis" unicode="&#x178;" horiz-adv-x="1110" 
d="M840 1636h-164v164h164v-164zM434 1636h-164v164h164v-164zM625 0h-136v653l-469 848h154l385 -715l383 715h148l-465 -848v-653z" />
    <glyph glyph-name="Zcaron" unicode="&#x17d;" horiz-adv-x="1126" 
d="M616 1636h-104l-254 318h84l221 -189l223 189h84zM86 0v125l813 1259h-749v117h890v-125l-811 -1259h811v-117h-954z" />
    <glyph glyph-name="zcaron" unicode="&#x17e;" horiz-adv-x="905" 
d="M506 1200h-105l-254 318h84l222 -189l223 189h84zM51 0v109l654 849h-623v107h760v-109l-647 -850h657v-106h-801z" />
    <glyph glyph-name="florin" unicode="&#x192;" horiz-adv-x="1032" 
d="M96 -283q74 -1 109 49t71 216l216 981h-177l21 102h178l31 141q37 172 95 248t187 76q86 0 197 -33l-25 -115q-99 33 -161 33t-100 -38t-66 -171l-31 -141h225l-20 -102h-228l-239 -1086q-44 -196 -152 -249t-313 7l27 105q81 -23 155 -23z" />
    <glyph glyph-name="circumflex" unicode="&#x2c6;" 
d="M289 1518h104l254 -318h-84l-221 189l-223 -189h-84z" />
    <glyph glyph-name="caron" unicode="&#x2c7;" 
d="M393 1200h-104l-254 318h84l221 -189l223 189h84z" />
    <glyph glyph-name="breve" unicode="&#x2d8;" 
d="M340 1368q66 0 116 25t66 44t37 50h90q-49 -133 -131 -192q-82 -60 -180 -60q-111 0 -181 60q-71 60 -124 192h90q72 -119 217 -119z" />
    <glyph glyph-name="dotaccent" unicode="&#x2d9;" 
d="M401 1229h-122v164h122v-164z" />
    <glyph glyph-name="ring" unicode="&#x2da;" 
d="M459 1371q0 50 -35 83t-84 33t-83 -34t-34 -83t34 -84t82 -35t84 35t36 85zM532 1370q0 -80 -55 -136t-135 -56t-136 57t-56 136t56 134t136 55t135 -54q55 -56 55 -136z" />
    <glyph glyph-name="ogonek" unicode="&#x2db;" 
d="M299 -140q0 -67 36 -116q35 -49 111 -49t164 55v-104q-104 -66 -213 -66t-161 64q-97 117 -13 381h113q-37 -98 -37 -165z" />
    <glyph glyph-name="tilde" unicode="&#x2dc;" 
d="M470 1239q-62 -1 -132 59t-90 72t-52 12t-63 -30t-74 -99l-59 41q29 53 52 89q24 36 67 69t99 33q56 1 121 -55q64 -56 88 -72q68 -45 132 25q37 45 64 87l59 -40q-53 -98 -101 -144t-111 -47z" />
    <glyph glyph-name="hungarumlaut" unicode="&#x2dd;" 
d="M494 1200h-111l180 328h199zM190 1200h-110l178 328h201z" />
    <glyph glyph-name="mu" unicode="&#x3bc;" horiz-adv-x="1132" 
d="M279 1065v-645q-1 -172 79 -250t189 -78t202 70t93 256v647h123v-1065h-105v123q-104 -145 -297 -146q-76 0 -136 23q-60 22 -86 44t-62 60v-501h-123v1462h123z" />
    <glyph glyph-name="endash" unicode="&#x2013;" horiz-adv-x="1024" 
d="M1036 477h-1048v111h1048v-111z" />
    <glyph glyph-name="emdash" unicode="&#x2014;" horiz-adv-x="2048" 
d="M2060 477h-2072v111h2072v-111z" />
    <glyph glyph-name="quoteleft" unicode="&#x2018;" horiz-adv-x="471" 
d="M324 1235v-205h-177v205l150 295h72l-136 -295h91z" />
    <glyph glyph-name="quoteright" unicode="&#x2019;" horiz-adv-x="471" 
d="M147 1296v205h177v-205l-150 -295h-72l136 295h-91z" />
    <glyph glyph-name="quotesinglbase" unicode="&#x201a;" horiz-adv-x="471" 
d="M147 0v205h177v-205l-150 -295h-72l136 295h-91z" />
    <glyph glyph-name="quotedblleft" unicode="&#x201c;" horiz-adv-x="821" 
d="M324 1235v-205h-177v205l150 295h72l-136 -295h91zM674 1235v-205h-176v205l149 295h72l-135 -295h90z" />
    <glyph glyph-name="quotedblright" unicode="&#x201d;" horiz-adv-x="821" 
d="M498 1296v205h176v-205l-150 -295h-71l135 295h-90zM147 1296v205h177v-205l-150 -295h-72l136 295h-91z" />
    <glyph glyph-name="quotedblbase" unicode="&#x201e;" horiz-adv-x="821" 
d="M498 0v205h176v-205l-150 -295h-71l135 295h-90zM147 0v205h177v-205l-150 -295h-72l136 295h-91z" />
    <glyph glyph-name="dagger" unicode="&#x2020;" horiz-adv-x="1056" 
d="M80 985l405 -27l-26 543h139l-29 -543l408 27v-139l-408 26l39 -1269h-162l39 1269l-405 -26v139z" />
    <glyph glyph-name="daggerdbl" unicode="&#x2021;" horiz-adv-x="1044" 
d="M92 1038l387 -26l-28 489h143l-31 -489l389 26v-137l-389 27l23 -371l-23 -381l389 27v-140l-389 29l31 -489h-143l28 489l-387 -29v140l387 -27l-20 381l20 371l-387 -27v137z" />
    <glyph glyph-name="bullet" unicode="&#x2022;" horiz-adv-x="712" 
d="M356 995q102 1 174 -71t72 -174t-72 -174t-174 -72t-174 72t-72 174t72 174q72 71 174 71z" />
    <glyph glyph-name="ellipsis" unicode="&#x2026;" horiz-adv-x="2048" 
d="M254 0v205h176v-205h-176zM1618 0v205h176v-205h-176zM936 0v205h176v-205h-176z" />
    <glyph glyph-name="perthousand" unicode="&#x2030;" horiz-adv-x="2363" 
d="M1991 698q-103 0 -159 -86t-56 -220t54 -225t158 -91t159 88q57 88 57 226t-56 223t-157 85zM1989 -14q-160 0 -243 112t-83 287q0 176 82 291t238 115q157 0 245 -111t88 -291q0 -104 -28 -190q-28 -85 -106 -149q-76 -64 -193 -64zM1245 698q-103 0 -159 -86t-56 -220
t54 -225t158 -91t160 88t56 226t-55 223q-56 85 -158 85zM1243 -14q-160 0 -243 112q-82 112 -82 287q0 176 81 291q82 115 238 115t245 -111t89 -291q0 -227 -134 -340q-77 -63 -194 -63zM442 -29h-108l840 1559h110zM367 1530q157 0 245 -111t88 -283t-80 -292t-243 -119
q-164 0 -248 113q-84 114 -84 288t83 289t239 115zM372 1440q-100 0 -156 -87t-56 -223t54 -225q54 -90 158 -90t158 88q56 88 56 226q0 139 -56 225t-158 86z" />
    <glyph glyph-name="guilsinglleft" unicode="&#x2039;" horiz-adv-x="688" 
d="M461 61l-391 471l391 472h157l-391 -472l391 -471h-157z" />
    <glyph glyph-name="guilsinglright" unicode="&#x203a;" horiz-adv-x="688" 
d="M227 61h-157l391 471l-391 472h157l391 -472z" />
    <glyph glyph-name="fraction" unicode="&#x2044;" horiz-adv-x="223" 
d="M-254 -29h-111l842 1559h111z" />
    <glyph glyph-name="trademark" unicode="&#x2122;" horiz-adv-x="1589" 
d="M807 866h-90v635h147l164 -520l158 520h143v-635h-92v533l-164 -533h-94l-172 541v-541zM387 1411v-545h-98v545h-209v90h516v-90h-209z" />
    <glyph glyph-name="minus" unicode="&#x2212;" horiz-adv-x="1366" 
d="M143 803h1080v-107h-1080v107z" />
    </font>
</defs>
</svg>
