<?xml version="1.0" standalone="no"?>
<!DOCTYPE svg PUBLIC "-//W3C//DTD SVG 1.1//EN" "http://www.w3.org/Graphics/SVG/1.1/DTD/svg11.dtd" >
<svg xmlns="http://www.w3.org/2000/svg">
<metadata>
Created by FontPrep 20130207 at Wed Sep 17 16:38:31 2014
 By CJ
SAS Scandinavian is a trademark of Scandinavian Airlines System.
</metadata>
<defs>
<font id="c3343040f0c7e3d53df8b152ede27c06" horiz-adv-x='1024' >
  <font-face 
    font-family="Scandinavian-Italic"
    font-weight="500"
    font-style="italic"
    font-stretch="normal"
    units-per-em="2048"
    panose-1="2 0 6 3 0 0 0 0 0 0"
    ascent="1554"
    descent="-494"
    x-height="1065"
    cap-height="1501"
    bbox="-489 -512 2439.01 1995"
    underline-thickness="102"
    underline-position="-205"
    slope="-11"
    unicode-range="U+0020-FFFD"
  />
<missing-glyph horiz-adv-x="440" 
 />
    <glyph glyph-name="fi" unicode="fi" horiz-adv-x="1067" 
d="M1004 1065l-207 -1065h-156l207 1065h156zM1071 1417l-37 -194h-157l38 194h156zM645 1358q-88 0 -118 -38t-46 -126l-24 -129h196l-22 -131h-199l-182 -934h-156l180 934h-161l26 131h162l31 156q29 143 96 212q68 69 229 68q55 0 121 -8l-28 -141q-74 6 -105 6z" />
    <glyph glyph-name="fl" unicode="fl" horiz-adv-x="1103" 
d="M1085 1501l-290 -1501h-156l291 1501h155zM645 1358q-88 0 -118 -38t-46 -126l-24 -129h196l-22 -131h-199l-182 -934h-156l180 934h-161l26 131h162l31 156q29 143 96 212q68 69 229 68q55 0 121 -8l-28 -141q-74 6 -105 6z" />
    <glyph glyph-name=".notdef" unicode="&#xfffd;" horiz-adv-x="440" 
 />
    <glyph glyph-name=".null" horiz-adv-x="0" 
 />
    <glyph glyph-name="nonmarkingreturn" 
 />
    <glyph glyph-name="space" unicode=" " horiz-adv-x="440" 
 />
    <glyph glyph-name="exclam" unicode="!" horiz-adv-x="501" 
d="M291 248l-49 -248h-209l49 248h209zM297 455h-150l187 1046h184z" />
    <glyph glyph-name="quotedbl" unicode="&#x22;" horiz-adv-x="757" 
d="M553 999l20 267l48 235h170l-46 -235l-81 -267h-111zM211 999l22 267l46 235h172l-48 -235l-81 -267h-111z" />
    <glyph glyph-name="numbersign" unicode="#" horiz-adv-x="1366" 
d="M954 928h-407l-76 -359h410zM111 1063h327l94 438h136l-95 -438h408l92 438h135l-92 -438h197v-135h-223l-74 -359h297v-135h-324l-94 -434h-135l94 434h-412l-90 -434h-135l90 434h-196v135h225l76 359h-301v135z" />
    <glyph glyph-name="dollar" unicode="$" horiz-adv-x="1183" 
d="M578 887l90 459q-176 -22 -237 -137q-26 -48 -27 -114q0 -65 40 -110t134 -98zM860 397q0 79 -38 133t-144 109l-100 -510q114 6 198 75t84 193zM1024 417q0 -322 -306 -416q-79 -24 -169 -28l-41 -211h-148l41 218q-186 25 -352 131l35 182q94 -80 167 -115t179 -49
l113 580q-168 92 -236 175q-67 83 -67 215t92 250q49 62 142 103t222 49l23 109h147l-22 -117q164 -31 295 -125l-39 -180q-131 131 -285 155l-102 -524q175 -96 243 -186t68 -216z" />
    <glyph glyph-name="percent" unicode="%" horiz-adv-x="1759" 
d="M1559 506q0 176 -140 176q-89 0 -155 -77q-119 -140 -117 -339q0 -172 137 -172q125 0 200 134t75 278zM1690 507q0 -282 -180 -436q-97 -85 -227 -85t-199 81t-68 205q0 181 94 339q47 79 128 129q80 50 198 50t186 -81q68 -82 68 -202zM395 -29h-133l1147 1559h133z
M795 1245q0 -278 -179 -435q-96 -85 -227 -85t-200 80t-69 201q0 120 41 234q40 114 136 202t230 88t201 -82t67 -203zM664 1245q0 176 -138 176q-90 -1 -156 -77q-118 -135 -118 -340q0 -170 139 -170q125 0 199 133t74 278z" />
    <glyph glyph-name="ampersand" unicode="&#x26;" horiz-adv-x="1347" 
d="M217 344q0 -102 78 -162t188 -61q177 0 316 139l-252 467q-172 -98 -251 -189q-79 -92 -79 -194zM887 1266q0 52 -38 90q-38 39 -111 39t-128 -67t-55 -155t70 -221q90 59 176 135t86 179zM459 -29q-123 0 -210 39q-87 38 -128 100q-76 114 -76 236q1 160 107 281
t321 237q-82 190 -82 297q0 147 98 258t249 111t232 -78t81 -198t-86 -223q-87 -103 -267 -216l228 -418q86 109 174 299h170q-113 -266 -266 -444l137 -252h-203l-66 123q-182 -152 -413 -152z" />
    <glyph glyph-name="quotesingle" unicode="'" horiz-adv-x="417" 
d="M211 999l22 267l46 235h172l-48 -235l-81 -267h-111z" />
    <glyph glyph-name="parenleft" unicode="(" horiz-adv-x="671" 
d="M475 -397h-186q-225 324 -226 714q0 434 248 822q121 190 346 391h205q-94 -82 -159 -148t-157 -188q-308 -409 -306 -899q0 -166 43 -313t85 -218t107 -161z" />
    <glyph glyph-name="parenright" unicode=")" horiz-adv-x="671" 
d="M412 838q0 166 -44 314t-84 217t-108 161h184q227 -324 228 -715q0 -434 -248 -821q-121 -190 -346 -391h-207q329 285 477 591t148 644z" />
    <glyph glyph-name="asterisk" unicode="*" horiz-adv-x="950" 
d="M487 1079l-352 -37v158l357 -41l-213 291l137 80l141 -336l145 336l136 -80l-213 -297l360 47v-158l-358 39l213 -290l-138 -78l-143 325l-143 -323l-140 76z" />
    <glyph glyph-name="plus" unicode="+" horiz-adv-x="1366" 
d="M162 821h477v479h143v-479h480v-143h-480v-477h-143v477h-477v143z" />
    <glyph glyph-name="comma" unicode="," horiz-adv-x="518" 
d="M311 256l-47 -244l-209 -303h-116l190 291h-88l49 256h221z" />
    <glyph glyph-name="hyphen" unicode="-" horiz-adv-x="718" 
d="M608 453h-528l31 159h528z" />
    <glyph glyph-name="period" unicode="." horiz-adv-x="518" 
d="M313 256l-49 -256h-221l49 256h221z" />
    <glyph glyph-name="slash" unicode="/" horiz-adv-x="870" 
d="M53 0h-166l990 1501h167z" />
    <glyph glyph-name="zero" unicode="0" horiz-adv-x="1183" 
d="M993 953q0 425 -258 425q-123 0 -221 -92q-165 -155 -235 -513q-29 -141 -29 -293t66 -254t188 -103q121 0 217 87t153 220q57 134 88 280t31 243zM1169 991q0 -354 -158 -674q-77 -153 -210 -249t-297 -97q-100 0 -179 37t-125 93t-86 157t-40 261q0 331 148 647
q75 159 210 261t307 103q215 0 323 -156t107 -383z" />
    <glyph glyph-name="one" unicode="1" horiz-adv-x="1183" 
d="M899 1501l-262 -1349h225l-31 -152h-622l31 152h227l219 1134q-139 -68 -315 -119l30 156q176 66 353 178h145z" />
    <glyph glyph-name="two" unicode="2" horiz-adv-x="1183" 
d="M961 1151q1 94 -53 161t-179 66q-195 0 -479 -223l41 219q240 156 440 156q201 0 303 -106t102 -266q0 -158 -92 -268q-94 -110 -268 -224q-317 -209 -408 -297t-132 -211h745l-33 -158h-923q22 134 46 194q25 60 38 93q12 33 46 75t51 65q17 24 67 66t94 78t134 95
q91 60 209 138t184 166q67 88 67 181z" />
    <glyph glyph-name="three" unicode="3" horiz-adv-x="1183" 
d="M428 123q190 0 291 94q100 94 100 248q0 258 -301 258h-139l29 147q214 0 366 84t152 236q0 188 -222 188t-462 -176l37 209q231 119 423 119t293 -97q102 -97 103 -235q0 -281 -357 -393q254 -72 254 -346q0 -217 -145 -353t-412 -135q-218 1 -411 103l32 170
q179 -121 369 -121z" />
    <glyph glyph-name="four" unicode="4" horiz-adv-x="1183" 
d="M229 518h490l151 778zM1092 518l-31 -151h-207l-72 -367h-164l72 367h-674l25 139l809 995h221l-188 -983h209z" />
    <glyph glyph-name="five" unicode="5" horiz-adv-x="1183" 
d="M659 967q178 0 287 -118q109 -119 109 -337t-151 -380t-429 -161q-225 0 -414 101l33 170q174 -119 374 -119t305 116t105 268t-66 230q-67 78 -181 78q-156 0 -301 -123h-142l189 809h770l-31 -158h-627l-98 -456q133 80 268 80z" />
    <glyph glyph-name="six" unicode="6" horiz-adv-x="1183" 
d="M918 532q0 119 -60 194t-168 75q-107 0 -200 -53t-199 -160q-12 -74 -12 -125q0 -135 73 -238q74 -102 211 -102q137 -1 246 111t109 298zM705 952q169 0 277 -110t108 -330q0 -218 -144 -380t-370 -161q-224 1 -347 141t-123 355q0 133 38 261t92 225q53 97 147 211
t166 186t188 180h228q-310 -273 -408 -398q-136 -174 -221 -352q201 172 369 172z" />
    <glyph glyph-name="seven" unicode="7" horiz-adv-x="1183" 
d="M1214 1501l-28 -141q-203 -264 -367 -540q-165 -276 -235 -426q-70 -151 -176 -394h-193q195 442 342 692t434 651h-741l31 158h933z" />
    <glyph glyph-name="eight" unicode="8" horiz-adv-x="1183" 
d="M546 123q157 0 262 85t105 200q0 64 -35 113q-65 90 -247 196q-211 -98 -307 -172q-96 -73 -96 -175t80 -174q81 -72 238 -73zM985 1159q0 82 -61 151q-60 68 -198 68t-227 -66t-89 -173q0 -78 53 -132t178 -130q203 90 273 145t71 137zM238 1133q0 173 140 285t345 112
t319 -104t115 -245q0 -141 -93 -227t-263 -161q141 -82 215 -167t74 -212q0 -172 -142 -308t-399 -135q-176 0 -333 88q-75 43 -120 120t-45 171q0 182 136 289q71 55 125 85t155 77q-57 35 -97 65t-86 104q-46 75 -46 163z" />
    <glyph glyph-name="nine" unicode="9" horiz-adv-x="1183" 
d="M956 1063q0 137 -83 226t-225 89t-236 -110t-94 -239q0 -130 65 -213q66 -83 190 -83q191 0 369 178q14 68 14 152zM548 582q-165 0 -284 112t-119 320q1 208 139 362t368 154t353 -135q124 -135 123 -359q0 -129 -45 -261t-108 -234t-165 -217t-180 -188t-184 -165h-239
q272 233 419 391q146 158 257 349q-170 -129 -335 -129z" />
    <glyph glyph-name="colon" unicode=":" horiz-adv-x="518" 
d="M469 1065l-49 -256h-221l51 256h219zM313 256l-49 -256h-221l49 256h221z" />
    <glyph glyph-name="semicolon" unicode=";" horiz-adv-x="518" 
d="M469 1065l-51 -256h-219l49 256h221zM311 256l-47 -244l-209 -303h-116l190 291h-88l49 256h221z" />
    <glyph glyph-name="less" unicode="&#x3c;" horiz-adv-x="1366" 
d="M162 813l1100 463v-156l-902 -370l902 -369v-156l-1100 463v125z" />
    <glyph glyph-name="equal" unicode="=" horiz-adv-x="1366" 
d="M162 592h1100v-143h-1100v143zM162 1053h1100v-144h-1100v144z" />
    <glyph glyph-name="greater" unicode="&#x3e;" horiz-adv-x="1366" 
d="M1262 688l-1100 -463v156l901 369l-901 370v156l1100 -463v-125z" />
    <glyph glyph-name="question" unicode="?" horiz-adv-x="808" 
d="M418 248l-49 -248h-207l47 248h209zM555 1378q-164 0 -399 -182l39 209q190 125 374 125q137 0 229 -76t91 -213q0 -96 -49 -181t-186 -214t-169 -181t-65 -210h-152l25 127q13 70 29 110t75 116q59 78 187 192t129 235q0 71 -46 107t-112 36z" />
    <glyph glyph-name="at" unicode="@" horiz-adv-x="1900" 
d="M971 809q-106 0 -181 -126t-75 -302q0 -238 151 -238q119 0 242 205l35 281q-72 180 -172 180zM1276 266q0 -58 22 -90q22 -33 76 -33q111 0 185 120t73 325q0 356 -180 548t-485 191q-305 0 -500 -229q-195 -230 -195 -580t199 -555t535 -205q289 0 575 187v-185
q-276 -158 -580 -157q-393 1 -645 245t-252 672t252 698t616 271q364 -1 590 -235t226 -636q0 -310 -128 -464t-303 -154t-241 178q-55 -63 -86 -94q-31 -32 -85 -58t-118 -26q-145 0 -219 116t-73 275q0 217 115 388q116 171 292 171q131 0 227 -145l19 145h176l-82 -581
q-6 -45 -6 -103z" />
    <glyph glyph-name="A" unicode="A" horiz-adv-x="1222" 
d="M754 1300l-373 -735h459zM1073 0h-168l-49 414h-553l-211 -414h-178l770 1501h207z" />
    <glyph glyph-name="B" unicode="B" horiz-adv-x="1267" 
d="M565 152q142 0 261 53q65 29 103 89t38 141t-36 136t-94 82q-105 49 -229 49h-231l-107 -550h295zM762 1350h-260l-94 -500h165q343 0 448 160q36 54 36 124q0 134 -90 175t-205 41zM762 1501q467 0 467 -342q0 -83 -28 -151q-29 -68 -63 -106t-88 -70t-83 -41
q-29 -10 -72 -23q172 -64 222 -187q26 -65 26 -149q0 -244 -209 -354q-147 -78 -420 -78h-444l295 1501h397z" />
    <glyph glyph-name="C" unicode="C" horiz-adv-x="1236" 
d="M375 997q-86 -203 -86 -404q-1 -470 361 -470q106 0 210 45t246 147l-45 -217q-213 -127 -434 -127q-388 0 -488 385q-53 204 -2 462q25 122 83 251t142 230t218 166t294 65q220 0 400 -133l-39 -178q-47 45 -83 71t-116 58q-80 30 -184 30t-203 -53q-179 -97 -274 -328z
" />
    <glyph glyph-name="D" unicode="D" horiz-adv-x="1343" 
d="M709 1350h-205l-234 -1198h242q266 0 435 204t169 551q1 443 -407 443zM719 1501q289 1 431 -155t142 -439q0 -389 -213 -648t-575 -259h-434l292 1501h357z" />
    <glyph glyph-name="E" unicode="E" horiz-adv-x="1122" 
d="M1171 1501l-32 -151h-635l-98 -502h563l-29 -148h-563l-107 -548h695l-29 -152h-866l292 1501h809z" />
    <glyph glyph-name="F" unicode="F" horiz-adv-x="1040" 
d="M1149 1501l-31 -151h-616l-96 -502h575l-33 -148h-573l-133 -700h-172l290 1501h789z" />
    <glyph glyph-name="G" unicode="G" horiz-adv-x="1314" 
d="M289 569q0 -195 87 -321t269 -125q150 0 279 67l77 396h-342l29 151h512l-125 -643q-209 -123 -442 -123q-392 0 -494 385q-55 207 3 481q57 274 235 472q88 98 221 159t293 62q233 0 407 -133l-38 -178q-47 43 -85 71t-117 59q-79 30 -169 29q-160 0 -283 -83
q-122 -83 -188 -213q-128 -255 -129 -513z" />
    <glyph glyph-name="H" unicode="H" horiz-adv-x="1421" 
d="M1413 1501l-293 -1501h-172l142 723h-709l-139 -723h-172l290 1501h172l-120 -627h706l123 627h172z" />
    <glyph glyph-name="I" unicode="I" horiz-adv-x="548" 
d="M537 1501l-291 -1501h-172l291 1501h172z" />
    <glyph glyph-name="J" unicode="J" horiz-adv-x="870" 
d="M224 -29q-180 0 -310 88l35 170q45 -33 75 -51q92 -55 199 -55t175 84t106 287l196 1007h172l-202 -1036q-54 -268 -160 -381t-286 -113z" />
    <glyph glyph-name="K" unicode="K" horiz-adv-x="1247" 
d="M1352 1501l-613 -602l371 -899h-180l-314 776l-276 -268l-98 -508h-172l295 1501h172l-146 -731l737 731h224z" />
    <glyph glyph-name="L" unicode="L" horiz-adv-x="1017" 
d="M928 158l-31 -158h-827l292 1501h173l-263 -1343h656z" />
    <glyph glyph-name="M" unicode="M" horiz-adv-x="1648" 
d="M1640 1501l-290 -1501h-162l233 1214l-661 -1214h-90l-197 1237l-242 -1237h-161l295 1501h223l182 -1159l631 1159h239z" />
    <glyph glyph-name="N" unicode="N" horiz-adv-x="1421" 
d="M1413 1501l-291 -1501h-159l-476 1288l-251 -1288h-166l292 1501h211l443 -1204l231 1204h166z" />
    <glyph glyph-name="O" unicode="O" horiz-adv-x="1406" 
d="M1180 934q0 113 -26 198t-62 132q-35 47 -101 81t-151 33q-137 0 -248 -81q-190 -139 -270 -468q-33 -135 -33 -241t16 -178q62 -286 322 -287q159 0 287 116t197 300t69 395zM250 133q-137 162 -137 466t176 601q86 146 231 238t324 92q248 0 380 -169t132 -439
t-126 -529q-126 -260 -346 -364q-120 -57 -259 -58q-238 0 -375 162z" />
    <glyph glyph-name="P" unicode="P" horiz-adv-x="1226" 
d="M633 809q197 0 313 77t115 234q0 229 -297 230h-262l-103 -541h234zM791 1501q211 0 329 -103t117 -296q0 -193 -154 -319t-460 -126h-254l-127 -657h-172l290 1501h431z" />
    <glyph glyph-name="Q" unicode="Q" horiz-adv-x="1406" 
d="M1180 934q0 113 -26 198t-62 132q-35 47 -101 81t-151 33q-137 0 -248 -81q-190 -139 -270 -468q-33 -135 -33 -260q0 -201 84 -323t252 -123q168 0 298 123t193 305q64 182 64 383zM113 578q0 325 176 622q86 146 231 238t324 92q236 0 374 -162t138 -454t-162 -587
q-78 -141 -211 -239t-297 -115q16 -31 32 -50t98 -47q81 -28 274 -5l-31 -147q-104 -6 -133 -7q-299 0 -396 179q-23 43 -36 90q-96 25 -169 79t-112 116q-100 159 -100 397z" />
    <glyph glyph-name="R" unicode="R" horiz-adv-x="1280" 
d="M604 807q194 0 312 74t118 237q0 94 -62 163t-229 69h-239l-107 -543h207zM762 1501q221 0 335 -105t113 -274q0 -214 -136 -322q-118 -95 -261 -120l260 -680h-180l-250 662q-84 -2 -274 -3l-127 -659h-172l292 1501h400z" />
    <glyph glyph-name="S" unicode="S" horiz-adv-x="1167" 
d="M410 1124q0 -49 15 -86t72 -80t167 -99t153 -84t98 -79q111 -103 111 -282q0 -223 -150 -333t-382 -110t-445 138l35 182q53 -47 93 -75t132 -60t197 -33q172 0 262 76t90 200t-92 196q-63 49 -188 114q-174 86 -255 170t-81 227q0 204 141 314t355 110t401 -133
l-39 -180q-49 45 -83 71t-115 58q-82 32 -190 32t-205 -66t-97 -188z" />
    <glyph glyph-name="T" unicode="T" horiz-adv-x="1124" 
d="M1239 1501l-31 -151h-415l-261 -1350h-172l261 1350h-418l28 151h1008z" />
    <glyph glyph-name="U" unicode="U" horiz-adv-x="1409" 
d="M637 123q336 0 422 446l184 932h172l-188 -962q-113 -567 -606 -568q-266 0 -384 152t-69 405l188 973h172l-184 -952q-82 -426 293 -426z" />
    <glyph glyph-name="V" unicode="V" horiz-adv-x="1185" 
d="M1315 1501l-774 -1501h-148l-192 1501h168l151 -1212l619 1212h176z" />
    <glyph glyph-name="W" unicode="W" horiz-adv-x="1679" 
d="M1808 1501l-655 -1501h-145l-62 1184l-514 -1184h-147l-84 1501h164l59 -1143l496 1143h161l60 -1147l497 1147h170z" />
    <glyph glyph-name="X" unicode="X" horiz-adv-x="1183" 
d="M1284 1501l-563 -723l311 -778h-180l-248 641l-491 -641h-199l621 797l-281 704h178l219 -565l432 565h201z" />
    <glyph glyph-name="Y" unicode="Y" horiz-adv-x="1150" 
d="M662 651l-127 -651h-173l130 655l-291 846h174l227 -674l483 674h195z" />
    <glyph glyph-name="Z" unicode="Z" horiz-adv-x="1130" 
d="M1206 1501l-30 -141l-977 -1208h741l-29 -152h-944l27 143l975 1207h-680l33 151h884z" />
    <glyph glyph-name="bracketleft" unicode="[" horiz-adv-x="743" 
d="M508 -397h-516l368 1898h519l-29 -147h-352l-312 -1604h351z" />
    <glyph glyph-name="backslash" unicode="\" horiz-adv-x="847" 
d="M586 0l-408 1501h144l407 -1501h-143z" />
    <glyph glyph-name="bracketright" unicode="]" horiz-adv-x="743" 
d="M217 1501h516l-368 -1898h-519l31 147h350l312 1604h-351z" />
    <glyph glyph-name="asciicircum" unicode="^" horiz-adv-x="1181" 
d="M629 1348l-328 -637h-151l403 790h149l404 -790h-152z" />
    <glyph glyph-name="underscore" unicode="_" horiz-adv-x="1024" 
d="M-12 -154h1048v-102h-1048v102z" />
    <glyph glyph-name="grave" unicode="`" 
d="M424 1200l-213 359h211l119 -359h-117z" />
    <glyph glyph-name="a" unicode="a" horiz-adv-x="1103" 
d="M599 952q-124 0 -210 -82t-126 -200t-40 -248q0 -200 98 -275q45 -35 119 -35t140 44q66 43 153 131l105 534q-115 131 -239 131zM707 0v111q-41 -37 -69 -59t-94 -48t-138 -27q-160 0 -253 116q-93 117 -93 297q-1 382 226 588q120 110 284 110t300 -125l45 102h127
l-208 -1065h-127z" />
    <glyph glyph-name="b" unicode="b" horiz-adv-x="1091" 
d="M498 113q123 0 209 86q161 161 161 444q0 78 -23 157q-45 152 -190 152q-67 0 -133 -38t-162 -119l-106 -551q121 -131 244 -131zM1032 672q0 -186 -54 -336t-172 -254t-282 -104t-303 126l-45 -104h-127l293 1501h156l-103 -526q161 113 305 113t238 -116
q94 -114 94 -300z" />
    <glyph glyph-name="c" unicode="c" horiz-adv-x="915" 
d="M628 952q-144 0 -237 -94q-168 -172 -168 -450q1 -78 19 -140t78 -108q60 -47 157 -47q164 0 342 127l-37 -181q-147 -82 -324 -82t-288 112t-111 332t127 429q63 104 176 171t267 67t299 -101l-31 -160q-125 125 -269 125z" />
    <glyph glyph-name="d" unicode="d" horiz-adv-x="1103" 
d="M586 952q-111 0 -196 -82t-126 -200t-41 -258q1 -139 57 -219t156 -80q70 0 129 34t168 138l105 536q-109 131 -252 131zM707 0v111q-41 -37 -70 -60t-93 -49t-136 -25q-162 0 -255 115t-93 336t122 431q60 101 160 165t225 63q170 0 297 -120l107 534h155l-292 -1501
h-127z" />
    <glyph glyph-name="e" unicode="e" horiz-adv-x="1003" 
d="M573 952q-215 0 -309 -305h518q18 104 -30 205q-49 100 -179 100zM582 1087q192 -1 278 -115t86 -300q0 -84 -10 -156h-703q-29 -172 31 -288t223 -115q90 1 171 31t204 106l-37 -178q-165 -94 -353 -94t-300 112q-112 113 -113 339q0 226 130 434q63 99 165 161t228 63z
" />
    <glyph glyph-name="f" unicode="f" horiz-adv-x="585" 
d="M645 1358q-88 0 -118 -38t-46 -126l-24 -129h196l-22 -131h-199l-182 -934h-156l180 934h-161l26 131h162l31 156q29 143 96 212q68 69 229 68q55 0 121 -8l-28 -141q-74 6 -105 6z" />
    <glyph glyph-name="g" unicode="g" horiz-adv-x="1103" 
d="M597 952q-124 0 -210 -83t-125 -199t-39 -238q0 -121 49 -209t170 -88q70 0 134 37t157 125l105 526q-117 129 -241 129zM338 -397q-164 0 -344 90l33 164q174 -119 327 -119q258 0 330 309l16 70q-80 -61 -140 -89t-146 -28q-162 0 -258 111t-96 323t122 423
q60 101 160 166t223 64q160 0 305 -122l45 100h127l-202 -1034q-86 -428 -502 -428z" />
    <glyph glyph-name="h" unicode="h" horiz-adv-x="1110" 
d="M760 1087q259 0 245 -275q-4 -40 -12 -81l-145 -731h-156l146 752q6 49 9 92q3 42 -29 72t-97 30q-137 0 -361 -149l-155 -797h-156l293 1501h156l-107 -551q215 137 369 137z" />
    <glyph glyph-name="i" unicode="i" horiz-adv-x="481" 
d="M418 1065l-207 -1065h-156l207 1065h156zM485 1417l-36 -194h-158l39 194h155z" />
    <glyph glyph-name="j" unicode="j" horiz-adv-x="479" 
d="M483 1417l-37 -194h-155l37 194h155zM-119 -397q-53 0 -106 12l26 135q49 -12 90 -12q111 0 144 164l225 1163h156l-232 -1184q-30 -160 -108 -219t-195 -59z" />
    <glyph glyph-name="k" unicode="k" horiz-adv-x="989" 
d="M1036 1065l-434 -391l242 -674h-162l-201 567l-202 -186l-74 -381h-156l293 1501h156l-174 -897l503 461h209z" />
    <glyph glyph-name="l" unicode="l" horiz-adv-x="481" 
d="M500 1501l-291 -1501h-156l291 1501h156z" />
    <glyph glyph-name="m" unicode="m" horiz-adv-x="1656" 
d="M1335 1087q215 0 215 -247q0 -54 -10 -109l-145 -731h-156l150 768q37 178 -95 178q-117 0 -340 -166l-153 -780h-158l143 733q23 109 4 161t-88 52q-111 0 -344 -164l-153 -782h-156l209 1065h156l-27 -133q197 156 352 155q126 0 167 -69q30 -48 44 -103
q221 172 385 172z" />
    <glyph glyph-name="n" unicode="n" horiz-adv-x="1110" 
d="M993 731l-145 -731h-156l137 713q25 125 15 166q-20 68 -123 67q-59 0 -132 -30t-115 -56t-118 -80l-151 -780h-156l209 1065h156l-27 -131q219 154 371 154t210 -96q58 -95 25 -261z" />
    <glyph glyph-name="o" unicode="o" horiz-adv-x="1050" 
d="M827 653q0 121 -56 210t-177 89q-162 0 -266 -169t-105 -361q1 -131 59 -220t174 -89t203 91q168 174 168 449zM434 -23q-151 0 -263 116t-112 337t132 429q65 101 171 165t236 63q174 0 284 -116q109 -117 109 -327t-125 -426q-61 -105 -171 -173t-261 -68z" />
    <glyph glyph-name="p" unicode="p" horiz-adv-x="1091" 
d="M866 643q0 309 -211 309q-127 0 -297 -170l-106 -536q30 -35 52 -57q22 -21 79 -49t123 -27q166 0 263 165t97 365zM674 1087q140 0 249 -106q107 -106 107 -332t-120 -439q-58 -103 -160 -168t-230 -65q-166 0 -295 123l-96 -497h-158l285 1462h154l-21 -107
q145 129 285 129z" />
    <glyph glyph-name="q" unicode="q" horiz-adv-x="1103" 
d="M586 952q-166 0 -264 -162t-99 -372q-1 -150 57 -228t156 -77q119 -1 297 161l105 547q-119 131 -252 131zM398 -23q-148 0 -243 114q-95 113 -95 297q-1 387 228 592q120 108 279 107q74 -1 140 -25q65 -24 93 -43t70 -56l45 102h127l-284 -1462h-156l94 485
q-150 -111 -298 -111z" />
    <glyph glyph-name="r" unicode="r" horiz-adv-x="751" 
d="M715 930q-115 0 -246 -118t-172 -333l-92 -479h-156l209 1065h156l-41 -203q172 225 379 225q38 0 61 -6l-31 -161q-31 10 -67 10z" />
    <glyph glyph-name="s" unicode="s" horiz-adv-x="937" 
d="M309 815q0 -65 44 -98q45 -33 185 -101t201 -130t62 -173q0 -159 -115 -247q-114 -88 -306 -88t-364 106l35 162q164 -133 332 -133q104 0 182 48t78 134q0 61 -50 100t-184 103t-196 120q-61 57 -61 164q0 150 113 228q115 78 279 78t326 -97l-28 -153
q-170 115 -314 114q-84 0 -152 -36t-67 -101z" />
    <glyph glyph-name="t" unicode="t" horiz-adv-x="643" 
d="M374 113q60 0 144 24l-31 -147q-53 -12 -116 -13q-145 0 -197 69q-51 69 -22 214l131 674h-174l22 131h176l62 311l168 60l-72 -371h192l-24 -131h-195l-127 -649q-20 -82 -8 -127q11 -45 71 -45z" />
    <glyph glyph-name="u" unicode="u" horiz-adv-x="1114" 
d="M256 221q0 -102 134 -102t349 145l158 801h156l-207 -1065h-129v117q-203 -139 -345 -139t-208 66q-66 67 -66 169q1 58 13 121l143 731h156l-138 -713q-16 -86 -16 -131z" />
    <glyph glyph-name="v" unicode="v" horiz-adv-x="884" 
d="M958 1065l-546 -1065h-156l-135 1065h151l101 -840l424 840h161z" />
    <glyph glyph-name="w" unicode="w" horiz-adv-x="1341" 
d="M1415 1065l-520 -1065h-109l-71 778l-379 -778h-111l-104 1065h147l68 -768l371 768h114l70 -768l371 768h153z" />
    <glyph glyph-name="x" unicode="x" horiz-adv-x="942" 
d="M999 1065l-442 -526l248 -539h-166l-188 424l-351 -424h-186l471 555l-233 510h165l172 -393l324 393h186z" />
    <glyph glyph-name="y" unicode="y" horiz-adv-x="983" 
d="M29 -397q-55 0 -142 18l27 135q55 -18 120 -18t101 24q59 37 121 150l57 104l-174 1049h152l137 -850l465 850h164l-672 -1217q-78 -139 -154 -192t-202 -53z" />
    <glyph glyph-name="z" unicode="z" horiz-adv-x="897" 
d="M938 1065l-25 -125l-743 -809h596l-25 -131h-794l26 131l742 803h-557l26 131h754z" />
    <glyph glyph-name="braceleft" unicode="{" horiz-adv-x="696" 
d="M461 119v-113q0 -162 40 -208t158 -46v-149q-101 0 -165 18t-119 78q-80 86 -80 264v150q0 282 -92 344q-41 27 -117 35v149q74 8 115 34q94 60 94 345v149q0 260 174 332q59 24 108 27q48 2 82 2v-150q-117 0 -157 -45t-41 -207v-114q0 -272 -85 -364q-38 -40 -116 -83
q80 -45 118 -85q83 -87 83 -363z" />
    <glyph glyph-name="bar" unicode="|" horiz-adv-x="1062" 
d="M633 -512h-144v2048h144v-2048z" />
    <glyph glyph-name="braceright" unicode="}" horiz-adv-x="696" 
d="M293 1014v114q0 160 -40 206t-157 46v150q98 0 163 -18t120 -78q82 -88 82 -265v-149q0 -285 91 -344q40 -27 116 -35v-149q-74 -8 -115 -34q-94 -60 -92 -345v-150q0 -102 -30 -175q-29 -74 -65 -108t-96 -54t-93 -21q-32 -2 -81 -2v149q117 0 157 45t40 209v113
q0 272 84 363q37 40 117 85q-80 43 -118 83q-83 87 -83 364z" />
    <glyph glyph-name="asciitilde" unicode="~" horiz-adv-x="1366" 
d="M467 901q94 -1 263 -79t237 -79q123 0 295 144v-160q-170 -127 -293 -127q-66 0 -126 20q-59 20 -191 78q-132 59 -189 60q-125 -1 -301 -144v160q158 127 305 127z" />
    <glyph glyph-name="exclamdown" unicode="&#xa1;" horiz-adv-x="501" 
d="M217 840l47 247h209l-47 -247h-209zM219 678h150l-187 -1047h-184z" />
    <glyph glyph-name="cent" unicode="&#xa2;" horiz-adv-x="874" 
d="M246 201l338 665q-98 10 -175 -38t-118 -129q-86 -170 -85 -297t40 -201zM430 113q101 0 305 149l-37 -182q-158 -102 -295 -103q-68 0 -124 21l-209 -410h-136l238 469q-129 106 -129 323t121 411q58 94 160 153t229 60q57 0 94 -9l256 506h135l-274 -543q39 -23 82 -57
l-31 -164q-68 67 -115 94l-358 -708q40 -10 88 -10z" />
    <glyph glyph-name="sterling" unicode="&#xa3;" horiz-adv-x="1183" 
d="M452 188q46 0 150 -26t176 -27q72 0 211 72l-33 -174q-98 -61 -208 -62q-56 0 -194 32t-226 32t-267 -64l31 160q125 111 174 170q107 129 107 401h-223l28 148h187q-10 133 -11 190q0 238 132 364t339 126q162 0 318 -90l-35 -178q-123 117 -279 116q-233 0 -290 -221
q-14 -53 -14 -115t12 -192h311l-29 -148h-276q-4 -202 -44 -292t-161 -232q68 10 114 10z" />
    <glyph glyph-name="currency" unicode="&#xa4;" horiz-adv-x="1183" 
d="M614 123q104 0 202 43t239 149l-47 -217q-195 -127 -398 -127q-314 0 -432 273q-59 134 -63 315h-109l27 127h86q4 66 18 127h-131l27 129h135q41 140 117 257q75 116 145 178q70 61 178 107t236 46q205 0 377 -133l-37 -178q-80 79 -156 119t-186 40q-195 0 -314 -131
t-178 -305h727l-26 -129h-736q-12 -55 -20 -127h735l-26 -127h-713q4 -236 106 -350q76 -86 217 -86z" />
    <glyph glyph-name="yen" unicode="&#xa5;" horiz-adv-x="1150" 
d="M432 827l-231 674h174l227 -674l483 674h195l-489 -674h327l-24 -129h-396l-36 -47l-31 -168h422l-25 -129h-424l-69 -354h-173l70 354h-420l27 129h420l33 172l-15 43h-397l24 129h328z" />
    <glyph glyph-name="brokenbar" unicode="&#xa6;" horiz-adv-x="1062" 
d="M633 666h-144v856h144v-856zM633 -358h-144v716h144v-716z" />
    <glyph glyph-name="section" unicode="&#xa7;" horiz-adv-x="1062" 
d="M260 575q0 -129 260 -292q154 90 212 150t58 133q0 72 -56 136q-58 64 -197 158q-131 -78 -204 -146t-73 -139zM721 1393q-109 1 -183 -55t-75 -136q-1 -49 23 -84t98 -90l170 -125q195 -143 194 -328q0 -115 -82 -205t-233 -175q123 -123 123 -238q0 -164 -127 -259
t-307 -95t-326 131l37 170q137 -164 299 -164q104 0 182 59t78 143t-121 173l-109 78q-110 79 -166 140q-92 100 -92 226q0 127 86 216t236 171q-49 36 -88 100t-39 142q0 137 116 239q116 103 299 103t347 -127l-33 -168q-139 158 -307 158z" />
    <glyph glyph-name="dieresis" unicode="&#xa8;" 
d="M743 1417l-36 -194h-158l39 194h155zM440 1417l-37 -194h-157l39 194h155z" />
    <glyph glyph-name="copyright" unicode="&#xa9;" horiz-adv-x="1699" 
d="M885 1395q-252 0 -429 -178q-177 -179 -177 -431t178 -429t428 -177t428 178t178 428t-177 430t-429 179zM886 1530q308 0 524 -219t216 -525t-216 -522q-216 -217 -524 -217t-526 216q-217 216 -217 523t217 526q218 218 526 218zM668 789q0 -135 63 -219t172 -85
q109 0 258 99v-148q-121 -78 -243 -78t-201 43q-128 71 -176 244q-47 173 14 338q35 94 124 166t213 72t259 -78v-150q-137 99 -248 99t-173 -84t-62 -219z" />
    <glyph glyph-name="ordfeminine" unicode="&#xaa;" horiz-adv-x="704" 
d="M236 1116q0 -38 6 -70t36 -67t76 -35t86 22t103 70l67 316q-70 70 -160 70t-152 -93q-62 -92 -62 -213zM104 1120q0 142 92 276t255 134q98 0 186 -74l29 60h106l-143 -668h-103l-4 59q-100 -71 -193 -71t-159 72q-66 70 -66 212z" />
    <glyph glyph-name="guillemotleft" unicode="&#xab;" horiz-adv-x="1148" 
d="M815 61l-291 486l475 457h213l-499 -478l278 -465h-176zM346 61l-289 486l475 457h211l-499 -478l278 -465h-176z" />
    <glyph glyph-name="logicalnot" unicode="&#xac;" horiz-adv-x="1366" 
d="M162 1053h1100v-604h-144v460h-956v144z" />
    <glyph glyph-name="registered" unicode="&#xae;" horiz-adv-x="888" 
d="M856 1144q0 128 -89 217t-217 89t-217 -90t-89 -217t90 -216t215 -89t216 89t91 217zM936 1143q0 -160 -114 -273q-114 -112 -274 -112t-272 112q-113 112 -112 273q0 159 112 273t273 114q159 0 273 -114t114 -273zM479 1292v-114h35q115 0 115 61q0 53 -90 53h-60z
M479 1108v-182h-80v436h150q166 0 166 -119q0 -82 -97 -119l117 -198h-88l-106 182h-62z" />
    <glyph glyph-name="macron" unicode="&#xaf;" 
d="M788 1317h-591l26 135h590z" />
    <glyph glyph-name="degree" unicode="&#xb0;" horiz-adv-x="802" 
d="M483 1411q-69 -1 -115 -49t-46 -114t47 -112q47 -48 115 -48t114 46q47 48 47 116t-47 114q-47 47 -115 47zM203 1251q0 117 82 198q83 81 199 81t198 -82t82 -198t-83 -198t-198 -83q-115 1 -197 83t-83 199z" />
    <glyph glyph-name="plusminus" unicode="&#xb1;" horiz-adv-x="1366" 
d="M162 991h477v477h143v-477h480v-143h-480v-479h-143v479h-477v143zM162 182h1100v-143h-1100v143z" />
    <glyph glyph-name="twosuperior" unicode="&#xb2;" horiz-adv-x="749" 
d="M641 1329q0 49 -38 71q-83 48 -208 -9q-66 -31 -182 -105l35 154q152 90 270 90t186 -53t68 -156t-88 -178q-65 -56 -158 -105q-209 -106 -270 -188h428l-27 -111h-573q27 117 80 190q52 73 188 147t179 102q110 67 110 151z" />
    <glyph glyph-name="threesuperior" unicode="&#xb3;" horiz-adv-x="749" 
d="M563 987q0 109 -141 109h-123l25 106q135 6 196 31q106 41 107 115q0 39 -37 56t-78 17q-111 0 -299 -110l33 147q156 72 265 72t176 -49t67 -133q0 -131 -156 -195q27 -19 41 -31q13 -12 33 -50t20 -85q0 -109 -85 -185t-237 -77q-152 0 -278 63l27 119q117 -73 224 -73
t164 43q56 43 56 110z" />
    <glyph glyph-name="acute" unicode="&#xb4;" 
d="M471 1200h-135l256 359h229z" />
    <glyph glyph-name="paragraph" unicode="&#xb6;" horiz-adv-x="1196" 
d="M535 -397v1054q-162 12 -252 70q-178 117 -179 354q0 193 132 307t346 113h659v-133h-194v-1765h-160v1765h-193v-1765h-159z" />
    <glyph glyph-name="periodcentered" unicode="&#xb7;" horiz-adv-x="518" 
d="M424 879l-51 -256h-219l49 256h221z" />
    <glyph glyph-name="cedilla" unicode="&#xb8;" 
d="M446 -211q0 -82 -74 -139q-74 -58 -186 -58q-114 0 -237 41l61 107q82 -29 163 -29t115 24t34 54q0 47 -56 63t-178 17l129 168h127l-70 -96q172 -23 172 -152z" />
    <glyph glyph-name="onesuperior" unicode="&#xb9;" horiz-adv-x="749" 
d="M633 1516l-154 -666h133l-26 -111h-398l27 111h135l119 516q-68 -27 -186 -55l28 114q102 31 215 91h107z" />
    <glyph glyph-name="ordmasculine" unicode="&#xba;" horiz-adv-x="667" 
d="M602 1255q0 61 -32 113t-107 53q-99 0 -163 -98q-64 -97 -64 -189q0 -190 137 -190q104 0 167 99q62 99 62 212zM467 1530q117 0 191 -75t75 -183q0 -231 -156 -364q-87 -72 -205 -72t-193 74t-75 216q0 140 98 272t265 132z" />
    <glyph glyph-name="guillemotright" unicode="&#xbb;" horiz-adv-x="1148" 
d="M336 1004l289 -486l-475 -457h-211l499 478l-278 465h176zM803 1004l291 -486l-476 -457h-212l499 478l-276 465h174z" />
    <glyph glyph-name="onequarter" unicode="&#xbc;" horiz-adv-x="1759" 
d="M408 -29h-134l1147 1559h133zM633 1516l-154 -666h133l-26 -111h-398l27 111h135l119 516q-68 -27 -186 -55l28 114q102 31 215 91h107zM1389 291l73 317l-295 -317h222zM1642 291l-24 -109h-129l-43 -182h-125l43 182h-379l21 94l462 500h158l-113 -485h129z" />
    <glyph glyph-name="onehalf" unicode="&#xbd;" horiz-adv-x="1759" 
d="M1534 582q0 100 -128 100q-52 0 -118 -30t-180 -103l35 153q149 88 267 88t186 -52t69 -156q0 -104 -86 -176q-61 -53 -160 -105q-213 -114 -270 -188h430l-27 -113h-573q27 116 79 188t210 160t212 132t54 102zM383 -29h-135l1147 1559h135zM633 1516l-154 -666h133
l-26 -111h-398l27 111h135l119 516q-68 -27 -186 -55l28 114q102 31 215 91h107z" />
    <glyph glyph-name="threequarters" unicode="&#xbe;" horiz-adv-x="1759" 
d="M1389 291l73 317l-295 -317h222zM1642 291l-24 -109h-129l-43 -182h-125l43 182h-379l21 94l462 500h158l-113 -485h129zM432 -29h-133l1147 1559h133zM563 987q0 109 -141 109h-123l25 106q135 6 196 31q106 41 107 115q0 39 -37 56t-78 17q-111 0 -299 -110l33 147
q156 72 265 72t176 -49t67 -133q0 -131 -156 -195q27 -19 41 -31q13 -12 33 -50t20 -85q0 -109 -85 -185t-237 -77q-152 0 -278 63l27 119q117 -73 224 -73t164 43q56 43 56 110z" />
    <glyph glyph-name="questiondown" unicode="&#xbf;" horiz-adv-x="808" 
d="M389 840l49 247h207l-47 -247h-209zM262 -246q164 0 400 183l-39 -209q-190 -125 -375 -125q-137 0 -229 75q-91 76 -91 213q0 95 49 181t187 214t168 182q32 52 65 210h152l-25 -127q-14 -70 -29 -110q-15 -41 -75 -117t-187 -191q-128 -115 -129 -235q0 -70 46 -107
t112 -37z" />
    <glyph glyph-name="Agrave" unicode="&#xc0;" horiz-adv-x="1222" 
d="M797 1636l-213 359h211l118 -359h-116zM754 1300l-373 -735h459zM1073 0h-168l-49 414h-553l-211 -414h-178l770 1501h207z" />
    <glyph glyph-name="Aacute" unicode="&#xc1;" horiz-adv-x="1222" 
d="M741 1636h-135l256 359h230zM754 1300l-373 -735h459zM1073 0h-168l-49 414h-553l-211 -414h-178l770 1501h207z" />
    <glyph glyph-name="Acircumflex" unicode="&#xc2;" horiz-adv-x="1222" 
d="M776 1985h121l199 -349h-117l-166 176l-235 -176h-136zM754 1300l-373 -735h459zM1073 0h-168l-49 414h-553l-211 -414h-178l770 1501h207z" />
    <glyph glyph-name="Atilde" unicode="&#xc3;" horiz-adv-x="1222" 
d="M915 1673q-59 0 -131 48q-72 47 -92 59t-41 12q-59 0 -121 -104l-84 55q48 90 96 141t112 51t180 -82q57 -39 88 -38q56 0 122 104l84 -55q-55 -102 -104 -146t-109 -45zM754 1300l-373 -735h459zM1073 0h-168l-49 414h-553l-211 -414h-178l770 1501h207z" />
    <glyph glyph-name="Adieresis" unicode="&#xc4;" horiz-adv-x="1222" 
d="M1096 1636h-199l39 199h199zM727 1636h-199l39 199h199zM754 1300l-373 -735h459zM1073 0h-168l-49 414h-553l-211 -414h-178l770 1501h207z" />
    <glyph glyph-name="Aring" unicode="&#xc5;" horiz-adv-x="1222" 
d="M754 1300l-373 -735h459zM1073 0h-168l-49 414h-553l-211 -414h-178l770 1501h207zM807 1886q-43 0 -73 -28t-30 -73q0 -44 30 -75t74 -31t75 30t30 73q1 44 -31 74t-75 30zM809 1581q-84 0 -143 58q-60 59 -60 143t60 143t143 59q84 0 143 -58q60 -60 60 -144t-60 -142
t-143 -59z" />
    <glyph glyph-name="AE" unicode="&#xc6;" horiz-adv-x="1746" 
d="M487 610h351l143 740h-29zM870 1501h926l-29 -151h-614l-98 -502h530l-29 -148h-530l-106 -548h661l-31 -152h-831l88 459h-418l-285 -459h-190z" />
    <glyph glyph-name="Ccedilla" unicode="&#xc7;" horiz-adv-x="1236" 
d="M823 -211q1 -82 -73 -139q-74 -58 -190 -58t-234 41l59 107q82 -29 163 -29t115 24t33 54q0 47 -56 63t-177 17l82 108q-174 23 -271 125q-162 166 -161 480q0 249 107 487q58 129 142 230t218 166t294 65q219 0 400 -133l-39 -178q-47 45 -83 71t-116 58q-80 30 -184 30
t-203 -53q-179 -97 -274 -328q-86 -203 -86 -404q-1 -470 361 -470q106 0 210 45t246 147l-45 -217q-192 -115 -389 -125l-23 -32q174 -25 174 -152z" />
    <glyph glyph-name="Egrave" unicode="&#xc8;" horiz-adv-x="1122" 
d="M707 1636l-213 359h211l118 -359h-116zM1171 1501l-32 -151h-635l-98 -502h563l-29 -148h-563l-107 -548h695l-29 -152h-866l292 1501h809z" />
    <glyph glyph-name="Eacute" unicode="&#xc9;" horiz-adv-x="1122" 
d="M733 1636h-135l256 359h229zM1171 1501l-32 -151h-635l-98 -502h563l-29 -148h-563l-107 -548h695l-29 -152h-866l292 1501h809z" />
    <glyph glyph-name="Ecircumflex" unicode="&#xca;" horiz-adv-x="1122" 
d="M737 1985h121l199 -349h-117l-166 176l-235 -176h-136zM1171 1501l-32 -151h-635l-98 -502h563l-29 -148h-563l-107 -548h695l-29 -152h-866l292 1501h809z" />
    <glyph glyph-name="Edieresis" unicode="&#xcb;" horiz-adv-x="1122" 
d="M1171 1501l-32 -151h-635l-98 -502h563l-29 -148h-563l-107 -548h695l-29 -152h-866l292 1501h809zM1042 1636h-200l39 199h198zM674 1636h-199l37 199h201z" />
    <glyph glyph-name="Igrave" unicode="&#xcc;" horiz-adv-x="548" 
d="M461 1636l-213 359h211l119 -359h-117zM537 1501l-291 -1501h-172l291 1501h172z" />
    <glyph glyph-name="Iacute" unicode="&#xcd;" horiz-adv-x="548" 
d="M424 1636h-135l256 359h229zM537 1501l-291 -1501h-172l291 1501h172z" />
    <glyph glyph-name="Icircumflex" unicode="&#xce;" horiz-adv-x="548" 
d="M459 1985h121l198 -349h-116l-166 176l-236 -176h-135zM537 1501l-291 -1501h-172l291 1501h172z" />
    <glyph glyph-name="Idieresis" unicode="&#xcf;" horiz-adv-x="548" 
d="M758 1636h-199l39 199h199zM391 1636h-198l36 199h201zM535 1501l-291 -1501h-170l291 1501h170z" />
    <glyph glyph-name="Eth" unicode="&#xd0;" horiz-adv-x="1343" 
d="M709 1350h-205l-105 -531h332l-26 -137h-332l-103 -530h236q282 0 446 210t164 545q1 443 -407 443zM719 1501q289 1 431 -155t142 -439q0 -389 -213 -648t-575 -259h-434l133 682h-140l25 137h141l133 682h357z" />
    <glyph glyph-name="Ntilde" unicode="&#xd1;" horiz-adv-x="1421" 
d="M1021 1673q-60 0 -126 47q-76 48 -96 60t-41 12q-59 0 -121 -104l-84 55q47 90 95 141t112 51t180 -82q59 -39 88 -38q57 0 123 104l84 -55q-55 -102 -105 -146t-109 -45zM1413 1501l-291 -1501h-159l-476 1288l-251 -1288h-166l292 1501h211l443 -1204l231 1204h166z
" />
    <glyph glyph-name="Ograve" unicode="&#xd2;" horiz-adv-x="1406" 
d="M838 1636l-213 359h211l118 -359h-116zM1180 934q0 113 -26 198t-62 132q-35 47 -101 81t-151 33q-137 0 -248 -81q-190 -139 -270 -468q-33 -135 -33 -241t16 -178q62 -286 322 -287q159 0 287 116t197 300t69 395zM250 133q-137 162 -137 466t176 601q86 146 231 238
t324 92q248 0 380 -169t132 -439t-126 -529q-126 -260 -346 -364q-120 -57 -259 -58q-238 0 -375 162z" />
    <glyph glyph-name="Oacute" unicode="&#xd3;" horiz-adv-x="1406" 
d="M834 1636h-136l256 359h230zM1180 934q0 113 -26 198t-62 132q-35 47 -101 81t-151 33q-137 0 -248 -81q-190 -139 -270 -468q-33 -135 -33 -241t16 -178q62 -286 322 -287q159 0 287 116t197 300t69 395zM250 133q-137 162 -137 466t176 601q86 146 231 238t324 92
q248 0 380 -169t132 -439t-126 -529q-126 -260 -346 -364q-120 -57 -259 -58q-238 0 -375 162z" />
    <glyph glyph-name="Ocircumflex" unicode="&#xd4;" horiz-adv-x="1406" 
d="M868 1985h121l199 -349h-117l-166 176l-235 -176h-135zM1180 934q0 113 -26 198t-62 132q-35 47 -101 81t-151 33q-137 0 -248 -81q-190 -139 -270 -468q-33 -135 -33 -241t16 -178q62 -286 322 -287q159 0 287 116t197 300t69 395zM250 133q-137 162 -137 466t176 601
q86 146 231 238t324 92q248 0 380 -169t132 -439t-126 -529q-126 -260 -346 -364q-120 -57 -259 -58q-238 0 -375 162z" />
    <glyph glyph-name="Otilde" unicode="&#xd5;" horiz-adv-x="1406" 
d="M992 1673q-60 0 -126 47q-76 48 -96 60t-41 12q-59 0 -121 -104l-84 55q48 90 96 141t112 51t179 -82q57 -39 88 -38q57 0 123 104l84 -55q-55 -102 -104 -146q-50 -44 -110 -45zM1180 934q0 113 -26 198t-62 132q-35 47 -101 81t-151 33q-137 0 -248 -81
q-190 -139 -270 -468q-33 -135 -33 -241t16 -178q62 -286 322 -287q159 0 287 116t197 300t69 395zM250 133q-137 162 -137 466t176 601q86 146 231 238t324 92q248 0 380 -169t132 -439t-126 -529q-126 -260 -346 -364q-120 -57 -259 -58q-238 0 -375 162z" />
    <glyph glyph-name="Odieresis" unicode="&#xd6;" horiz-adv-x="1406" 
d="M1188 1636h-199l39 199h199zM819 1636h-198l38 199h199zM1180 894q0 91 -6 141t-27 116q-20 66 -55 113t-101 81t-151 33q-137 0 -248 -81q-190 -139 -270 -468q-33 -135 -33 -233q0 -175 59 -308q74 -167 296 -167q118 0 227 79q193 138 275 464q34 138 34 230zM250 133
q-137 162 -137 466t176 601q86 146 231 238t324 92q248 0 380 -169t132 -439t-126 -529q-126 -260 -346 -364q-120 -57 -259 -58q-238 0 -375 162z" />
    <glyph glyph-name="multiply" unicode="&#xd7;" horiz-adv-x="1366" 
d="M203 344l407 406l-407 407l102 100l406 -405l407 405l101 -100l-406 -407l406 -406l-101 -102l-407 407l-406 -407z" />
    <glyph glyph-name="Oslash" unicode="&#xd8;" horiz-adv-x="1406" 
d="M627 121q113 0 209 56q96 55 157 143t105 198q79 195 82 408q0 92 -27 207l-780 -887q92 -125 254 -125zM840 1378q-135 0 -246 -80q-190 -137 -271 -467q-35 -137 -35 -259t27 -201l781 884q-90 123 -256 123zM1356 947q0 -177 -45 -338q-106 -381 -363 -544
q-145 -93 -323 -94q-223 0 -363 148l-131 -148l-94 82l151 172q-76 141 -76 375t112 477q128 279 349 390q125 62 271 63q225 0 362 -150l131 150l93 -82l-150 -172q76 -152 76 -329z" />
    <glyph glyph-name="Ugrave" unicode="&#xd9;" horiz-adv-x="1409" 
d="M850 1636l-213 359h211l119 -359h-117zM637 123q336 0 422 446l184 932h172l-188 -962q-113 -567 -606 -568q-266 0 -384 152t-69 405l188 973h172l-184 -952q-82 -426 293 -426z" />
    <glyph glyph-name="Uacute" unicode="&#xda;" horiz-adv-x="1409" 
d="M856 1636h-135l256 359h229zM637 123q336 0 422 446l184 932h172l-188 -962q-113 -567 -606 -568q-266 0 -384 152t-69 405l188 973h172l-184 -952q-82 -426 293 -426z" />
    <glyph glyph-name="Ucircumflex" unicode="&#xdb;" horiz-adv-x="1409" 
d="M870 1985h121l199 -349h-117l-166 176l-235 -176h-135zM637 123q336 0 422 446l184 932h172l-188 -962q-113 -567 -606 -568q-266 0 -384 152t-69 405l188 973h172l-184 -952q-82 -426 293 -426z" />
    <glyph glyph-name="Udieresis" unicode="&#xdc;" horiz-adv-x="1409" 
d="M328 401q0 -133 76 -207t227 -73q340 0 428 448l184 932h172l-188 -962q-113 -567 -606 -568q-233 0 -352 119q-118 119 -117 287q0 57 16 151l188 973h172l-182 -940q-18 -92 -18 -160zM1188 1636h-199l39 199h199zM819 1636h-198l38 199h199z" />
    <glyph glyph-name="Yacute" unicode="&#xdd;" horiz-adv-x="1150" 
d="M707 1636h-136l256 359h230zM662 651l-127 -651h-173l130 655l-291 846h174l227 -674l483 674h195z" />
    <glyph glyph-name="Thorn" unicode="&#xde;" horiz-adv-x="1226" 
d="M700 1022h-262l-104 -543h235q167 0 285 60q141 70 141 254q0 229 -295 229zM727 1171q188 0 316 -93t128 -290q0 -264 -227 -382q-143 -76 -385 -76h-256l-63 -330h-170l290 1501h170l-63 -330h260z" />
    <glyph glyph-name="germandbls" unicode="&#xdf;" horiz-adv-x="1077" 
d="M561 113q76 0 131 39q90 64 120 217q11 55 11 119t-22 120q-23 55 -52 84q-54 52 -172 71q-38 5 -98 9l27 131q168 17 213 41t82 53q74 58 75 160q2 209 -188 209q-61 0 -109 -26t-76 -60q-58 -69 -104 -281l-194 -999h-156l189 969q16 90 32 151q16 60 52 140t82 126
q44 46 120 81q76 34 174 34q178 0 260 -91t82 -214q0 -268 -272 -360q119 -46 169 -136t50 -212t-32 -216q-33 -94 -75 -152t-125 -100t-215 -43q-132 0 -235 74l31 154q109 -92 225 -92z" />
    <glyph glyph-name="agrave" unicode="&#xe0;" horiz-adv-x="1103" 
d="M655 1200l-213 359h211l119 -359h-117zM599 952q-124 0 -210 -82t-126 -200t-40 -248q0 -200 98 -275q45 -35 119 -35t140 44q66 43 153 131l105 534q-115 131 -239 131zM707 0v111q-41 -37 -69 -59t-94 -48t-138 -27q-160 0 -253 116q-93 117 -93 297q-1 382 226 588
q120 110 284 110t300 -125l45 102h127l-208 -1065h-127z" />
    <glyph glyph-name="aacute" unicode="&#xe1;" horiz-adv-x="1103" 
d="M682 1200h-135l256 359h229zM599 952q-124 0 -210 -82t-126 -200t-40 -248q0 -200 98 -275q45 -35 119 -35t140 44q66 43 153 131l105 534q-115 131 -239 131zM707 0v111q-41 -37 -69 -59t-94 -48t-138 -27q-160 0 -253 116q-93 117 -93 297q-1 382 226 588
q120 110 284 110t300 -125l45 102h127l-208 -1065h-127z" />
    <glyph glyph-name="acircumflex" unicode="&#xe2;" horiz-adv-x="1103" 
d="M686 1548h121l199 -348h-117l-166 176l-236 -176h-135zM599 952q-124 0 -210 -82t-126 -200t-40 -248q0 -200 98 -275q45 -35 119 -35t140 44q66 43 153 131l105 534q-115 131 -239 131zM707 0v111q-41 -37 -69 -59t-94 -48t-138 -27q-160 0 -253 116q-93 117 -93 297
q-1 382 226 588q120 110 284 110t300 -125l45 102h127l-208 -1065h-127z" />
    <glyph glyph-name="atilde" unicode="&#xe3;" horiz-adv-x="1103" 
d="M841 1237q-60 0 -126 47q-77 48 -97 60t-40 12q-59 0 -121 -105l-84 56q47 90 95 141t112 51t180 -82q57 -39 88 -39q57 1 123 105l84 -56q-55 -102 -105 -146t-109 -44zM599 952q-124 0 -210 -82t-126 -200t-40 -248q0 -200 98 -275q45 -35 119 -35t140 44
q66 43 153 131l105 534q-115 131 -239 131zM707 0v111q-41 -37 -69 -59t-94 -48t-138 -27q-160 0 -253 116q-93 117 -93 297q-1 382 226 588q120 110 284 110t300 -125l45 102h127l-208 -1065h-127z" />
    <glyph glyph-name="adieresis" unicode="&#xe4;" horiz-adv-x="1103" 
d="M954 1417l-36 -194h-158l39 194h155zM651 1417l-37 -194h-157l39 194h155zM599 952q-124 0 -210 -82t-126 -200t-40 -248q0 -200 98 -275q45 -35 119 -35t140 44q66 43 153 131l105 534q-115 131 -239 131zM707 0v111q-41 -37 -69 -59t-94 -48t-138 -27q-160 0 -253 116
q-93 117 -93 297q-1 382 226 588q120 110 284 110t300 -125l45 102h127l-208 -1065h-127z" />
    <glyph glyph-name="aring" unicode="&#xe5;" horiz-adv-x="1103" 
d="M821 1366q0 43 -30 73q-31 29 -74 29t-74 -28t-31 -73q0 -44 31 -75q31 -30 75 -30t74 30q29 31 29 74zM920 1366q0 -84 -58 -143t-144 -59q-84 0 -144 58q-60 60 -60 144t59 142t143 58t144 -58t60 -142zM599 952q-124 0 -210 -82t-126 -200t-40 -248q0 -200 98 -275
q45 -35 119 -35t140 44q66 43 153 131l105 534q-115 131 -239 131zM707 0v111q-41 -37 -69 -59t-94 -48t-138 -27q-160 0 -253 116q-93 117 -93 297q-1 382 226 588q120 110 284 110t300 -125l45 102h127l-208 -1065h-127z" />
    <glyph glyph-name="ae" unicode="&#xe6;" horiz-adv-x="1658" 
d="M1238 952q-102 0 -187 -66q-84 -66 -123 -239h510q18 135 -40 220t-160 85zM562 952q-134 0 -236 -152t-103 -376q0 -135 48 -223t145 -88q56 0 118 37q62 38 98 74t99 112q-4 61 -4 82q0 171 76 407q-107 127 -241 127zM391 -23q-151 0 -241 116t-91 317q1 286 145 482
t351 195q68 -1 130 -27t86 -44t63 -53l45 102h120l-26 -107q129 129 285 129q156 -1 250 -109q93 -108 94 -302q-1 -41 -11 -160h-690q-33 -186 31 -295t218 -109q155 0 368 138l-37 -178q-164 -94 -365 -95q-240 0 -346 211q-63 -68 -103 -102t-117 -72q-77 -37 -159 -37z
" />
    <glyph glyph-name="ccedilla" unicode="&#xe7;" horiz-adv-x="915" 
d="M612 952q-84 0 -152 -39t-112 -98q-121 -166 -125 -407q0 -114 48 -197q58 -100 200 -98q170 0 348 127l-37 -183q-163 -80 -333 -80l-21 -38q172 -23 172 -166q0 -86 -66 -133q-66 -48 -187 -48q-122 0 -243 46l54 102q98 -29 192 -29q123 0 123 72q0 58 -73 73
q-51 9 -128 13l70 121q-277 74 -283 424q0 226 127 436q63 104 176 171q112 67 266 67t300 -101l-31 -160q-125 125 -285 125z" />
    <glyph glyph-name="egrave" unicode="&#xe8;" horiz-adv-x="1003" 
d="M606 1200l-213 359h211l119 -359h-117zM573 952q-215 0 -309 -305h518q18 104 -30 205q-49 100 -179 100zM582 1087q192 -1 278 -115t86 -300q0 -84 -10 -156h-703q-29 -172 31 -288t223 -115q90 1 171 31t204 106l-37 -178q-165 -94 -353 -94t-300 112
q-112 113 -113 339q0 226 130 434q63 99 165 161t228 63z" />
    <glyph glyph-name="eacute" unicode="&#xe9;" horiz-adv-x="1003" 
d="M592 1200h-135l256 359h229zM573 952q-215 0 -309 -305h518q18 104 -30 205q-49 100 -179 100zM582 1087q192 -1 278 -115t86 -300q0 -84 -10 -156h-703q-29 -172 31 -288t223 -115q90 1 171 31t204 106l-37 -178q-165 -94 -353 -94t-300 112q-112 113 -113 339
q0 226 130 434q63 99 165 161t228 63z" />
    <glyph glyph-name="ecircumflex" unicode="&#xea;" horiz-adv-x="1003" 
d="M606 1548h121l199 -348h-117l-166 176l-235 -176h-136zM573 952q-215 0 -309 -305h518q18 104 -30 205q-49 100 -179 100zM582 1087q192 -1 278 -115t86 -300q0 -84 -10 -156h-703q-29 -172 31 -288t223 -115q90 1 171 31t204 106l-37 -178q-165 -94 -353 -94t-300 112
q-112 113 -113 339q0 226 130 434q63 99 165 161t228 63z" />
    <glyph glyph-name="edieresis" unicode="&#xeb;" horiz-adv-x="1003" 
d="M874 1417l-36 -194h-158l39 194h155zM571 1417l-36 -194h-158l39 194h155zM573 952q-215 0 -309 -305h518q18 104 -30 205q-49 100 -179 100zM582 1087q192 -1 278 -115t86 -300q0 -84 -10 -156h-703q-29 -172 31 -288t223 -115q90 1 171 31t204 106l-37 -178
q-165 -94 -353 -94t-300 112q-112 113 -113 339q0 226 130 434q63 99 165 161t228 63z" />
    <glyph glyph-name="igrave" unicode="&#xec;" horiz-adv-x="481" 
d="M324 1200l-213 359h211l118 -359h-116zM418 1065l-207 -1065h-156l207 1065h156z" />
    <glyph glyph-name="iacute" unicode="&#xed;" horiz-adv-x="481" 
d="M371 1200h-135l256 359h229zM418 1065l-207 -1065h-156l207 1065h156z" />
    <glyph glyph-name="icircumflex" unicode="&#xee;" horiz-adv-x="481" 
d="M375 1548h121l198 -348h-116l-166 176l-236 -176h-135zM418 1065l-207 -1065h-156l207 1065h156z" />
    <glyph glyph-name="idieresis" unicode="&#xef;" horiz-adv-x="481" 
d="M643 1417l-37 -194h-157l38 194h156zM340 1417l-37 -194h-158l39 194h156zM418 1065l-207 -1065h-156l207 1065h156z" />
    <glyph glyph-name="eth" unicode="&#xf0;" horiz-adv-x="1050" 
d="M827 655q0 123 -59 210t-174 87q-162 0 -266 -169t-105 -361q1 -131 59 -220t174 -89t204 92q167 173 167 450zM451 -23q-168 0 -280 115t-112 324q1 156 59 306t185 258t291 107q106 0 207 -63q-43 137 -84 219l-191 -108l-57 92l193 110q-49 78 -136 164h181
q5 -8 75 -94l164 94l55 -92l-159 -92q150 -264 150 -599t-152 -538t-389 -203z" />
    <glyph glyph-name="ntilde" unicode="&#xf1;" horiz-adv-x="1110" 
d="M824 1237q-60 0 -126 47q-76 48 -96 60t-41 12q-59 0 -121 -105l-84 56q48 90 96 141t112 51t179 -82q59 -39 88 -39q57 1 123 105l84 -56q-55 -102 -104 -146q-50 -44 -110 -44zM993 731l-145 -731h-156l137 713q25 125 15 166q-20 68 -123 67q-59 0 -132 -30t-115 -56
t-118 -80l-151 -780h-156l209 1065h156l-27 -131q219 154 371 154t210 -96q58 -95 25 -261z" />
    <glyph glyph-name="ograve" unicode="&#xf2;" horiz-adv-x="1050" 
d="M629 1200l-213 359h211l118 -359h-116zM827 653q0 121 -56 210t-177 89q-162 0 -266 -169t-105 -361q1 -131 59 -220t174 -89t203 91q168 174 168 449zM434 -23q-151 0 -263 116t-112 337t132 429q65 101 171 165t236 63q174 0 284 -116q109 -117 109 -327t-125 -426
q-61 -105 -171 -173t-261 -68z" />
    <glyph glyph-name="oacute" unicode="&#xf3;" horiz-adv-x="1050" 
d="M625 1200h-136l256 359h230zM827 653q0 121 -56 210t-177 89q-162 0 -266 -169t-105 -361q1 -131 59 -220t174 -89t203 91q168 174 168 449zM434 -23q-151 0 -263 116t-112 337t132 429q65 101 171 165t236 63q174 0 284 -116q109 -117 109 -327t-125 -426
q-61 -105 -171 -173t-261 -68z" />
    <glyph glyph-name="ocircumflex" unicode="&#xf4;" horiz-adv-x="1050" 
d="M639 1548h121l198 -348h-116l-166 176l-236 -176h-135zM827 653q0 121 -56 210t-177 89q-162 0 -266 -169t-105 -361q1 -131 59 -220t174 -89t203 91q168 174 168 449zM434 -23q-151 0 -263 116t-112 337t132 429q65 101 171 165t236 63q174 0 284 -116
q109 -117 109 -327t-125 -426q-61 -105 -171 -173t-261 -68z" />
    <glyph glyph-name="otilde" unicode="&#xf5;" horiz-adv-x="1050" 
d="M804 1237q-60 0 -126 47q-76 48 -96 60t-41 12q-59 0 -121 -105l-84 56q47 90 95 141q49 51 113 51t179 -82q57 -39 88 -39q57 1 123 105l84 -56q-54 -102 -104 -146t-110 -44zM827 653q0 121 -56 210t-177 89q-162 0 -266 -169t-105 -361q1 -131 59 -220t174 -89t203 91
q168 174 168 449zM434 -23q-151 0 -263 116t-112 337t132 429q65 101 171 165t236 63q174 0 284 -116q109 -117 109 -327t-125 -426q-61 -105 -171 -173t-261 -68z" />
    <glyph glyph-name="odieresis" unicode="&#xf6;" horiz-adv-x="1050" 
d="M918 1417l-37 -194h-158l39 194h156zM614 1417l-36 -194h-158l39 194h155zM827 653q0 121 -56 210t-177 89q-162 0 -266 -169t-105 -361q1 -131 59 -220t174 -89t203 91q168 174 168 449zM434 -23q-151 0 -263 116t-112 337t132 429q65 101 171 165t236 63
q174 0 284 -116q109 -117 109 -327t-125 -426q-61 -105 -171 -173t-261 -68z" />
    <glyph glyph-name="divide" unicode="&#xf7;" horiz-adv-x="1366" 
d="M801 387v-180h-180v180h180zM801 1292v-180h-180v180h180zM162 821h1100v-143h-1100v143z" />
    <glyph glyph-name="oslash" unicode="&#xf8;" horiz-adv-x="1050" 
d="M238 301l520 580q-66 71 -170 71t-193 -87q-88 -87 -130 -206q-68 -192 -27 -358zM827 608q0 80 -14 158l-520 -580q65 -74 171 -74t194 91q88 90 128 207q41 118 41 198zM991 634q0 -167 -82 -335q-95 -199 -258 -276q-92 -45 -200 -46q-156 1 -258 97l-87 -97l-86 80
l99 109q-59 106 -59 234t33 241q34 113 96 214t170 167q107 66 249 66t250 -95l86 94l86 -77l-98 -111q59 -98 59 -265z" />
    <glyph glyph-name="ugrave" unicode="&#xf9;" horiz-adv-x="1114" 
d="M641 1200l-213 359h211l119 -359h-117zM256 221q0 -102 134 -102t349 145l158 801h156l-207 -1065h-129v117q-203 -139 -345 -139t-208 66q-66 67 -66 169q1 58 13 121l143 731h156l-138 -713q-16 -86 -16 -131z" />
    <glyph glyph-name="uacute" unicode="&#xfa;" horiz-adv-x="1114" 
d="M688 1200h-135l256 359h229zM256 221q0 -102 134 -102t349 145l158 801h156l-207 -1065h-129v117q-203 -139 -345 -139t-208 66q-66 67 -66 169q1 58 13 121l143 731h156l-138 -713q-16 -86 -16 -131z" />
    <glyph glyph-name="ucircumflex" unicode="&#xfb;" horiz-adv-x="1114" 
d="M692 1548h121l199 -348h-117l-166 176l-235 -176h-136zM256 221q0 -102 134 -102t349 145l158 801h156l-207 -1065h-129v117q-203 -139 -345 -139t-208 66q-66 67 -66 169q1 58 13 121l143 731h156l-138 -713q-16 -86 -16 -131z" />
    <glyph glyph-name="udieresis" unicode="&#xfc;" horiz-adv-x="1114" 
d="M961 1417l-37 -194h-158l39 194h156zM657 1417l-36 -194h-158l39 194h155zM256 221q0 -102 134 -102t349 145l158 801h156l-207 -1065h-129v117q-203 -139 -345 -139t-208 66q-66 67 -66 169q1 58 13 121l143 731h156l-138 -713q-16 -86 -16 -131z" />
    <glyph glyph-name="yacute" unicode="&#xfd;" horiz-adv-x="983" 
d="M623 1200h-136l256 359h230zM29 -397q-55 0 -142 18l27 135q55 -18 120 -18t101 24q59 37 121 150l57 104l-174 1049h152l137 -850l465 850h164l-672 -1217q-78 -139 -154 -192t-202 -53z" />
    <glyph glyph-name="thorn" unicode="&#xfe;" horiz-adv-x="1091" 
d="M866 643q0 309 -211 309q-127 0 -297 -170l-106 -536q30 -35 52 -57q22 -21 79 -49t123 -27q166 0 263 165t97 365zM520 -23q-166 0 -295 123l-96 -497h-158l371 1898h156l-105 -540q155 127 301 127t241 -120q95 -118 95 -331t-120 -427q-58 -103 -160 -168t-230 -65z
" />
    <glyph glyph-name="ydieresis" unicode="&#xff;" horiz-adv-x="983" 
d="M895 1417l-37 -194h-158l39 194h156zM592 1417l-37 -194h-158l39 194h156zM29 -397q-55 0 -142 18l27 135q55 -18 120 -18t101 24q59 37 121 150l57 104l-174 1049h152l137 -850l465 850h164l-672 -1217q-78 -139 -154 -192t-202 -53z" />
    <glyph glyph-name="dotlessi" unicode="&#x131;" horiz-adv-x="481" 
d="M418 1065l-207 -1065h-156l207 1065h156z" />
    <glyph glyph-name="Lslash" unicode="&#x141;" horiz-adv-x="1017" 
d="M219 766l143 735h173l-117 -594l299 209l-33 -174l-301 -211l-111 -573h658l-33 -158h-827l114 592l-184 -131l33 174z" />
    <glyph glyph-name="lslash" unicode="&#x142;" horiz-adv-x="481" 
d="M383 897l160 111l-31 -170l-162 -109l-141 -729h-156l117 604l-162 -110l33 168l162 110l141 729h156z" />
    <glyph glyph-name="OE" unicode="&#x152;" horiz-adv-x="1970" 
d="M590 121q204 0 358 226t154 577q0 455 -303 454q-158 0 -279 -133t-176 -312t-55 -343t54 -299q29 -76 93 -123t154 -47zM790 1530q158 0 262 -82t148 -201l49 254h770l-28 -151h-615l-98 -502h526l-26 -148h-529l-106 -548h661l-30 -152h-811l38 207q-75 -109 -183 -172
t-230 -64q-219 0 -347 160t-128 459t161 601q80 147 218 243q140 96 298 96z" />
    <glyph glyph-name="oe" unicode="&#x153;" horiz-adv-x="1716" 
d="M1289 952q-115 0 -189 -89t-107 -216h502q18 123 -37 214t-169 91zM446 113q162 0 263 171q100 171 100 361q0 141 -57 224t-169 83t-198 -92t-124 -210t-38 -238t55 -209q55 -90 168 -90zM1188 113q96 1 178 29t209 108l-37 -178q-170 -94 -351 -94t-265 90
q-72 75 -95 147q-63 -106 -164 -172t-221 -66q-164 0 -274 116t-109 313q0 197 90 380q90 184 247 258q89 43 196 43q108 0 194 -58t138 -167q145 225 379 225q172 1 264 -109t92 -288q0 -82 -10 -174h-684q-10 -55 -11 -106q0 -297 234 -297z" />
    <glyph glyph-name="Scaron" unicode="&#x160;" horiz-adv-x="1167" 
d="M791 1636h-121l-199 349h117l166 -175l235 175h135zM410 1124q0 -49 15 -86t72 -80t167 -99t153 -84t98 -79q111 -103 111 -282q0 -223 -150 -333t-382 -110t-445 138l35 182q53 -47 93 -75t132 -60t197 -33q172 0 262 76t90 200t-92 196q-63 49 -188 114
q-174 86 -255 170t-81 227q0 204 141 314t355 110t401 -133l-39 -180q-49 45 -83 71t-115 58q-82 32 -190 32t-205 -66t-97 -188z" />
    <glyph glyph-name="scaron" unicode="&#x161;" horiz-adv-x="937" 
d="M645 1200h-121l-198 348h116l166 -174l236 174h135zM309 815q0 -65 44 -98q45 -33 185 -101t201 -130t62 -173q0 -159 -115 -247q-114 -88 -306 -88t-364 106l35 162q164 -133 332 -133q104 0 182 48t78 134q0 61 -50 100t-184 103t-196 120q-61 57 -61 164
q0 150 113 228q115 78 279 78t326 -97l-28 -153q-170 115 -314 114q-84 0 -152 -36t-67 -101z" />
    <glyph glyph-name="Ydieresis" unicode="&#x178;" horiz-adv-x="1150" 
d="M662 651l-127 -651h-173l130 655l-291 846h174l227 -674l483 674h195zM1036 1636h-198l39 199h198zM670 1636h-201l39 199h199z" />
    <glyph glyph-name="Zcaron" unicode="&#x17d;" horiz-adv-x="1130" 
d="M782 1636h-120l-199 349h117l165 -175l236 175h135zM1206 1501l-30 -141l-977 -1208h741l-29 -152h-944l27 143l975 1207h-680l33 151h884z" />
    <glyph glyph-name="zcaron" unicode="&#x17e;" horiz-adv-x="897" 
d="M614 1200h-120l-199 348h117l166 -174l235 174h135zM938 1065l-25 -125l-743 -809h596l-25 -131h-794l26 131l742 803h-557l26 131h754z" />
    <glyph glyph-name="florin" unicode="&#x192;" horiz-adv-x="997" 
d="M87 -248q71 0 101 45t62 195l205 940h-172l28 133h172l25 109q39 172 98 250t199 77q86 0 209 -39l-33 -147q-113 37 -167 37t-86 -34t-58 -153l-23 -100h219l-26 -133h-222l-231 -1049q-29 -142 -98 -212q-122 -124 -395 -29l34 137q88 -27 159 -27z" />
    <glyph glyph-name="circumflex" unicode="&#x2c6;" 
d="M475 1548h121l199 -348h-117l-166 176l-236 -176h-135z" />
    <glyph glyph-name="caron" unicode="&#x2c7;" 
d="M526 1200h-120l-199 348h117l165 -174l236 174h135z" />
    <glyph glyph-name="breve" unicode="&#x2d8;" 
d="M514 1401q131 0 205 117h129q-26 -69 -81 -142q-105 -141 -269 -141q-222 0 -285 283h121q23 -51 47 -74q51 -43 133 -43z" />
    <glyph glyph-name="dotaccent" unicode="&#x2d9;" 
d="M592 1417l-37 -194h-158l39 194h156z" />
    <glyph glyph-name="ring" unicode="&#x2da;" 
d="M610 1366q0 43 -30 73q-31 29 -74 29t-74 -28t-31 -73q0 -44 31 -75q31 -30 75 -30t74 30q29 31 29 74zM709 1366q-1 -84 -59 -143t-143 -59t-145 58q-60 60 -59 144q0 84 59 142q60 58 144 58t144 -58t59 -142z" />
    <glyph glyph-name="ogonek" unicode="&#x2db;" 
d="M217 -168q0 -36 25 -66t90 -30t190 69l-30 -139q-120 -70 -214 -70t-149 47q-55 46 -55 142t94 276h143q-94 -152 -94 -229z" />
    <glyph glyph-name="tilde" unicode="&#x2dc;" 
d="M630 1237q-60 0 -126 47q-76 48 -96 60t-41 12q-59 0 -121 -105l-84 56q47 90 95 141q49 51 113 51t179 -82q57 -39 88 -39q57 1 123 105l84 -56q-54 -102 -104 -146t-110 -44z" />
    <glyph glyph-name="hungarumlaut" unicode="&#x2dd;" 
d="M317 1200h-135l258 359h228zM610 1200h-135l258 359h228z" />
    <glyph glyph-name="mu" unicode="&#x3bc;" horiz-adv-x="1114" 
d="M279 312q0 -78 43 -135q43 -58 141 -58q137 0 227 110q59 70 96 269l111 567h156l-207 -1065h-141l16 78q-37 -29 -61 -44q-24 -16 -82 -36t-125 -21q-147 0 -236 95l-88 -455h-158l283 1448h158l-113 -569q-20 -106 -20 -184z" />
    <glyph glyph-name="endash" unicode="&#x2013;" horiz-adv-x="1024" 
d="M1036 461h-1048v143h1048v-143z" />
    <glyph glyph-name="emdash" unicode="&#x2014;" horiz-adv-x="2048" 
d="M2060 461h-2072v143h2072v-143z" />
    <glyph glyph-name="quoteleft" unicode="&#x2018;" horiz-adv-x="518" 
d="M215 983l47 244l209 303h117l-191 -291h88l-49 -256h-221z" />
    <glyph glyph-name="quoteright" unicode="&#x2019;" horiz-adv-x="518" 
d="M553 1501l-47 -244l-209 -303h-117l191 291h-88l49 256h221z" />
    <glyph glyph-name="quotesinglbase" unicode="&#x201a;" horiz-adv-x="518" 
d="M311 256l-47 -244l-209 -303h-116l190 291h-88l49 256h221z" />
    <glyph glyph-name="quotedblleft" unicode="&#x201c;" horiz-adv-x="899" 
d="M215 983l47 244l209 303h117l-191 -291h88l-49 -256h-221zM596 983l49 244l207 303h117l-191 -291h88l-49 -256h-221z" />
    <glyph glyph-name="quotedblright" unicode="&#x201d;" horiz-adv-x="899" 
d="M934 1501l-47 -244l-207 -303h-117l191 291h-90l51 256h219zM553 1501l-47 -244l-209 -303h-117l191 291h-88l49 256h221z" />
    <glyph glyph-name="quotedblbase" unicode="&#x201e;" horiz-adv-x="899" 
d="M692 256l-47 -244l-207 -303h-116l190 291h-90l51 256h219zM311 256l-47 -244l-209 -303h-116l190 291h-88l49 256h221z" />
    <glyph glyph-name="dagger" unicode="&#x2020;" horiz-adv-x="1032" 
d="M143 997l392 -24l77 528h162l-127 -528l402 24l-31 -161l-393 24l-213 -1257h-174l274 1257l-401 -24z" />
    <glyph glyph-name="daggerdbl" unicode="&#x2021;" horiz-adv-x="997" 
d="M152 1049l374 -25l64 477h168l-119 -477l383 25l-31 -162l-375 24l-51 -360l-88 -358l383 24l-31 -162l-374 25l-66 -477h-168l121 477l-385 -25l33 162l375 -24l51 358l88 360l-385 -24z" />
    <glyph glyph-name="bullet" unicode="&#x2022;" horiz-adv-x="712" 
d="M643 751q0 -107 -76 -183t-182 -74q-106 0 -181 74t-75 183t76 183t181 74t181 -75t76 -182z" />
    <glyph glyph-name="ellipsis" unicode="&#x2026;" horiz-adv-x="2048" 
d="M1749 256l-49 -256h-221l49 256h221zM1067 256l-49 -256h-221l49 256h221zM385 256l-49 -256h-221l49 256h221z" />
    <glyph glyph-name="perthousand" unicode="&#x2030;" horiz-adv-x="2508" 
d="M2308 506q0 176 -139 176q-90 0 -156 -77q-117 -136 -117 -339q0 -172 138 -172q86 0 152 70q122 131 122 342zM2439 507q0 -120 -41 -236q-41 -117 -138 -201t-227 -84t-199 81t-69 186t24 192t71 166t128 129q80 50 198 50t186 -81q68 -82 67 -202zM1559 506
q0 176 -140 176q-89 0 -155 -77q-119 -140 -117 -339q0 -172 137 -172q125 0 200 134t75 278zM1690 507q0 -282 -180 -436q-97 -85 -227 -85t-199 81t-68 205q0 181 94 339q47 79 128 129q80 50 198 50t186 -81q68 -82 68 -202zM395 -29h-133l1147 1559h133zM795 1245
q0 -278 -179 -435q-96 -85 -227 -85t-200 80t-69 201q0 120 41 234q40 114 136 202t230 88t201 -82t67 -203zM664 1245q0 176 -138 176q-90 -1 -156 -77q-118 -135 -118 -340q0 -170 139 -170q125 0 199 133t74 278z" />
    <glyph glyph-name="guilsinglleft" unicode="&#x2039;" 
d="M346 61l-289 486l475 457h211l-499 -478l278 -465h-176z" />
    <glyph glyph-name="guilsinglright" unicode="&#x203a;" 
d="M336 1004l289 -486l-475 -457h-211l499 478l-278 465h176z" />
    <glyph glyph-name="fraction" unicode="&#x2044;" horiz-adv-x="258" 
d="M-354 -29h-135l1146 1559h136z" />
    <glyph glyph-name="trademark" unicode="&#x2122;" horiz-adv-x="1417" 
d="M918 850h-123v651h172l141 -471l139 471h172v-651h-123v430l-129 -430h-120l-129 430v-430zM510 1382v-532h-127v532h-207v119h541v-119h-207z" />
    <glyph glyph-name="minus" unicode="&#x2212;" horiz-adv-x="1366" 
d="M162 821h1100v-143h-1100v143z" />
    </font>
</defs>
</svg>
