<?xml version="1.0" standalone="no"?>
<!DOCTYPE svg PUBLIC "-//W3C//DTD SVG 1.1//EN" "http://www.w3.org/Graphics/SVG/1.1/DTD/svg11.dtd" >
<svg xmlns="http://www.w3.org/2000/svg">
<metadata>
Created by FontPrep 20130207 at Wed Sep 17 16:38:28 2014
 By CJ
SAS Scandinavian is a trademark of Scandinavian Airlines System.
</metadata>
<defs>
<font id="baeda6476b3e6968f7c09408bd71e977" horiz-adv-x='1024' >
  <font-face 
    font-family="Scandinavian-Bold"
    font-weight="700"
    font-stretch="normal"
    units-per-em="2048"
    panose-1="2 0 8 3 0 0 0 0 0 0"
    ascent="1577"
    descent="-471"
    x-height="1065"
    cap-height="1501"
    bbox="-360 -512 2435 2026"
    underline-thickness="102"
    underline-position="-205"
    unicode-range="U+0020-FFFD"
  />
<missing-glyph horiz-adv-x="440" 
 />
    <glyph glyph-name="fi" unicode="fi" horiz-adv-x="1208" 
d="M1055 0h-254v1065h254v-1065zM1055 1225h-254v252h254v-252zM434 1176v-111h195v-193h-195v-872h-254v872h-155v193h155v111q0 170 79 248t288 77q63 0 125 -8v-193q-42 8 -110 8t-98 -30q-30 -32 -30 -102z" />
    <glyph glyph-name="fl" unicode="fl" horiz-adv-x="1208" 
d="M1055 0h-254v1501h254v-1501zM434 1176v-111h195v-193h-195v-872h-254v872h-155v193h155v111q0 172 78 248t289 77q63 0 125 -8v-193q-66 8 -82 9q-94 1 -125 -29t-31 -104z" />
    <glyph glyph-name=".notdef" unicode="&#xfffd;" horiz-adv-x="440" 
 />
    <glyph glyph-name=".null" horiz-adv-x="0" 
 />
    <glyph glyph-name="nonmarkingreturn" 
 />
    <glyph glyph-name="space" unicode=" " horiz-adv-x="440" 
 />
    <glyph glyph-name="exclam" unicode="!" horiz-adv-x="534" 
d="M129 0v311h277v-311h-277zM375 516h-215l-45 985h305z" />
    <glyph glyph-name="quotedbl" unicode="&#x22;" horiz-adv-x="839" 
d="M477 1501h248v-241l-43 -291h-164l-41 291v241zM115 1501h247v-241l-40 -291h-164l-43 291v241z" />
    <glyph glyph-name="numbersign" unicode="#" horiz-adv-x="1366" 
d="M825 602l64 297h-350l-64 -297h350zM1288 1092v-193h-209l-63 -297h272v-192h-313l-86 -410h-189l86 410h-350l-86 -410h-190l86 410h-168v192h209l63 297h-272v193h311l86 409h191l-86 -409h350l86 409h188l-86 -409h170z" />
    <glyph glyph-name="dollar" unicode="$" horiz-adv-x="1214" 
d="M354 1126q0 -56 35 -97q35 -40 137 -81v326q-78 -6 -125 -49t-47 -99zM707 582v-367q168 45 167 182q0 101 -107 157q-21 12 -60 28zM526 1608h181v-107q176 -25 319 -112v-281q-143 137 -319 166v-402q102 -40 161 -70t127 -81q131 -98 130 -288q-1 -189 -109 -305
t-309 -148v-216h-181v211q-209 18 -405 148v289q186 -176 405 -205v452q-268 115 -345 209q-77 93 -77 240q0 148 104 260t318 133v107z" />
    <glyph glyph-name="percent" unicode="%" horiz-adv-x="1798" 
d="M1569 385q0 168 -63 227q-30 29 -74 29q-138 0 -138 -256t138 -256t137 256zM1767 386q0 -69 -13 -131q-56 -269 -322 -269q-119 0 -198 59t-109 145q-29 86 -29 178q2 290 171 381q69 36 165 35q262 0 321 -266q14 -64 14 -132zM537 -29h-164l889 1559h163zM367 731
q-176 0 -256 114t-80 276t66 274q36 61 105 98t166 37t167 -38q71 -38 105 -101q62 -114 62 -260t-60 -259q-34 -63 -104 -102t-171 -39zM504 1128q0 169 -63 230q-30 29 -74 28q-137 0 -137 -256t136 -256q138 0 138 254z" />
    <glyph glyph-name="ampersand" unicode="&#x26;" horiz-adv-x="1415" 
d="M356 399q0 -73 66 -139t188 -66t217 95l-274 366q-197 -125 -197 -256zM526 1187q0 -52 18 -92t70 -116q55 45 83 73t54 74q25 46 25 102q0 58 -38 84t-92 26t-86 -50q-34 -49 -34 -101zM78 410q0 139 79 234t249 200q-57 86 -80 122q-60 94 -61 224q-1 129 105 234
q106 106 294 106q186 0 279 -93t93 -223q0 -92 -47 -176t-100 -134t-139 -113l233 -316q41 63 88 213h234q-61 -250 -181 -405l209 -283h-289l-83 111q-139 -139 -371 -139t-372 125q-140 126 -140 313z" />
    <glyph glyph-name="quotesingle" unicode="'" horiz-adv-x="477" 
d="M115 1501h247v-241l-40 -291h-164l-43 291v241z" />
    <glyph glyph-name="parenleft" unicode="(" horiz-adv-x="768" 
d="M377 567q0 -285 85 -495t292 -469h-252q-205 229 -306 445q-102 216 -102 532t124 549q65 120 125 203t159 198h252q-207 -262 -292 -470t-85 -493z" />
    <glyph glyph-name="parenright" unicode=")" horiz-adv-x="768" 
d="M674 567q0 -303 -102 -519t-306 -445h-252q207 260 292 470q85 211 85 495t-85 492t-292 470h252q98 -115 158 -198q172 -236 220 -461q30 -138 30 -304z" />
    <glyph glyph-name="asterisk" unicode="*" horiz-adv-x="935" 
d="M383 1057l-340 -66v221l346 -65l-225 272l192 111l109 -340l115 340l192 -113l-225 -274l346 69v-221l-346 64l225 -269l-194 -110l-113 332l-117 -326l-192 106z" />
    <glyph glyph-name="plus" unicode="+" horiz-adv-x="1366" 
d="M127 858h451v451h213v-451h448v-213h-448v-450h-213v450h-451v213z" />
    <glyph glyph-name="comma" unicode="," horiz-adv-x="524" 
d="M115 0v328h295v-314l-168 -317h-129l118 303h-116z" />
    <glyph glyph-name="hyphen" unicode="-" horiz-adv-x="671" 
d="M600 426h-528v213h528v-213z" />
    <glyph glyph-name="period" unicode="." horiz-adv-x="524" 
d="M115 0v328h295v-328h-295z" />
    <glyph glyph-name="slash" unicode="/" horiz-adv-x="1009" 
d="M262 0h-237l720 1501h238z" />
    <glyph glyph-name="zero" unicode="0" horiz-adv-x="1214" 
d="M872 750q0 88 -9 169t-35 174t-82 148t-139 55t-140 -57t-82 -153q-43 -164 -43 -298t10 -218t36 -172q26 -89 82 -141t139 -52t140 55q87 85 114 323q9 79 9 167zM1145 722q0 -177 -42 -322q-42 -146 -97 -229q-56 -83 -158 -141t-236 -58t-234 52q-99 52 -157 131
q-57 79 -104 221t-47 359q0 218 42 365q42 148 97 230t157 141t214 59q190 1 312 -84q93 -66 173 -224q80 -159 80 -500z" />
    <glyph glyph-name="one" unicode="1" horiz-adv-x="1214" 
d="M1024 0h-723v207h248v1018q-143 -84 -316 -123v209q96 31 166 67t199 123h213v-1294h213v-207z" />
    <glyph glyph-name="two" unicode="2" horiz-adv-x="1214" 
d="M1110 0h-1038q31 196 80 316t129 212t258 237t234 207t56 151t-73 131q-74 42 -176 42q-225 0 -469 -180v275q243 139 485 139t367 -124t124 -294q0 -49 -6 -86q-10 -61 -79 -151t-371 -340q-97 -81 -151 -145t-65 -91t-22 -74h717v-225z" />
    <glyph glyph-name="three" unicode="3" horiz-adv-x="1214" 
d="M580 1530q226 0 346 -119q119 -119 118 -287q0 -248 -278 -340q137 -34 222 -118t85 -252q-1 -213 -153 -328t-354 -115t-447 90v261q1 0 25 -14t33 -17q9 -5 36 -17q159 -74 345 -73q98 0 178 54t81 169q0 246 -352 246h-141v209q290 12 385 75q49 33 67 70t19 86
q0 187 -248 193q-190 0 -418 -146v260q225 113 451 113z" />
    <glyph glyph-name="four" unicode="4" horiz-adv-x="1214" 
d="M715 528v697l-414 -697h414zM1145 299h-184v-299h-246v299h-684v229l590 973h340v-973h184v-229z" />
    <glyph glyph-name="five" unicode="5" horiz-adv-x="1214" 
d="M848 492q0 135 -71 197q-71 63 -187 63t-225 -86h-224l60 835h815v-225h-606l-29 -391q135 78 274 78q219 -1 334 -133t115 -337t-123 -355q-137 -167 -465 -167q-174 0 -387 80v252q227 -102 385 -102q334 0 334 291z" />
    <glyph glyph-name="six" unicode="6" horiz-adv-x="1214" 
d="M649 201q94 -1 172 69t78 188t-61 195q-61 78 -170 78q-160 0 -330 -209q12 -88 63 -187q69 -134 248 -134zM725 961q186 1 309 -129t123 -358t-144 -364q-144 -138 -382 -139q-127 0 -229 41q-102 40 -161 104q-171 181 -171 490q0 370 238 671q75 95 122 143t113 110
h338q-231 -201 -369 -375t-186 -377q57 51 94 80t126 66t179 37z" />
    <glyph glyph-name="seven" unicode="7" horiz-adv-x="1214" 
d="M102 1257v244h1004v-244q-115 -193 -190 -327t-188 -400t-185 -530h-289q94 348 213 603t358 654h-723z" />
    <glyph glyph-name="eight" unicode="8" horiz-adv-x="1214" 
d="M332 394q0 -84 77 -142t193 -57q116 0 199 53q82 53 82 162t-92 177q-61 44 -185 99q-82 -34 -134 -64t-96 -87t-44 -141zM381 1118q0 -95 75 -153q59 -48 150 -91q171 84 207 159q21 41 21 103t-54 119t-164 57t-172 -49q-62 -50 -63 -145zM1155 389q1 -186 -151 -302
t-402 -116t-396 118t-146 303t158 298q54 39 155 90q-187 100 -238 220q-27 65 -26 145q0 169 137 277q138 108 370 108t361 -114t129 -274t-105 -251q-78 -68 -161 -111q158 -70 233 -160q31 -38 57 -100t25 -131z" />
    <glyph glyph-name="nine" unicode="9" horiz-adv-x="1214" 
d="M874 1001q-8 105 -62 193q-66 108 -214 107q-147 -1 -212 -81q-64 -80 -64 -174q0 -93 63 -166t166 -73q155 -1 323 194zM494 578q-182 0 -310 127q-127 127 -127 335q-1 208 145 348q146 142 390 142q338 0 477 -275q74 -144 76 -325q0 -240 -123 -453t-363 -477h-331
q244 240 357 388q114 148 194 355q-102 -82 -148 -106q-111 -59 -237 -59z" />
    <glyph glyph-name="colon" unicode=":" horiz-adv-x="524" 
d="M115 737v328h295v-328h-295zM115 0v328h295v-328h-295z" />
    <glyph glyph-name="semicolon" unicode=";" horiz-adv-x="524" 
d="M115 737v328h295v-328h-295zM115 0v328h295v-314l-168 -317h-129l118 303h-116z" />
    <glyph glyph-name="less" unicode="&#x3c;" horiz-adv-x="1366" 
d="M1241 188l-1116 465v195l1116 463v-232l-795 -329l795 -328v-234z" />
    <glyph glyph-name="equal" unicode="=" horiz-adv-x="1366" 
d="M125 616h1114v-213h-1114v213zM125 1096h1114v-213h-1114v213z" />
    <glyph glyph-name="greater" unicode="&#x3e;" horiz-adv-x="1366" 
d="M125 1311l1116 -463v-195l-1116 -465v234l793 328l-793 329v232z" />
    <glyph glyph-name="question" unicode="?" horiz-adv-x="944" 
d="M279 0v311h278v-311h-278zM526 545v-29h-221v68q0 106 34 181t118 159t104 127q21 43 21 100t-44 97t-118 40q-152 0 -379 -170v289q209 123 401 123t312 -95q118 -95 118 -258t-184 -327q-104 -92 -133 -156t-29 -149z" />
    <glyph glyph-name="at" unicode="@" horiz-adv-x="1855" 
d="M950 764q-82 0 -138 -116t-56 -263q0 -184 118 -184q56 -1 96 35t87 102l33 307q-58 119 -140 119zM1288 287q0 -119 86 -119q66 0 116 80q95 152 93 397q0 281 -159 464q-158 183 -454 183t-490 -202t-193 -543q0 -224 90 -402q51 -102 130 -177t209 -122t296 -47
q254 0 559 123v-207q-279 -106 -537 -106t-440 77q-335 142 -457 505q-55 165 -55 371t74 387q141 346 482 477q161 62 341 63q344 0 569 -225t226 -623q0 -216 -88 -418q-44 -99 -130 -161t-211 -62t-187 74q-41 48 -66 110q-125 -149 -201 -172q-39 -12 -88 -12
q-147 0 -223 119t-76 280q0 223 122 395t289 171q111 0 197 -121l10 114h236l-64 -581q-6 -53 -6 -90z" />
    <glyph glyph-name="A" unicode="A" horiz-adv-x="1341" 
d="M461 524h411l-206 656zM1321 0h-281l-100 315h-547l-100 -315h-273l506 1501h289z" />
    <glyph glyph-name="B" unicode="B" horiz-adv-x="1327" 
d="M455 672v-451h176q324 0 323 223q0 96 -68 162q-69 66 -237 66h-194zM455 1280v-391h198q178 0 237 84q42 60 42 119q0 188 -254 188h-223zM688 0h-516v1501h481q557 0 557 -366q0 -130 -73 -224q-29 -35 -77 -65t-75 -39q-27 -10 -72 -27q171 -42 250 -128
q33 -36 58 -99t24 -141q1 -182 -141 -297t-416 -115z" />
    <glyph glyph-name="C" unicode="C" horiz-adv-x="1290" 
d="M800 213q171 0 299 70q44 25 120 75v-286q-188 -100 -428 -101q-328 0 -519 214q-190 213 -190 533t160 554q80 118 221 188t325 70q94 0 182 -20t126 -36q39 -18 102 -49v-292q-193 156 -395 155q-117 0 -203 -47t-134 -128q-95 -160 -94 -366t95 -360q49 -80 139 -127
t194 -47z" />
    <glyph glyph-name="D" unicode="D" horiz-adv-x="1425" 
d="M455 1260v-1018h196q186 0 294 137t108 389t-120 372t-327 120h-151zM172 1501h496q305 0 490 -190t185 -568q0 -379 -187 -561t-503 -182h-481v1501z" />
    <glyph glyph-name="E" unicode="E" horiz-adv-x="1220" 
d="M1110 0h-938v1501h905v-241h-622v-381h585v-234h-585v-403h655v-242z" />
    <glyph glyph-name="F" unicode="F" horiz-adv-x="1112" 
d="M1059 1260h-604v-381h536v-242h-536v-637h-283v1501h887v-241z" />
    <glyph glyph-name="G" unicode="G" horiz-adv-x="1392" 
d="M800 1288q-108 0 -199 -49t-138 -132q-92 -162 -90 -355q0 -149 39 -249t85 -156t128 -95q83 -39 199 -39t184 29v305h-314v213h576v-680q-217 -109 -457 -109q-162 0 -292 49t-210 126q-80 78 -133 182q-98 193 -97 411t83 401q49 112 126 194t209 140q133 56 325 56
t401 -109v-293q-63 47 -103 74q-40 26 -126 56q-88 30 -196 30z" />
    <glyph glyph-name="H" unicode="H" horiz-adv-x="1511" 
d="M1339 0h-282v655h-602v-655h-283v1501h283v-598h602v598h282v-1501z" />
    <glyph glyph-name="I" unicode="I" horiz-adv-x="651" 
d="M467 0h-283v1501h283v-1501z" />
    <glyph glyph-name="J" unicode="J" horiz-adv-x="983" 
d="M819 1501v-1067q0 -267 -125 -373q-106 -88 -292 -89q-187 -1 -361 83v258q177 -100 297 -100t160 63q39 63 39 199v1026h282z" />
    <glyph glyph-name="K" unicode="K" horiz-adv-x="1335" 
d="M455 0h-283v1501h283v-680l520 680h295l-441 -565l496 -936h-299l-367 719l-204 -264v-455z" />
    <glyph glyph-name="L" unicode="L" horiz-adv-x="1114" 
d="M1073 0h-901v1501h283v-1259h618v-242z" />
    <glyph glyph-name="M" unicode="M" horiz-adv-x="1716" 
d="M1542 0h-254v1249l-350 -1249h-160l-352 1249v-1249h-254v1501h422l264 -942l266 942h418v-1501z" />
    <glyph glyph-name="N" unicode="N" horiz-adv-x="1476" 
d="M1305 0h-267l-600 1053v-1053h-266v1501h289l577 -1018v1018h267v-1501z" />
    <glyph glyph-name="O" unicode="O" horiz-adv-x="1490" 
d="M1118 762q0 174 -68 332q-38 88 -117 141t-190 53q-190 0 -280 -154t-90 -375q0 -220 80 -372q41 -80 115 -127t172 -47q97 0 168 40t110 97q100 146 100 412zM743 1530q311 0 489 -214t177 -563q0 -349 -174 -565q-175 -216 -487 -217q-312 0 -489 213
q-177 212 -177 562t175 567t486 217z" />
    <glyph glyph-name="P" unicode="P" horiz-adv-x="1320" 
d="M674 1260h-219v-445h217q123 0 205 58t81 171q1 216 -284 216zM172 1501h512q283 0 424 -120t141 -324q0 -117 -40 -207t-98 -140t-165 -91t-262 -41h-229v-578h-283v1501z" />
    <glyph glyph-name="Q" unicode="Q" horiz-adv-x="1490" 
d="M1118 762q0 174 -68 332q-38 88 -117 141t-185 53q-281 0 -357 -350q-18 -88 -18 -183t16 -181t54 -171q38 -86 116 -138t178 -52t171 40t110 97q100 146 100 412zM1168 -313q-99 -1 -193 21q-93 22 -149 50t-105 73q-49 46 -69 72t-34 52q-16 26 -20 31
q-252 51 -384 260t-132 504q0 346 175 563t486 217t489 -214t177 -568q1 -115 -23 -229q-24 -113 -62 -189t-93 -149q-116 -154 -357 -199q100 -121 340 -121q64 0 125 10v-170q-72 -14 -171 -14z" />
    <glyph glyph-name="R" unicode="R" horiz-adv-x="1378" 
d="M455 1260v-431h188q147 1 227 57t80 165q0 209 -307 209h-188zM455 604v-604h-283v1501h483q262 0 424 -103t162 -335q0 -195 -102 -295q-77 -74 -187 -123l365 -645h-301l-328 604h-233z" />
    <glyph glyph-name="S" unicode="S" horiz-adv-x="1222" 
d="M606 209q113 0 188 49q74 49 74 138t-77 142q-77 52 -293 138t-309 183t-93 253q0 194 136 306t381 112t429 -113v-280q-207 160 -421 159q-121 0 -187 -44t-66 -118t68 -119q66 -44 168 -83t117 -45q231 -91 325 -187t95 -282q0 -186 -137 -317q-136 -130 -396 -130
t-508 121v289q252 -172 506 -172z" />
    <glyph glyph-name="T" unicode="T" horiz-adv-x="1212" 
d="M1159 1260h-411v-1260h-283v1260h-412v241h1106v-241z" />
    <glyph glyph-name="U" unicode="U" horiz-adv-x="1466" 
d="M1311 1501v-962q0 -279 -150 -423q-151 -144 -429 -144t-428 142q-150 144 -148 423v964h282v-938q0 -152 70 -251t226 -99t224 98q70 98 70 252v938h283z" />
    <glyph glyph-name="V" unicode="V" horiz-adv-x="1243" 
d="M1223 1501l-463 -1501h-277l-463 1501h287l320 -1073l317 1073h279z" />
    <glyph glyph-name="W" unicode="W" horiz-adv-x="1726" 
d="M1690 1501l-328 -1501h-266l-228 1139l-237 -1139h-266l-328 1501h274l193 -1005l211 1005h305l207 -1005l196 1005h267z" />
    <glyph glyph-name="X" unicode="X" horiz-adv-x="1245" 
d="M1225 0h-316l-288 532l-291 -532h-310l455 782l-416 719h316l250 -465l249 465h312l-416 -715z" />
    <glyph glyph-name="Y" unicode="Y" horiz-adv-x="1191" 
d="M739 0h-282v670l-437 831h310l272 -543l266 543h303l-432 -831v-670z" />
    <glyph glyph-name="Z" unicode="Z" horiz-adv-x="1202" 
d="M1128 0h-1054v195l719 1065h-662v241h997v-227l-696 -1032h696v-242z" />
    <glyph glyph-name="bracketleft" unicode="[" horiz-adv-x="753" 
d="M709 -397h-516v1898h516v-229h-254v-1440h254v-229z" />
    <glyph glyph-name="backslash" unicode="\" horiz-adv-x="1009" 
d="M745 0l-720 1501h237l721 -1501h-238z" />
    <glyph glyph-name="bracketright" unicode="]" horiz-adv-x="753" 
d="M45 -397v229h254v1440h-254v229h516v-1898h-516z" />
    <glyph glyph-name="asciicircum" unicode="^" horiz-adv-x="1171" 
d="M586 1247l-277 -536h-203l404 790h149l404 -790h-201z" />
    <glyph glyph-name="underscore" unicode="_" horiz-adv-x="1024" 
d="M-12 -154h1048v-102h-1048v102z" />
    <glyph glyph-name="grave" unicode="`" 
d="M324 1200l-285 365h274l195 -365h-184z" />
    <glyph glyph-name="a" unicode="a" horiz-adv-x="1087" 
d="M633 512l-160 -57q-78 -29 -111 -68q-32 -39 -32 -103t44 -93q44 -30 93 -29q115 0 231 119v262q-14 -13 -65 -31zM952 0h-204l-29 113q-149 -135 -307 -135t-249 82q-91 83 -91 210q0 227 274 320l305 102q33 10 40 18t7 29v43q0 117 -177 117t-384 -143v221
q193 111 420 111t311 -98q84 -97 84 -271v-719z" />
    <glyph glyph-name="b" unicode="b" horiz-adv-x="1167" 
d="M604 182q70 0 118 37q80 62 102 208q9 52 10 105q0 154 -60 252t-168 98q-107 0 -213 -91v-515q102 -94 211 -94zM139 0v1501h254v-534q127 121 275 121t247 -88q181 -161 181 -468q0 -260 -121 -407t-295 -147t-307 139l-29 -117h-205z" />
    <glyph glyph-name="c" unicode="c" horiz-adv-x="980" 
d="M632 889q-148 1 -226 -105t-78 -252q0 -74 21 -142t51 -110t89 -73t138 -31q147 0 305 113v-226q-166 -86 -322 -86q-401 0 -509 350q-30 97 -29 205q0 238 135 397t391 158q170 1 313 -77v-232q-131 111 -279 111z" />
    <glyph glyph-name="d" unicode="d" horiz-adv-x="1167" 
d="M562 883q-108 1 -168 -97t-60 -273t90 -272q53 -58 135 -59q115 0 215 94v515q-104 92 -212 92zM1028 0h-205l-28 117q-139 -139 -322 -139t-293 161q-110 162 -108 397q0 236 112 394t308 157q152 0 282 -120v534h254v-1501z" />
    <glyph glyph-name="e" unicode="e" horiz-adv-x="1085" 
d="M569 899q-198 0 -231 -250h448q-29 250 -217 250zM1024 477h-690q20 -307 299 -307q100 0 175 29t165 88v-217q-162 -92 -357 -93q-131 0 -232 38q-100 39 -158 95t-94 135q-60 132 -60 292q0 258 140 404t347 146t336 -134t129 -386v-90z" />
    <glyph glyph-name="f" unicode="f" horiz-adv-x="647" 
d="M434 1176v-111h195v-193h-195v-872h-254v872h-155v193h155v111q0 178 83 252t284 73q63 0 125 -8v-193q-42 8 -108 8t-98 -28q-32 -30 -32 -104z" />
    <glyph glyph-name="g" unicode="g" horiz-adv-x="1171" 
d="M559 883q-225 0 -225 -340q0 -139 57 -239t171 -99q114 0 212 92v491q-100 94 -215 95zM1028 1065v-1004q0 -459 -481 -458q-227 0 -397 82v223q91 -61 200 -88l40 -10q60 -15 167 -15q217 0 217 230v96q-38 -35 -64 -54t-88 -43t-133 -24q-195 0 -307 153t-110 389
q0 236 112 390q112 156 294 156q183 0 317 -140l28 117h205z" />
    <glyph glyph-name="h" unicode="h" horiz-adv-x="1171" 
d="M1036 0h-254v731q0 74 -23 113q-24 39 -95 39q-113 0 -271 -99v-784h-254v1501h254v-547q188 133 357 133q287 0 286 -342v-745z" />
    <glyph glyph-name="i" unicode="i" horiz-adv-x="561" 
d="M408 0h-254v1065h254v-1065zM408 1223h-254v254h254v-254z" />
    <glyph glyph-name="j" unicode="j" horiz-adv-x="561" 
d="M408 1065v-1151q0 -158 -79 -235t-259 -76q-14 0 -121 8v192q61 -8 92 -8q72 0 92 41t21 115v1114h254zM408 1223h-254v254h254v-254z" />
    <glyph glyph-name="k" unicode="k" horiz-adv-x="1085" 
d="M393 0h-254v1501h254v-895l371 459h276l-346 -420l367 -645h-283l-241 455l-144 -172v-283z" />
    <glyph glyph-name="l" unicode="l" horiz-adv-x="561" 
d="M408 0h-254v1501h254v-1501z" />
    <glyph glyph-name="m" unicode="m" horiz-adv-x="1755" 
d="M1622 0h-254v743q0 145 -108 146q-82 0 -250 -121v-768h-254v731q0 158 -107 158q-86 0 -252 -115v-774h-254v1065h254v-121q100 72 175 108t165 36t159 -46q69 -45 87 -118q113 88 196 126t173 37q270 0 270 -339v-748z" />
    <glyph glyph-name="n" unicode="n" horiz-adv-x="1173" 
d="M1040 0h-254v735q0 147 -118 148q-104 0 -271 -109v-774h-254v1065h254v-121q205 143 355 143t219 -91q70 -91 69 -238v-758z" />
    <glyph glyph-name="o" unicode="o" horiz-adv-x="1130" 
d="M797 510q0 385 -232 385q-181 0 -222 -253q-9 -54 -9 -124t15 -144t71 -138q56 -66 138 -66q83 0 134 43t72 112q33 114 33 185zM1059 525q0 -247 -132 -397t-365 -151q-234 0 -362 154q-128 155 -128 401t127 401t367 155t367 -158q126 -158 126 -405z" />
    <glyph glyph-name="p" unicode="p" horiz-adv-x="1167" 
d="M602 182q108 0 170 98t62 232q0 133 -42 247q-22 56 -68 90t-108 34q-114 -1 -223 -103v-506q101 -92 209 -92zM393 -397h-254v1462h246v-113q39 39 68 61q29 23 95 49t138 25q194 -1 302 -159t108 -397t-113 -397t-307 -157q-70 0 -132 24t-88 43t-63 54v-495z" />
    <glyph glyph-name="q" unicode="q" horiz-adv-x="1167" 
d="M334 550q0 -172 59 -270t168 -98t213 92v514q-100 94 -198 94t-152 -58q-90 -102 -90 -274zM1028 -397h-254v495q-127 -121 -282 -121q-199 0 -310 160q-110 161 -110 395t109 395q110 161 308 160q166 0 306 -139l28 117h205v-1462z" />
    <glyph glyph-name="r" unicode="r" horiz-adv-x="825" 
d="M397 524v-524h-254v1065h246v-197q154 219 346 219q35 0 60 -6v-239q-20 4 -74 4q-106 0 -215 -88t-109 -234z" />
    <glyph glyph-name="s" unicode="s" horiz-adv-x="921" 
d="M442 170q174 0 174 106q0 45 -39 76t-143 70q-104 38 -154 62q-149 70 -190 161q-25 55 -24 129q0 164 123 239q124 75 293 75t319 -87v-223q-154 117 -321 117t-167 -100q0 -45 37 -69t202 -88t239 -142q74 -76 73 -197q0 -154 -110 -238q-110 -83 -306 -83t-374 104
v223q194 -135 368 -135z" />
    <glyph glyph-name="t" unicode="t" horiz-adv-x="679" 
d="M197 305v567h-164v193h164v350h254v-350h192v-193h-192v-553q-1 -73 23 -111t104 -38q33 0 73 8v-192q-66 -8 -119 -9q-197 0 -266 84t-69 244z" />
    <glyph glyph-name="u" unicode="u" horiz-adv-x="1173" 
d="M1030 0h-254v121q-63 -43 -100 -66t-112 -51t-144 -27q-287 0 -287 342v746h254v-733q0 -109 51 -135q27 -14 68 -15q109 0 270 109v774h254v-1065z" />
    <glyph glyph-name="v" unicode="v" horiz-adv-x="987" 
d="M971 1065l-334 -1065h-291l-330 1065h256l224 -754l225 754h250z" />
    <glyph glyph-name="w" unicode="w" horiz-adv-x="1452" 
d="M1436 1065l-328 -1065h-178l-203 678l-199 -678h-178l-334 1065h242l191 -637l188 637h180l193 -643l186 643h240z" />
    <glyph glyph-name="x" unicode="x" horiz-adv-x="964" 
d="M952 0h-284l-189 324l-188 -324h-279l336 545l-319 520h284l172 -297l172 297h279l-320 -516z" />
    <glyph glyph-name="y" unicode="y" horiz-adv-x="978" 
d="M195 -397q-55 0 -148 6v192q61 -12 98 -12q102 0 153 43q50 43 75 133l-353 1100h254l220 -709l217 709h252l-320 -1002q-78 -248 -171 -354t-277 -106z" />
    <glyph glyph-name="z" unicode="z" horiz-adv-x="983" 
d="M905 0h-835v186l536 678h-491v201h790v-188l-534 -672h534v-205z" />
    <glyph glyph-name="braceleft" unicode="{" horiz-adv-x="784" 
d="M727 -397h-59q-242 0 -327 100q-85 101 -85 339t-41 311t-166 100v229q86 14 124 40q83 57 83 355q0 121 15 198t59 138q85 117 338 117h59v-221q-123 -1 -165 -51t-42 -195t-11 -233t-43 -140q-32 -51 -58 -70t-89 -53q76 -35 115 -78q88 -97 86 -415q0 -150 42 -200
t165 -50v-221z" />
    <glyph glyph-name="bar" unicode="|" horiz-adv-x="1062" 
d="M637 -512h-213v2226h213v-2226z" />
    <glyph glyph-name="braceright" unicode="}" horiz-adv-x="784" 
d="M57 -397v221q123 0 165 50t42 212q0 306 86 403q39 43 115 78q-61 33 -88 53t-59 70q-32 51 -43 139t-11 234q0 145 -42 195t-165 51v221h60q253 0 337 -117q44 -61 59 -138t15 -221q0 -276 83 -332q38 -26 124 -40v-229q-125 -27 -166 -100t-41 -311t-85 -339
q-85 -100 -326 -100h-60z" />
    <glyph glyph-name="asciitilde" unicode="~" horiz-adv-x="1366" 
d="M444 936q94 0 262 -79t238 -79q129 0 295 146v-224q-172 -135 -303 -135q-66 -1 -126 19t-186 80t-194 59q-145 -1 -305 -148v224q160 137 319 137z" />
    <glyph glyph-name="exclamdown" unicode="&#xa1;" horiz-adv-x="534" 
d="M406 1087v-311h-277v311h277zM160 616h215l45 -985h-305z" />
    <glyph glyph-name="cent" unicode="&#xa2;" horiz-adv-x="913" 
d="M371 274l190 543q-84 -2 -140 -54q-101 -94 -99 -274q0 -131 49 -215zM578 164q133 0 286 115v-216q-152 -84 -321 -83q-63 0 -105 8l-139 -400h-168l160 455q-88 55 -154 169q-65 114 -65 290t106 331q54 77 148 123t217 48q31 0 80 -7l176 504h166l-189 -543
q27 -12 70 -36v-215q-88 61 -129 79l-213 -614q29 -8 74 -8z" />
    <glyph glyph-name="sterling" unicode="&#xa3;" horiz-adv-x="1214" 
d="M90 649v197h184q-61 139 -78 194t-18 121q0 164 130 266q130 103 324 103t357 -84v-256q-184 98 -323 98q-84 0 -144 -40t-61 -112q0 -72 39 -155q4 -11 30 -67t31 -68h268v-197h-225q12 -57 12 -117t-28 -126q-28 -64 -52 -88q-22 -24 -61 -56q131 2 247 -27t163 -28
q82 0 217 65v-235q-111 -66 -211 -66q-49 0 -211 33t-264 33t-291 -66v242q117 81 165 147t48 185q0 28 -10 104h-238z" />
    <glyph glyph-name="currency" unicode="&#xa4;" horiz-adv-x="1214" 
d="M100 754q0 40 2 53h-94l35 178h82q57 265 223 405t414 140q168 0 368 -82v-285q-168 133 -358 133q-127 0 -232 -81t-134 -230h667l-37 -178h-653q-2 -21 -2 -59t2 -54h633l-37 -178h-573q32 -158 142 -234t243 -77q193 0 358 123v-279q-183 -78 -409 -78
q-226 -1 -404 151t-211 394h-115l35 178h57q-2 20 -2 60z" />
    <glyph glyph-name="yen" unicode="&#xa5;" horiz-adv-x="1191" 
d="M1112 922v-193h-342l-31 -61v-129h373v-193h-373v-346h-282v346h-377v193h377v129l-31 61h-346v193h246l-306 579h310l272 -543l266 543h303l-301 -579h242z" />
    <glyph glyph-name="brokenbar" unicode="&#xa6;" horiz-adv-x="1062" 
d="M637 666h-213v716h213v-716zM637 -358h-213v716h213v-716z" />
    <glyph glyph-name="section" unicode="&#xa7;" horiz-adv-x="1001" 
d="M315 596q0 -41 25 -81q26 -40 48 -60t67 -54l116 -88q115 111 115 204t-156 216l-96 74q-119 -100 -119 -211zM461 -397q-172 0 -348 110v267q94 -82 170 -122t170 -40q154 0 153 102q0 76 -130 167q-250 176 -278 208q-89 102 -102 134q-34 87 -34 177q-2 171 221 320
q-154 124 -154 278t120 240q119 86 291 86t349 -111v-266q-178 162 -340 162q-76 0 -115 -32t-39 -76t30 -77q30 -34 85 -74t122 -88q68 -48 94 -68t77 -70q137 -130 137 -290q0 -103 -57 -184q-58 -79 -160 -153q149 -117 149 -273t-120 -242t-291 -85z" />
    <glyph glyph-name="dieresis" unicode="&#xa8;" 
d="M674 1223h-254v254h254v-254zM262 1223h-254v254h254v-254z" />
    <glyph glyph-name="copyright" unicode="&#xa9;" horiz-adv-x="1671" 
d="M836 1358q-242 0 -412 -170t-170 -412t170 -412t412 -169q242 0 412 170q170 169 169 411q1 242 -169 412t-412 170zM836 1530q311 0 532 -221t221 -533t-221 -532q-221 -221 -532 -221t-533 221q-221 221 -221 532t221 533q222 221 533 221zM891 1053q-117 0 -180 -75
t-63 -177t27 -170q55 -135 214 -133q68 0 120 22t134 78v-176q-121 -88 -285 -88t-280 115t-115 325q0 119 39 209t102 139q125 96 268 96q144 0 261 -88v-180q-70 55 -120 79t-122 24z" />
    <glyph glyph-name="ordfeminine" unicode="&#xaa;" horiz-adv-x="706" 
d="M227 1038q0 -66 73 -66t142 66v127l-120 -39q-49 -14 -72 -33t-23 -55zM631 848h-154l-16 59q-93 -71 -197 -71t-167 54q-62 54 -62 138t53 130t152 77l202 63q0 34 -4 50q-10 39 -110 40q-101 1 -250 -96v166q137 72 284 72q148 0 208 -56t61 -184v-442z" />
    <glyph glyph-name="guillemotleft" unicode="&#xab;" horiz-adv-x="1296" 
d="M958 59l-393 473l393 476h299l-393 -476l393 -473h-299zM432 59l-393 473l393 476h299l-393 -476l393 -473h-299z" />
    <glyph glyph-name="logicalnot" unicode="&#xac;" horiz-adv-x="1366" 
d="M125 1096h1114v-693h-213v480h-901v213z" />
    <glyph glyph-name="registered" unicode="&#xae;" horiz-adv-x="929" 
d="M465 821q125 0 212 87t87 212t-87 212t-212 87t-212 -87t-87 -212t87 -212t212 -87zM465 711q-170 -1 -290 119t-120 290t120 290t290 120t290 -120q119 -120 119 -290t-119 -290q-120 -119 -290 -119zM426 1255v-86h33q66 0 65 43q0 43 -67 43h-31zM426 1075v-174h-117
v449h160q176 0 176 -133q0 -88 -100 -125l114 -191h-116l-103 174h-14z" />
    <glyph glyph-name="macron" unicode="&#xaf;" 
d="M662 1307h-642v172h642v-172z" />
    <glyph glyph-name="degree" unicode="&#xb0;" horiz-adv-x="802" 
d="M545 1244q0 60 -41 102q-42 42 -102 40q-60 0 -102 -42t-42 -100t42 -101t102 -43t102 42q41 42 41 102zM402 956q-118 0 -202 84t-85 203q0 119 85 203q84 84 202 84t202 -84t84 -202t-84 -203t-202 -85z" />
    <glyph glyph-name="plusminus" unicode="&#xb1;" horiz-adv-x="1366" 
d="M127 227h1112v-213h-1112v213zM127 1038h451v449h213v-449h448v-213h-448v-450h-213v450h-451v213z" />
    <glyph glyph-name="twosuperior" unicode="&#xb2;" horiz-adv-x="733" 
d="M682 745h-653q33 168 87 236t185 158q131 89 155 117t23 55q0 75 -129 75t-295 -104v172q151 76 305 76t231 -69t77 -145t-46 -125q-46 -48 -172 -137t-151 -114t-35 -57h418v-138z" />
    <glyph glyph-name="threesuperior" unicode="&#xb3;" horiz-adv-x="733" 
d="M326 872q147 0 147 95q0 109 -190 108h-103v131q243 5 273 70q6 12 6 33q0 80 -118 80t-275 -84v163q146 62 286 62t216 -64t75 -140q0 -77 -36 -114t-97 -63q106 -39 134 -106q15 -36 15 -82q0 -109 -94 -169q-181 -115 -506 -12v162q160 -70 267 -70z" />
    <glyph glyph-name="acute" unicode="&#xb4;" 
d="M358 1200h-184l195 365h274z" />
    <glyph glyph-name="paragraph" unicode="&#xb6;" horiz-adv-x="1171" 
d="M428 -397v1044q-186 0 -296 113t-109 297q0 184 119 314q120 130 360 130h649v-172h-117v-1726h-229v1726h-148v-1726h-229z" />
    <glyph glyph-name="periodcentered" unicode="&#xb7;" horiz-adv-x="524" 
d="M115 586v327h295v-327h-295z" />
    <glyph glyph-name="cedilla" unicode="&#xb8;" 
d="M530 -229q0 -76 -60 -127q-60 -52 -191 -52t-246 46l59 122q92 -30 185 -30t94 55q0 74 -185 74l97 174h127l-50 -88q122 -31 153 -96q17 -34 17 -78z" />
    <glyph glyph-name="onesuperior" unicode="&#xb9;" horiz-adv-x="733" 
d="M645 745h-498v129h166v467q-76 -33 -186 -55v131q121 31 229 99h150v-642h139v-129z" />
    <glyph glyph-name="ordmasculine" unicode="&#xba;" horiz-adv-x="735" 
d="M506 1182q0 205 -139 204q-41 0 -71 -22q-67 -48 -67 -182q1 -61 17 -108q33 -97 121 -95q59 0 93 43t40 81t6 79zM369 1530q167 0 249 -100t82 -250t-87 -247t-245 -97t-245 95q-88 95 -88 248t83 252t251 99z" />
    <glyph glyph-name="guillemotright" unicode="&#xbb;" horiz-adv-x="1296" 
d="M338 59h-299l393 473l-393 476h299l393 -476zM864 59h-299l393 473l-393 476h299l393 -476z" />
    <glyph glyph-name="onequarter" unicode="&#xbc;" horiz-adv-x="1798" 
d="M645 745h-498v129h166v467q-76 -33 -186 -55v131q121 31 229 99h150v-642h139v-129zM586 -29h-162l889 1559h162zM1477 289v303l-217 -303h217zM1759 150h-98v-150h-184v150h-404v129l357 491h231v-481h98v-139z" />
    <glyph glyph-name="onehalf" unicode="&#xbd;" horiz-adv-x="1798" 
d="M1747 0h-653q33 168 87 236t236 192q80 55 104 83t23 54q0 76 -129 76t-295 -104v172q152 75 306 75t230 -68q77 -68 77 -146q0 -77 -46 -125q-46 -49 -172 -137t-151 -113t-35 -58h418v-137zM645 745h-498v129h166v467q-76 -33 -186 -55v131q121 31 229 99h150v-642h139
v-129zM537 -29h-164l889 1559h163z" />
    <glyph glyph-name="threequarters" unicode="&#xbe;" horiz-adv-x="1798" 
d="M1477 289v303l-217 -303h217zM1759 150h-98v-150h-184v150h-404v129l357 491h231v-481h98v-139zM561 -29h-162l889 1559h162zM326 872q147 0 147 95q0 109 -190 108h-103v131q243 5 273 70q6 12 6 33q0 80 -118 80t-275 -84v163q146 62 286 62t216 -64t75 -140
q0 -77 -36 -114t-97 -63q106 -39 134 -106q15 -36 15 -82q0 -109 -94 -169q-181 -115 -506 -12v162q160 -70 267 -70z" />
    <glyph glyph-name="questiondown" unicode="&#xbf;" horiz-adv-x="944" 
d="M666 1087v-311h-277v311h277zM418 588v28h221v-67q0 -106 -34 -181t-118 -160t-104 -127q-21 -41 -21 -105t52 -98t110 -34q145 0 379 170v-288q-209 -123 -401 -123t-312 95q-118 95 -118 258t184 329q104 91 133 155t29 148z" />
    <glyph glyph-name="Agrave" unicode="&#xc0;" horiz-adv-x="1341" 
d="M653 1636l-284 365h274l195 -365h-185zM461 524h411l-206 656zM1321 0h-281l-100 315h-547l-100 -315h-273l506 1501h289z" />
    <glyph glyph-name="Aacute" unicode="&#xc1;" horiz-adv-x="1341" 
d="M688 1636h-184l194 365h275zM461 524h411l-206 656zM1321 0h-281l-100 315h-547l-100 -315h-273l506 1501h289z" />
    <glyph glyph-name="Acircumflex" unicode="&#xc2;" horiz-adv-x="1341" 
d="M598 1989h145l267 -353h-172l-166 160l-168 -160h-172zM461 524h411l-206 656zM1321 0h-281l-100 315h-547l-100 -315h-273l506 1501h289z" />
    <glyph glyph-name="Atilde" unicode="&#xc3;" horiz-adv-x="1341" 
d="M800 1671q-60 -1 -148 59t-116 60q-30 0 -53 -20t-57 -72l-96 65q47 87 96 139q50 52 114 52t177 -80q55 -39 88 -39q33 1 56 23t54 71l97 -67q-56 -102 -104 -146t-108 -45zM461 524h411l-206 656zM1321 0h-281l-100 315h-547l-100 -315h-273l506 1501h289z" />
    <glyph glyph-name="Adieresis" unicode="&#xc4;" horiz-adv-x="1341" 
d="M1006 1634h-263v262h263v-262zM598 1634h-262v262h262v-262zM666 1139l-201 -615h403zM1321 0h-281l-102 315h-543l-102 -315h-273l506 1501h289z" />
    <glyph glyph-name="Aring" unicode="&#xc5;" horiz-adv-x="1341" 
d="M461 524h411l-206 656zM1321 0h-281l-100 315h-547l-100 -315h-273l506 1501h289zM776 1800q0 43 -32 75t-74 32t-73 -31q-32 -31 -32 -74t31 -75q31 -31 75 -31q45 0 75 30t30 74zM895 1801q0 -93 -65 -159q-66 -66 -158 -66t-159 66t-67 159t67 159t159 66t158 -66
t65 -159z" />
    <glyph glyph-name="AE" unicode="&#xc6;" horiz-adv-x="1929" 
d="M909 539v721h-59l-315 -721h374zM1786 1501v-241h-594v-381h557v-234h-557v-403h627v-242h-910v326h-469l-141 -326h-279l674 1501h1092z" />
    <glyph glyph-name="Ccedilla" unicode="&#xc7;" horiz-adv-x="1290" 
d="M805 -215q0 74 -182 74l65 118q-276 33 -441 239t-165 514t160 542q80 118 221 188t325 70q94 0 182 -20t126 -36q39 -17 102 -49v-292q-193 156 -395 155q-100 0 -179 -37t-125 -93q-126 -153 -126 -413q0 -205 94 -358q49 -80 139 -127t194 -47q171 0 299 70
q44 25 120 75v-286q-183 -95 -408 -101l-14 -26q120 -31 152 -96q17 -34 17 -91t-60 -111q-60 -55 -191 -55t-246 46l59 122q92 -30 184 -30t93 55z" />
    <glyph glyph-name="Egrave" unicode="&#xc8;" horiz-adv-x="1220" 
d="M625 1636l-285 365h274l195 -365h-184zM1110 0h-938v1501h905v-241h-622v-381h585v-234h-585v-403h655v-242z" />
    <glyph glyph-name="Eacute" unicode="&#xc9;" horiz-adv-x="1220" 
d="M629 1636h-185l195 365h274zM1110 0h-938v1501h905v-241h-622v-381h585v-234h-585v-403h655v-242z" />
    <glyph glyph-name="Ecircumflex" unicode="&#xca;" horiz-adv-x="1220" 
d="M569 1989h146l266 -353h-172l-166 160l-168 -160h-172zM1110 0h-938v1501h905v-241h-622v-381h585v-234h-585v-403h655v-242z" />
    <glyph glyph-name="Edieresis" unicode="&#xcb;" horiz-adv-x="1220" 
d="M981 1634h-262v262h262v-262zM573 1634h-262v262h262v-262zM1110 0h-938v1501h905v-241h-622v-381h585v-234h-585v-403h655v-242z" />
    <glyph glyph-name="Igrave" unicode="&#xcc;" horiz-adv-x="651" 
d="M309 1636l-284 365h274l195 -365h-185zM467 0h-283v1501h283v-1501z" />
    <glyph glyph-name="Iacute" unicode="&#xcd;" horiz-adv-x="651" 
d="M344 1636h-184l194 365h275zM467 0h-283v1501h283v-1501z" />
    <glyph glyph-name="Icircumflex" unicode="&#xce;" horiz-adv-x="651" 
d="M254 1989h145l267 -353h-172l-166 160l-168 -160h-172zM467 0h-283v1501h283v-1501z" />
    <glyph glyph-name="Idieresis" unicode="&#xcf;" horiz-adv-x="651" 
d="M662 1634h-263v262h263v-262zM254 1634h-262v262h262v-262zM467 0h-283v1501h283v-1501z" />
    <glyph glyph-name="Eth" unicode="&#xd0;" horiz-adv-x="1425" 
d="M455 1260v-410h295v-199h-295v-409h196q186 0 294 137t108 389t-120 372t-327 120h-151zM172 1501h496q305 0 490 -190t185 -568q0 -379 -187 -561t-503 -182h-481v651h-149v199h149v651z" />
    <glyph glyph-name="Ntilde" unicode="&#xd1;" horiz-adv-x="1476" 
d="M868 1671q-60 -1 -148 59q-87 60 -117 60q-31 0 -53 -20t-56 -72l-97 65q47 87 97 139t113 52q64 0 177 -80q55 -39 88 -39q32 1 56 23t55 71l96 -67q-57 -102 -104 -146t-107 -45zM1305 0h-267l-600 1053v-1053h-266v1501h289l577 -1018v1018h267v-1501z" />
    <glyph glyph-name="Ograve" unicode="&#xd2;" horiz-adv-x="1490" 
d="M729 1636l-285 365h275l194 -365h-184zM1118 762q0 174 -68 332q-38 88 -117 141t-190 53q-190 0 -280 -154t-90 -375q0 -220 80 -372q41 -80 115 -127t172 -47q97 0 168 40t110 97q100 146 100 412zM743 1530q311 0 489 -214t177 -563q0 -349 -174 -565
q-175 -216 -487 -217q-312 0 -489 213q-177 212 -177 562t175 567t486 217z" />
    <glyph glyph-name="Oacute" unicode="&#xd3;" horiz-adv-x="1490" 
d="M764 1636h-184l194 365h275zM1118 762q0 174 -68 332q-38 88 -117 141t-190 53q-190 0 -280 -154t-90 -375q0 -220 80 -372q41 -80 115 -127t172 -47q97 0 168 40t110 97q100 146 100 412zM743 1530q311 0 489 -214t177 -563q0 -349 -174 -565q-175 -216 -487 -217
q-312 0 -489 213q-177 212 -177 562t175 567t486 217z" />
    <glyph glyph-name="Ocircumflex" unicode="&#xd4;" horiz-adv-x="1490" 
d="M674 1989h145l266 -353h-172l-165 160l-168 -160h-172zM1118 762q0 174 -68 332q-38 88 -117 141t-190 53q-190 0 -280 -154t-90 -375q0 -220 80 -372q41 -80 115 -127t172 -47q97 0 168 40t110 97q100 146 100 412zM743 1530q311 0 489 -214t177 -563q0 -349 -174 -565
q-175 -216 -487 -217q-312 0 -489 213q-177 212 -177 562t175 567t486 217z" />
    <glyph glyph-name="Otilde" unicode="&#xd5;" horiz-adv-x="1490" 
d="M876 1671q-60 0 -153 64q-88 53 -115 54q-28 1 -50 -19t-56 -72l-96 65q47 87 96 139t113 52t178 -80q55 -39 88 -39q33 1 56 23t54 71l96 -67q-57 -102 -104 -146t-107 -45zM1118 762q0 174 -68 332q-38 88 -117 141t-190 53q-190 0 -280 -154t-90 -375q0 -220 80 -372
q41 -80 115 -127t172 -47q97 0 168 40t110 97q100 146 100 412zM743 1530q311 0 489 -214t177 -563q0 -349 -174 -565q-175 -216 -487 -217q-312 0 -489 213q-177 212 -177 562t175 567t486 217z" />
    <glyph glyph-name="Odieresis" unicode="&#xd6;" horiz-adv-x="1490" 
d="M1081 1634h-262v262h262v-262zM674 1634h-262v262h262v-262zM1118 762q0 174 -68 332q-38 88 -117 141t-185 53q-281 0 -357 -350q-18 -88 -18 -183t16 -181t54 -171q38 -86 116 -138t178 -52t171 40t110 97q100 146 100 412zM743 1530q311 0 489 -214t177 -563
q0 -349 -174 -565q-175 -216 -487 -217q-312 0 -489 213q-177 212 -177 562t175 567t486 217z" />
    <glyph glyph-name="multiply" unicode="&#xd7;" horiz-adv-x="1366" 
d="M158 377l372 373l-372 374l151 152l373 -373l375 373l151 -152l-374 -374l374 -373l-151 -152l-375 373l-373 -373z" />
    <glyph glyph-name="Oslash" unicode="&#xd8;" horiz-adv-x="1490" 
d="M743 1288q-104 0 -180 -49q-77 -49 -115 -131q-76 -161 -75 -329q0 -168 35 -285l573 700q-94 94 -238 94zM738 213q144 0 232 86q87 86 117 199q31 113 31 245t-35 265l-573 -701q84 -94 228 -94zM82 770q0 324 174 542t485 218q236 0 406 -133l108 133l154 -125
l-127 -156q127 -207 127 -501q0 -346 -175 -562t-489 -215q-237 0 -403 131l-106 -131l-154 125l127 156q-127 194 -127 518z" />
    <glyph glyph-name="Ugrave" unicode="&#xd9;" horiz-adv-x="1466" 
d="M717 1636l-285 365h275l194 -365h-184zM1311 1501v-962q0 -279 -150 -423q-151 -144 -429 -144t-428 142q-150 144 -148 423v964h282v-938q0 -152 70 -251t226 -99t224 98q70 98 70 252v938h283z" />
    <glyph glyph-name="Uacute" unicode="&#xda;" horiz-adv-x="1466" 
d="M752 1636h-185l195 365h274zM1311 1501v-962q0 -279 -150 -423q-151 -144 -429 -144t-428 142q-150 144 -148 423v964h282v-938q0 -152 70 -251t226 -99t224 98q70 98 70 252v938h283z" />
    <glyph glyph-name="Ucircumflex" unicode="&#xdb;" horiz-adv-x="1466" 
d="M662 1989h145l266 -353h-172l-166 160l-168 -160h-172zM1311 1501v-962q0 -279 -150 -423q-151 -144 -429 -144t-428 142q-150 144 -148 423v964h282v-938q0 -152 70 -251t226 -99t224 98q70 98 70 252v938h283z" />
    <glyph glyph-name="Udieresis" unicode="&#xdc;" horiz-adv-x="1466" 
d="M1067 1636h-260v260h260v-260zM659 1636h-260v260h260v-260zM1311 1501v-962q0 -279 -150 -423q-151 -144 -429 -144t-428 142q-150 144 -148 423v964h282v-938q0 -152 70 -251t226 -99t224 98q70 98 70 252v938h283z" />
    <glyph glyph-name="Yacute" unicode="&#xdd;" horiz-adv-x="1191" 
d="M614 1636h-184l195 365h274zM739 0h-282v670l-437 831h310l272 -543l266 543h303l-432 -831v-670z" />
    <glyph glyph-name="Thorn" unicode="&#xde;" horiz-adv-x="1320" 
d="M674 971h-219v-445h213q145 0 218 64q72 64 72 162t-67 158t-217 61zM172 1501h283v-289h229q279 0 422 -120t143 -336q0 -217 -145 -342t-420 -125h-229v-289h-283v1501z" />
    <glyph glyph-name="germandbls" unicode="&#xdf;" horiz-adv-x="1095" 
d="M634 164q81 0 118 72q36 72 36 174q-1 181 -69 263q-63 74 -211 81v170q90 4 143 43t53 140t-42 153q-44 52 -110 53q-122 0 -157 -104q-26 -81 -26 -197v-1012h-254v1020q0 229 118 355q119 126 312 126q111 0 197 -36q146 -62 202 -208q23 -59 23 -129t-36 -136
t-65 -88t-73 -48q128 -66 192 -172t65 -285q1 -180 -108 -301t-276 -121q-107 1 -203 56v205q90 -74 171 -74z" />
    <glyph glyph-name="agrave" unicode="&#xe0;" horiz-adv-x="1087" 
d="M526 1200l-284 365h274l195 -365h-185zM633 512l-160 -57q-78 -29 -111 -68q-32 -39 -32 -103t44 -93q44 -30 93 -29q115 0 231 119v262q-14 -13 -65 -31zM952 0h-204l-29 113q-149 -135 -307 -135t-249 82q-91 83 -91 210q0 227 274 320l305 102q33 10 40 18t7 29v43
q0 117 -177 117t-384 -143v221q193 111 420 111t311 -98q84 -97 84 -271v-719z" />
    <glyph glyph-name="aacute" unicode="&#xe1;" horiz-adv-x="1087" 
d="M561 1200h-184l194 365h275zM633 512l-160 -57q-78 -29 -111 -68q-32 -39 -32 -103t44 -93q44 -30 93 -29q115 0 231 119v262q-14 -13 -65 -31zM952 0h-204l-29 113q-149 -135 -307 -135t-249 82q-91 83 -91 210q0 227 274 320l305 102q33 10 40 18t7 29v43
q0 117 -177 117t-384 -143v221q193 111 420 111t311 -98q84 -97 84 -271v-719z" />
    <glyph glyph-name="acircumflex" unicode="&#xe2;" horiz-adv-x="1087" 
d="M471 1552h145l267 -352h-172l-166 160l-168 -160h-172zM633 512l-160 -57q-78 -29 -111 -68q-32 -39 -32 -103t44 -93q44 -30 93 -29q115 0 231 119v262q-14 -13 -65 -31zM952 0h-204l-29 113q-149 -135 -307 -135t-249 82q-91 83 -91 210q0 227 274 320l305 102
q33 10 40 18t7 29v43q0 117 -177 117t-384 -143v221q193 111 420 111t311 -98q84 -97 84 -271v-719z" />
    <glyph glyph-name="atilde" unicode="&#xe3;" horiz-adv-x="1087" 
d="M673 1235q-60 0 -153 63q-88 52 -114 54t-50 -18q-23 -20 -57 -72l-96 65q47 88 96 139q49 52 113 52t178 -80q55 -39 88 -39q33 1 56 23t54 71l97 -68q-57 -102 -105 -146t-107 -44zM633 512l-160 -57q-78 -29 -111 -68q-32 -39 -32 -103t44 -93q44 -30 93 -29
q115 0 231 119v262q-14 -13 -65 -31zM952 0h-204l-29 113q-149 -135 -307 -135t-249 82q-91 83 -91 210q0 227 274 320l305 102q33 10 40 18t7 29v43q0 117 -177 117t-384 -143v221q193 111 420 111t311 -98q84 -97 84 -271v-719z" />
    <glyph glyph-name="adieresis" unicode="&#xe4;" horiz-adv-x="1087" 
d="M877 1223h-254v254h254v-254zM465 1223h-254v254h254v-254zM633 512l-160 -57q-78 -29 -111 -68q-32 -39 -32 -103t44 -93q44 -30 93 -29q115 0 231 119v262q-14 -13 -65 -31zM952 0h-204l-29 113q-149 -135 -307 -135t-249 82q-91 83 -91 210q0 227 274 320l305 102
q33 10 40 18t7 29v43q0 117 -177 117t-384 -143v221q193 111 420 111t311 -98q84 -97 84 -271v-719z" />
    <glyph glyph-name="aring" unicode="&#xe5;" horiz-adv-x="1087" 
d="M438 1378q0 -42 31 -74t75 -32t74 31t31 75q0 44 -32 74q-31 31 -73 31t-74 -31t-32 -74zM768 1376q0 -94 -64 -158t-159 -65q-94 0 -160 66q-66 67 -66 159t67 158t160 66q94 0 158 -66t64 -160zM633 512l-160 -57q-78 -29 -111 -68q-32 -39 -32 -103t44 -93
q44 -30 93 -29q115 0 231 119v262q-14 -13 -65 -31zM952 0h-204l-29 113q-149 -135 -307 -135t-249 82q-91 83 -91 210q0 227 274 320l305 102q33 10 40 18t7 29v43q0 117 -177 117t-384 -143v221q193 111 420 111t311 -98q84 -97 84 -271v-719z" />
    <glyph glyph-name="ae" unicode="&#xe6;" horiz-adv-x="1681" 
d="M1166 899q-90 0 -148 -62t-74 -175h438q-12 123 -69 180t-147 57zM330 291q0 -69 41 -99t94 -30q129 -1 252 151q-23 90 -31 176q-356 -12 -356 -198zM686 770q0 129 -169 129t-380 -143v221q193 111 411 111t318 -144q124 143 312 143t315 -134t127 -363v-101h-680
q23 -319 297 -319q73 0 141 20t102 40t89 57v-217q-156 -92 -350 -92t-292 67q-48 33 -70 52t-48 53q-63 -53 -104 -82t-126 -60t-182 -31q-139 0 -232 79q-93 78 -93 226t147 257q148 109 467 123v108z" />
    <glyph glyph-name="ccedilla" unicode="&#xe7;" horiz-adv-x="980" 
d="M780 -220q0 -64 -35 -106q-65 -80 -207 -81q-141 -1 -255 45l59 122q92 -30 184 -30t92 55q0 74 -182 74l70 123q-115 16 -200 69t-128 115q-42 62 -74 158q-32 97 -32 206q0 248 138 403t388 154q170 0 313 -77v-232q-131 111 -275 111q-144 -1 -226 -101t-82 -256
q0 -111 53 -221q29 -59 92 -97t154 -38q147 0 305 113v-226q-139 -76 -303 -86l-19 -32q170 -44 170 -165z" />
    <glyph glyph-name="egrave" unicode="&#xe8;" horiz-adv-x="1085" 
d="M526 1200l-284 365h274l195 -365h-185zM569 899q-198 0 -231 -250h448q-29 250 -217 250zM1024 477h-690q20 -307 299 -307q100 0 175 29t165 88v-217q-162 -92 -357 -93q-131 0 -232 38q-100 39 -158 95t-94 135q-60 132 -60 292q0 258 140 404t347 146t336 -134
t129 -386v-90z" />
    <glyph glyph-name="eacute" unicode="&#xe9;" horiz-adv-x="1085" 
d="M561 1200h-184l194 365h275zM569 899q-198 0 -231 -250h448q-29 250 -217 250zM1024 477h-690q20 -307 299 -307q100 0 175 29t165 88v-217q-162 -92 -357 -93q-131 0 -232 38q-100 39 -158 95t-94 135q-60 132 -60 292q0 258 140 404t347 146t336 -134t129 -386v-90z
" />
    <glyph glyph-name="ecircumflex" unicode="&#xea;" horiz-adv-x="1085" 
d="M471 1552h145l267 -352h-172l-166 160l-168 -160h-172zM569 899q-198 0 -231 -250h448q-29 250 -217 250zM1024 477h-690q20 -307 299 -307q100 0 175 29t165 88v-217q-162 -92 -357 -93q-131 0 -232 38q-100 39 -158 95t-94 135q-60 132 -60 292q0 258 140 404t347 146
t336 -134t129 -386v-90z" />
    <glyph glyph-name="edieresis" unicode="&#xeb;" horiz-adv-x="1085" 
d="M877 1223h-254v254h254v-254zM465 1223h-254v254h254v-254zM569 899q-198 0 -231 -250h448q-29 250 -217 250zM1024 477h-690q20 -307 299 -307q100 0 175 29t165 88v-217q-162 -92 -357 -93q-131 0 -232 38q-100 39 -158 95t-94 135q-60 132 -60 292q0 258 140 404
t347 146t336 -134t129 -386v-90z" />
    <glyph glyph-name="igrave" unicode="&#xec;" horiz-adv-x="561" 
d="M264 1200l-284 365h274l195 -365h-185zM408 0h-254v1065h254v-1065z" />
    <glyph glyph-name="iacute" unicode="&#xed;" horiz-adv-x="561" 
d="M299 1200h-184l194 365h275zM408 0h-254v1065h254v-1065z" />
    <glyph glyph-name="icircumflex" unicode="&#xee;" horiz-adv-x="561" 
d="M209 1552h145l267 -352h-172l-166 160l-168 -160h-172zM408 0h-254v1065h254v-1065z" />
    <glyph glyph-name="idieresis" unicode="&#xef;" horiz-adv-x="561" 
d="M614 1223h-254v254h254v-254zM203 1223h-254v254h254v-254zM408 0h-254v1065h254v-1065z" />
    <glyph glyph-name="eth" unicode="&#xf0;" horiz-adv-x="1130" 
d="M764 325q33 114 33 221q0 108 -44 221q-24 58 -72 93t-117 35q-180 0 -221 -253q-9 -54 -9 -124t15 -144t71 -138q56 -66 138 -66q83 0 134 43t72 112zM568 -23q-240 0 -368 154q-128 153 -128 405t133 402t352 149q88 0 129 -30q-56 92 -119 176l-157 -98l-62 98l144 88
q-80 88 -203 180h246q96 -86 100 -90l147 90l62 -98l-125 -78q67 -82 89 -112t83 -126q168 -264 168 -584q0 -212 -126 -369t-365 -157z" />
    <glyph glyph-name="ntilde" unicode="&#xf1;" horiz-adv-x="1173" 
d="M716 1235q-60 0 -153 63q-89 52 -115 54t-49 -18t-57 -72l-96 65q47 88 96 139q50 52 114 52t177 -80q55 -39 88 -39q33 1 56 23t54 71l97 -68q-56 -102 -104 -146t-108 -44zM1040 0h-254v735q0 147 -118 148q-104 0 -271 -109v-774h-254v1065h254v-121q205 143 355 143
t219 -91q70 -91 69 -238v-758z" />
    <glyph glyph-name="ograve" unicode="&#xf2;" horiz-adv-x="1130" 
d="M549 1200l-285 365h275l194 -365h-184zM797 510q0 385 -232 385q-181 0 -222 -253q-9 -54 -9 -124t15 -144t71 -138q56 -66 138 -66q83 0 134 43t72 112q33 114 33 185zM1059 525q0 -247 -132 -397t-365 -151q-234 0 -362 154q-128 155 -128 401t127 401t367 155
t367 -158q126 -158 126 -405z" />
    <glyph glyph-name="oacute" unicode="&#xf3;" horiz-adv-x="1130" 
d="M584 1200h-185l195 365h274zM797 510q0 385 -232 385q-181 0 -222 -253q-9 -54 -9 -124t15 -144t71 -138q56 -66 138 -66q83 0 134 43t72 112q33 114 33 185zM1059 525q0 -247 -132 -397t-365 -151q-234 0 -362 154q-128 155 -128 401t127 401t367 155t367 -158
q126 -158 126 -405z" />
    <glyph glyph-name="ocircumflex" unicode="&#xf4;" horiz-adv-x="1130" 
d="M494 1552h145l266 -352h-172l-166 160l-168 -160h-172zM797 510q0 385 -232 385q-181 0 -222 -253q-9 -54 -9 -124t15 -144t71 -138q56 -66 138 -66q83 0 134 43t72 112q33 114 33 185zM1059 525q0 -247 -132 -397t-365 -151q-234 0 -362 154q-128 155 -128 401t127 401
t367 155t367 -158q126 -158 126 -405z" />
    <glyph glyph-name="otilde" unicode="&#xf5;" horiz-adv-x="1130" 
d="M696 1235q-60 0 -153 63q-88 52 -115 54q-28 2 -50 -18t-56 -72l-97 65q47 88 97 139q50 52 113 52q64 0 177 -80q55 -39 88 -39t57 22q23 23 54 72l96 -68q-57 -102 -104 -146t-107 -44zM797 510q0 385 -232 385q-181 0 -222 -253q-9 -54 -9 -124t15 -144t71 -138
q56 -66 138 -66q83 0 134 43t72 112q33 114 33 185zM1059 525q0 -247 -132 -397t-365 -151q-234 0 -362 154q-128 155 -128 401t127 401t367 155t367 -158q126 -158 126 -405z" />
    <glyph glyph-name="odieresis" unicode="&#xf6;" horiz-adv-x="1130" 
d="M899 1223h-254v254h254v-254zM487 1223h-254v254h254v-254zM797 510q0 385 -232 385q-181 0 -222 -253q-9 -54 -9 -124t15 -144t71 -138q56 -66 138 -66q83 0 134 43t72 112q33 114 33 185zM1059 525q0 -247 -132 -397t-365 -151q-234 0 -362 154q-128 155 -128 401
t127 401t367 155t367 -158q126 -158 126 -405z" />
    <glyph glyph-name="divide" unicode="&#xf7;" horiz-adv-x="1366" 
d="M127 858h1112v-213h-1112v213zM809 457v-254h-254v254h254zM809 1298v-251h-254v251h254z" />
    <glyph glyph-name="oslash" unicode="&#xf8;" horiz-adv-x="1130" 
d="M578 895q-80 0 -130 -36q-77 -57 -104 -210q-10 -55 -10 -115t12 -133l367 428q-55 66 -135 66zM550 170q246 0 247 362q-1 64 -13 132l-366 -428q54 -66 132 -66zM72 553q0 227 128 381t363 153q182 0 297 -88l76 88l123 -104l-88 -104q88 -141 88 -370t-130 -381
t-362 -151q-176 1 -297 89l-75 -89l-123 105l88 104q-88 139 -88 367z" />
    <glyph glyph-name="ugrave" unicode="&#xf9;" horiz-adv-x="1173" 
d="M569 1200l-284 365h274l195 -365h-185zM1030 0h-254v121q-63 -43 -100 -66t-112 -51t-144 -27q-287 0 -287 342v746h254v-733q0 -109 51 -135q27 -14 68 -15q109 0 270 109v774h254v-1065z" />
    <glyph glyph-name="uacute" unicode="&#xfa;" horiz-adv-x="1173" 
d="M604 1200h-184l194 365h275zM1030 0h-254v121q-63 -43 -100 -66t-112 -51t-144 -27q-287 0 -287 342v746h254v-733q0 -109 51 -135q27 -14 68 -15q109 0 270 109v774h254v-1065z" />
    <glyph glyph-name="ucircumflex" unicode="&#xfb;" horiz-adv-x="1173" 
d="M514 1552h145l267 -352h-172l-166 160l-168 -160h-172zM1030 0h-254v121q-63 -43 -100 -66t-112 -51t-144 -27q-287 0 -287 342v746h254v-733q0 -109 51 -135q27 -14 68 -15q109 0 270 109v774h254v-1065z" />
    <glyph glyph-name="udieresis" unicode="&#xfc;" horiz-adv-x="1173" 
d="M920 1223h-254v254h254v-254zM508 1223h-254v254h254v-254zM1030 0h-254v121q-63 -43 -100 -66t-112 -51t-144 -27q-287 0 -287 342v746h254v-733q0 -109 51 -135q27 -14 68 -15q109 0 270 109v774h254v-1065z" />
    <glyph glyph-name="yacute" unicode="&#xfd;" horiz-adv-x="978" 
d="M508 1200h-184l194 365h275zM195 -397q-55 0 -148 6v192q61 -12 98 -12q102 0 153 43q50 43 75 133l-353 1100h254l220 -709l217 709h252l-320 -1002q-78 -248 -171 -354t-277 -106z" />
    <glyph glyph-name="thorn" unicode="&#xfe;" horiz-adv-x="1167" 
d="M602 182q108 0 170 98t62 232q0 133 -42 247q-22 56 -68 90t-108 34q-114 -1 -223 -103v-506q101 -92 209 -92zM393 -397h-254v1898h254v-540q133 127 293 126q201 -1 305 -165q105 -164 105 -397t-113 -391t-307 -157q-70 0 -132 24t-88 43t-63 54v-495z" />
    <glyph glyph-name="ydieresis" unicode="&#xff;" horiz-adv-x="978" 
d="M823 1223h-254v254h254v-254zM412 1223h-254v254h254v-254zM195 -397q-55 0 -148 6v192q61 -12 98 -12q102 0 153 43q50 43 75 133l-353 1100h254l220 -709l217 709h252l-320 -1002q-78 -248 -171 -354t-277 -106z" />
    <glyph glyph-name="dotlessi" unicode="&#x131;" horiz-adv-x="561" 
d="M408 0h-254v1065h254v-1065z" />
    <glyph glyph-name="Lslash" unicode="&#x141;" horiz-adv-x="1114" 
d="M172 1501h283v-547l262 220v-259l-262 -219v-454h618v-242h-901v463l-160 -133v258l160 131v782z" />
    <glyph glyph-name="lslash" unicode="&#x142;" horiz-adv-x="561" 
d="M154 1501h254v-536l147 122v-213l-147 -124v-750h-254v537l-148 -125v215l148 125v749z" />
    <glyph glyph-name="OE" unicode="&#x152;" horiz-adv-x="2076" 
d="M1005 429q54 160 54 337t-69 338q-36 84 -106 134q-71 50 -168 50t-168 -50t-107 -133q-68 -157 -68 -350t65 -352q35 -86 106 -138q72 -52 176 -52t178 60t107 156zM1081 1501h852v-241h-594v-381h557v-234h-557v-403h627v-242h-885v172q-139 -201 -391 -201
q-220 0 -403 173q-92 87 -149 244q-56 157 -56 358q0 200 52 354q94 276 335 383q107 47 205 47q181 0 278 -73q49 -36 74 -59q24 -24 55 -61v164z" />
    <glyph glyph-name="oe" unicode="&#x153;" horiz-adv-x="1785" 
d="M1276 899q-92 0 -152 -66q-59 -67 -73 -184h436q-27 250 -211 250zM557 170q115 0 182 115q45 76 45 252q0 92 -26 183q-50 175 -199 175q-84 0 -137 -59q-88 -98 -88 -286q0 -254 110 -343q47 -37 113 -37zM1724 567v-90h-677q3 -135 77 -221t217 -86q107 0 175 28
t157 89v-217q-152 -92 -346 -93q-268 0 -407 189q-134 -188 -358 -188t-357 146q-133 148 -133 412t134 408t358 143q224 0 354 -188q143 188 362 188q106 1 187 -35t128 -90q129 -148 129 -395z" />
    <glyph glyph-name="Scaron" unicode="&#x160;" horiz-adv-x="1222" 
d="M684 1636h-145l-267 353h172l166 -160l168 160h172zM606 209q113 0 188 49q74 49 74 138t-77 142q-77 52 -293 138t-309 183t-93 253q0 194 136 306t381 112t429 -113v-280q-207 160 -421 159q-121 0 -187 -44t-66 -118t68 -119q66 -44 168 -83t117 -45q231 -91 325 -187
t95 -282q0 -186 -137 -317q-136 -130 -396 -130t-508 121v289q252 -172 506 -172z" />
    <glyph glyph-name="scaron" unicode="&#x161;" horiz-adv-x="921" 
d="M535 1200h-146l-266 352h172l166 -159l168 159h172zM442 170q174 0 174 106q0 45 -39 76t-143 70q-104 38 -154 62q-149 70 -190 161q-25 55 -24 129q0 164 123 239q124 75 293 75t319 -87v-223q-154 117 -321 117t-167 -100q0 -45 37 -69t202 -88t239 -142
q74 -76 73 -197q0 -154 -110 -238q-110 -83 -306 -83t-374 104v223q194 -135 368 -135z" />
    <glyph glyph-name="Ydieresis" unicode="&#x178;" horiz-adv-x="1191" 
d="M932 1634h-262v262h262v-262zM524 1634h-262v262h262v-262zM739 0h-282v670l-437 831h310l272 -543l266 543h303l-432 -831v-670z" />
    <glyph glyph-name="Zcaron" unicode="&#x17d;" horiz-adv-x="1202" 
d="M674 1636h-146l-266 353h172l166 -160l168 160h172zM1128 0h-1054v195l719 1065h-662v241h997v-227l-696 -1032h696v-242z" />
    <glyph glyph-name="zcaron" unicode="&#x17e;" horiz-adv-x="983" 
d="M565 1200h-145l-266 352h172l166 -159l167 159h172zM905 0h-835v186l536 678h-491v201h790v-188l-534 -672h534v-205z" />
    <glyph glyph-name="florin" unicode="&#x192;" horiz-adv-x="972" 
d="M797 1501q63 0 192 -20l-33 -187q-90 14 -120 15q-68 0 -103 -46t-51 -130l-14 -68h190l-43 -193h-188l-207 -952q-47 -207 -155 -267q-87 -50 -178 -50t-218 26l35 183q78 -16 135 -16t88 38q31 39 55 158l193 880h-172l43 193h170l24 109q35 156 112 242t245 85z" />
    <glyph glyph-name="circumflex" unicode="&#x2c6;" 
d="M268 1552h146l266 -352h-172l-166 160l-168 -160h-172z" />
    <glyph glyph-name="caron" unicode="&#x2c7;" 
d="M414 1200h-146l-266 352h172l166 -159l168 159h172z" />
    <glyph glyph-name="breve" unicode="&#x2d8;" 
d="M340 1413q117 0 172 111h156q-90 -291 -325 -291t-329 291h158q31 -53 47 -70q45 -41 121 -41z" />
    <glyph glyph-name="dotaccent" unicode="&#x2d9;" 
d="M469 1223h-254v254h254v-254z" />
    <glyph glyph-name="ring" unicode="&#x2da;" 
d="M341 1272q44 0 75 31q30 31 30 75t-31 74q-32 31 -74 31t-74 -31q-31 -31 -31 -74q0 -42 30 -74t75 -32zM341 1153q-93 0 -159 66q-66 67 -66 159t67 158t160 66t158 -66t65 -160t-66 -158t-159 -65z" />
    <glyph glyph-name="ogonek" unicode="&#x2db;" 
d="M332 -110q0 -132 116 -132q64 0 175 70v-162q-119 -72 -231 -72t-172 66t-60 167t45 236h170q-43 -117 -43 -173z" />
    <glyph glyph-name="tilde" unicode="&#x2dc;" 
d="M470 1235q-60 0 -148 59q-88 60 -116 60q-30 0 -52 -20t-58 -72l-96 65q47 88 96 139q50 52 114 52t177 -80q55 -39 88 -39q33 1 57 23t54 71l96 -68q-57 -102 -104 -146q-48 -44 -108 -44z" />
    <glyph glyph-name="hungarumlaut" unicode="&#x2dd;" 
d="M594 1200h-184l196 365h275zM233 1200h-184l195 365h274z" />
    <glyph glyph-name="mu" unicode="&#x3bc;" horiz-adv-x="1173" 
d="M387 -397h-254v1462h254v-625q0 -258 186 -258q106 0 155 74q48 74 48 176v633h254v-1065h-254v63q-117 -86 -212 -86t-177 66v-440z" />
    <glyph glyph-name="endash" unicode="&#x2013;" horiz-adv-x="1024" 
d="M1036 432h-1048v201h1048v-201z" />
    <glyph glyph-name="emdash" unicode="&#x2014;" horiz-adv-x="2048" 
d="M2060 432h-2072v201h2072v-201z" />
    <glyph glyph-name="quoteleft" unicode="&#x2018;" horiz-adv-x="524" 
d="M410 1227v-328h-295v313l168 318h127l-119 -303h119z" />
    <glyph glyph-name="quoteright" unicode="&#x2019;" horiz-adv-x="524" 
d="M115 1174v327h295v-313l-168 -318h-129l118 304h-116z" />
    <glyph glyph-name="quotesinglbase" unicode="&#x201a;" horiz-adv-x="524" 
d="M115 0v328h295v-314l-168 -317h-129l118 303h-116z" />
    <glyph glyph-name="quotedblleft" unicode="&#x201c;" horiz-adv-x="1024" 
d="M410 1227v-328h-295v313l168 318h127l-119 -303h119zM909 1227v-328h-295v313l168 318h127l-118 -303h118z" />
    <glyph glyph-name="quotedblright" unicode="&#x201d;" horiz-adv-x="1024" 
d="M614 1174v327h295v-313l-168 -318h-129l119 304h-117zM115 1174v327h295v-313l-168 -318h-129l118 304h-116z" />
    <glyph glyph-name="quotedblbase" unicode="&#x201e;" horiz-adv-x="1024" 
d="M614 0v328h295v-314l-168 -317h-129l119 303h-117zM115 0v328h295v-314l-168 -317h-129l118 303h-116z" />
    <glyph glyph-name="dagger" unicode="&#x2020;" horiz-adv-x="1030" 
d="M596 831l47 -1228h-258l47 1228l-385 -43v246l385 -41l-41 508h246l-41 -508l385 41v-246z" />
    <glyph glyph-name="daggerdbl" unicode="&#x2021;" horiz-adv-x="1007" 
d="M586 59l45 -456h-254l45 456l-367 -43v246l369 -43l-25 332l25 334l-369 -43v245l367 -43l-45 457h254l-45 -457l368 43v-245l-370 43l24 -334l-24 -332l370 43v-246z" />
    <glyph glyph-name="bullet" unicode="&#x2022;" horiz-adv-x="704" 
d="M352 1020q111 0 191 -78t80 -190t-79 -192q-79 -79 -192 -79q-112 0 -190 79t-78 192q0 112 78 190t190 78z" />
    <glyph glyph-name="ellipsis" unicode="&#x2026;" horiz-adv-x="2048" 
d="M195 0v328h294v-328h-294zM1559 0v328h294v-328h-294zM877 0v328h294v-328h-294z" />
    <glyph glyph-name="perthousand" unicode="&#x2030;" horiz-adv-x="2465" 
d="M2236 385q0 256 -137 256q-73 0 -105 -75t-32 -181q0 -256 137 -256t137 256zM2435 386q0 -69 -13 -131q-56 -269 -323 -269q-176 0 -256 114t-80 273q0 160 66 277q35 62 105 98t166 36q97 0 167 -38t105 -101t49 -127t14 -132zM1473 385q-1 70 -17 134
q-31 122 -121 122q-137 0 -137 -256t138 -256t137 256zM1671 386q0 -69 -13 -131q-56 -269 -323 -269q-176 0 -256 114t-80 275q0 162 67 276q36 61 104 97t166 36q97 0 167 -38t105 -101t49 -127t14 -132zM487 -29h-161l888 1559h162zM367 731q-176 0 -256 114t-80 276
t66 274q36 61 105 98t166 37t167 -38q71 -38 105 -101q62 -114 62 -260t-60 -259q-34 -63 -104 -102t-171 -39zM504 1128q0 169 -63 230q-30 29 -74 28q-137 0 -137 -256t136 -256q138 0 138 254z" />
    <glyph glyph-name="guilsinglleft" unicode="&#x2039;" horiz-adv-x="770" 
d="M432 59l-393 473l393 476h299l-393 -476l393 -473h-299z" />
    <glyph glyph-name="guilsinglright" unicode="&#x203a;" horiz-adv-x="770" 
d="M338 59h-299l393 473l-393 476h299l393 -476z" />
    <glyph glyph-name="fraction" unicode="&#x2044;" horiz-adv-x="331" 
d="M-199 -29h-161l888 1559h162z" />
    <glyph glyph-name="trademark" unicode="&#x2122;" horiz-adv-x="1439" 
d="M819 844h-151v657h202l127 -424l125 424h203v-657h-151v358l-111 -358h-131l-113 358v-358zM401 1358v-514h-157v514h-197v143h551v-143h-197z" />
    <glyph glyph-name="minus" unicode="&#x2212;" horiz-adv-x="1366" 
d="M127 858h1112v-213h-1112v213z" />
    </font>
</defs>
</svg>
